<svg width="368" height="368" viewBox="0 0 368 368" fill="none" xmlns="http://www.w3.org/2000/svg">
<path d="M299.795 293.546C235.454 330.508 131.141 330.508 66.7995 293.546C2.45835 256.584 2.4657 196.667 66.7995 159.712C131.133 122.757 235.461 122.757 299.795 159.712C364.129 196.667 364.136 256.592 299.795 293.546Z" fill="#FAFAFA"/>
<path d="M202.091 226.629C188.571 218.827 166.653 218.827 153.132 226.629C141.673 233.253 139.936 243.344 147.899 251.027C147.449 251.145 147.016 251.321 146.611 251.55L103.923 276.206C102.113 277.251 102.113 278.951 103.923 279.996L106.602 281.542C107.608 282.053 108.726 282.304 109.853 282.272C110.981 282.24 112.082 281.926 113.057 281.358L152.801 255.326C152.964 255.219 153.116 255.099 153.257 254.965C166.785 262.7 188.585 262.678 202.084 254.899C215.582 247.119 215.648 234.438 202.091 226.629Z" fill="#E6E6E6"/>
<path d="M297.123 198.242L242.718 229.72C242.04 230.065 241.29 230.244 240.529 230.244C239.768 230.244 239.017 230.065 238.339 229.72L143.697 175.072C142.49 174.38 142.49 173.247 143.697 172.548L198.102 141.069C198.78 140.725 199.531 140.545 200.292 140.545C201.052 140.545 201.803 140.725 202.481 141.069L297.123 195.717C298.33 196.409 298.33 197.542 297.123 198.242Z" fill="#E6E6E6"/>
<path d="M54.8541 257.777L40.3034 249.371C38.5444 248.356 38.5444 246.707 40.3034 245.691L141.555 187.231C142.543 186.73 143.634 186.469 144.742 186.469C145.849 186.469 146.941 186.73 147.929 187.231L162.487 195.636C164.246 196.652 164.246 198.3 162.487 199.316L61.2279 257.777C60.2403 258.278 59.1485 258.539 58.041 258.539C56.9336 258.539 55.8417 258.278 54.8541 257.777Z" fill="#E6E6E6"/>
<path d="M297.27 274.484C312.119 274.484 324.156 267.907 324.156 259.793C324.156 251.68 312.119 245.103 297.27 245.103C282.422 245.103 270.384 251.68 270.384 259.793C270.384 267.907 282.422 274.484 297.27 274.484Z" fill="#E6E6E6"/>
<path d="M309.039 245.206C309.297 241.945 312.196 235.387 315.921 231.428C319.645 227.468 325.202 224.804 328.874 226.401C332.297 227.873 331.546 232.473 327.027 235.181C322.508 237.89 315.796 241.224 313.492 246.354L309.039 252.521V245.206Z" fill="#515DEF"/>
<path opacity="0.1" d="M309.039 245.206C309.297 241.945 312.196 235.387 315.921 231.428C319.645 227.468 325.202 224.804 328.874 226.401C332.297 227.873 331.546 232.473 327.027 235.181C322.508 237.89 315.796 241.224 313.492 246.354L309.039 252.521V245.206Z" fill="black"/>
<path d="M308.436 249.644C308.489 249.644 308.541 249.627 308.583 249.595C308.626 249.563 308.657 249.518 308.671 249.467C311.748 238.523 321.47 230.206 327.012 228.646C327.067 228.623 327.111 228.58 327.137 228.527C327.163 228.473 327.168 228.412 327.151 228.355C327.135 228.298 327.098 228.249 327.048 228.217C326.998 228.185 326.938 228.173 326.88 228.182C321.235 229.779 311.328 238.228 308.207 249.342C308.199 249.372 308.196 249.404 308.2 249.436C308.203 249.467 308.214 249.498 308.229 249.525C308.245 249.553 308.266 249.577 308.292 249.596C308.317 249.615 308.346 249.629 308.377 249.636L308.436 249.644Z" fill="white"/>
<path d="M309.525 256.864C310.195 255.075 312.675 252.234 316.495 250.026C320.719 247.59 325.886 246.729 327.226 244.668C328.837 242.203 326.858 239.59 322.699 239.767C318.541 239.943 310.872 244.97 309.039 253.324L309.525 256.864Z" fill="#515DEF"/>
<path d="M308.885 254.906C308.93 254.907 308.975 254.894 309.013 254.869C309.051 254.844 309.08 254.808 309.098 254.766C313.278 245.515 320.815 242.755 324.215 242.586C324.278 242.586 324.338 242.561 324.382 242.517C324.426 242.472 324.451 242.412 324.451 242.35C324.451 242.288 324.426 242.228 324.382 242.183C324.338 242.139 324.278 242.115 324.215 242.115C320.454 242.299 312.955 245.125 308.686 254.568C308.673 254.597 308.665 254.628 308.664 254.66C308.664 254.691 308.669 254.723 308.681 254.753C308.693 254.782 308.71 254.809 308.732 254.832C308.755 254.854 308.782 254.872 308.811 254.884C308.834 254.896 308.859 254.904 308.885 254.906Z" fill="white"/>
<path d="M41.503 227.034C41.503 227.034 40.767 220.27 37.3667 215.015C33.9663 209.76 29.3737 206.492 25.0607 206.146C20.7478 205.8 17.2665 209.775 21.8812 212.505C26.4959 215.236 34.695 218.01 38.4707 228.204L41.503 227.034Z" fill="#515DEF"/>
<path opacity="0.1" d="M41.503 227.034C41.503 227.034 40.767 220.27 37.3667 215.015C33.9663 209.76 29.3737 206.492 25.0607 206.146C20.7478 205.8 17.2665 209.775 21.8812 212.505C26.4959 215.236 34.695 218.01 38.4707 228.204L41.503 227.034Z" fill="black"/>
<path d="M40.2371 225.275H40.2812C40.3095 225.263 40.3352 225.247 40.3569 225.225C40.3786 225.204 40.3957 225.178 40.4074 225.15C40.4191 225.122 40.425 225.092 40.4248 225.061C40.4246 225.031 40.4184 225.001 40.4064 224.973C35.8579 213.756 27.1584 209.075 23.2428 208.163C23.1855 208.157 23.1279 208.172 23.081 208.205C23.0341 208.239 23.0012 208.289 22.9885 208.345C22.9757 208.401 22.9841 208.46 23.012 208.511C23.0399 208.561 23.0854 208.6 23.1398 208.619C27.0038 209.502 35.4972 214.11 39.9795 225.142C40.0015 225.19 40.0388 225.229 40.0855 225.253C40.1322 225.277 40.1855 225.284 40.2371 225.275Z" fill="white"/>
<path d="M19.5409 225.216C19.9604 226.158 21.0129 226.644 21.9329 227.026C22.9269 227.295 23.8042 227.885 24.4279 228.704C25.4657 230.493 23.7655 233.01 24.8769 234.747C25.1376 235.099 25.4683 235.393 25.8483 235.611C26.2284 235.829 26.6494 235.966 27.0849 236.013C27.7973 236.116 28.5147 236.183 29.234 236.212C29.5762 236.203 29.9177 236.176 30.257 236.131C31.2464 235.908 32.2815 236.02 33.201 236.447C34.6215 237.242 35.0557 239.038 35.9169 240.422C36.4523 241.237 37.1575 241.928 37.9845 242.446C38.8114 242.965 39.7405 243.298 40.7082 243.424C41.5323 243.591 42.3859 243.535 43.1812 243.262L43.321 243.174C43.4107 243.079 43.4942 242.978 43.5713 242.872V242.828C43.8215 241.901 43.4093 240.937 43.3946 239.98V239.803C43.3946 238.692 43.4682 237.595 43.4903 236.477C43.5394 234.43 43.559 232.384 43.5492 230.338C43.5492 229.014 43.6964 227.556 43.137 226.305C42.5114 224.929 40.9658 224.899 40.3844 223.545C40.1489 223.008 40.0237 222.434 39.7956 221.889C39.4449 221.092 38.8818 220.407 38.1679 219.908C37.4539 219.41 36.6166 219.117 35.7476 219.063C33.0391 218.923 30.5956 221.109 27.9165 220.91C27.2208 220.816 26.5305 220.686 25.8484 220.52C23.6404 220.108 21.1306 220.734 19.9015 222.581C19.6304 222.957 19.4558 223.394 19.3929 223.853C19.33 224.313 19.3808 224.781 19.5409 225.216Z" fill="#515DEF"/>
<path d="M43.8216 238.582C43.8512 238.575 43.879 238.562 43.9034 238.544C43.9278 238.526 43.9482 238.503 43.9634 238.477C43.9786 238.451 43.9882 238.422 43.9917 238.392C43.9952 238.362 43.9924 238.331 43.9835 238.302C40.2667 224.289 25.5099 222.272 22.0802 222.515C22.0502 222.517 22.0209 222.525 21.9939 222.538C21.9669 222.551 21.9428 222.569 21.923 222.592C21.9032 222.615 21.888 222.641 21.8783 222.669C21.8687 222.698 21.8647 222.728 21.8667 222.758C21.8626 222.789 21.865 222.82 21.8737 222.85C21.8825 222.879 21.8974 222.907 21.9176 222.931C21.9377 222.954 21.9626 222.973 21.9906 222.987C22.0186 223 22.0491 223.007 22.0802 223.008C25.4584 222.765 39.8987 224.745 43.5493 238.464C43.5732 238.513 43.6138 238.552 43.6637 238.573C43.7136 238.595 43.7696 238.598 43.8216 238.582Z" fill="white"/>
<path d="M27.4233 231.487C27.4708 231.478 27.5145 231.455 27.5484 231.42C28.9109 230.24 30.517 229.375 32.2523 228.886C33.9876 228.398 35.8093 228.298 37.5875 228.594C37.6486 228.601 37.7099 228.584 37.7591 228.547C37.8083 228.51 37.8416 228.456 37.8524 228.395C37.8566 228.365 37.8547 228.335 37.8469 228.306C37.8391 228.276 37.8256 228.249 37.8071 228.225C37.7886 228.201 37.7655 228.181 37.7392 228.166C37.7128 228.151 37.6838 228.142 37.6537 228.138C35.8054 227.835 33.9129 227.944 32.1114 228.456C30.3099 228.969 28.6438 229.873 27.232 231.104C27.2106 231.125 27.1936 231.15 27.1821 231.178C27.1705 231.206 27.1646 231.236 27.1646 231.266C27.1646 231.296 27.1705 231.326 27.1821 231.354C27.1936 231.381 27.2106 231.407 27.232 231.428C27.2578 231.451 27.2883 231.468 27.3213 231.478C27.3543 231.488 27.3891 231.491 27.4233 231.487Z" fill="white"/>
<path d="M295.136 188.048L242.571 218.467C241.914 218.797 241.19 218.969 240.455 218.969C239.72 218.969 238.995 218.797 238.339 218.467L146.854 165.659C145.684 164.989 145.684 163.892 146.854 163.223L199.456 132.796C200.111 132.466 200.835 132.294 201.568 132.294C202.302 132.294 203.025 132.466 203.681 132.796L295.136 185.604C296.269 186.281 296.269 187.371 295.136 188.048Z" fill="#37474F"/>
<path d="M267.013 201.995C266.101 202.459 265.092 202.7 264.069 202.7C263.046 202.7 262.037 202.459 261.125 201.995C259.506 201.06 259.506 199.544 261.125 198.609C262.036 198.142 263.045 197.899 264.069 197.899C265.093 197.899 266.102 198.142 267.013 198.609C268.64 199.544 268.64 201.06 267.013 201.995Z" fill="#263238"/>
<path d="M242.534 218.467L295.136 188.048C296.181 187.444 296.291 186.502 295.467 185.84C295.99 186.253 296.42 186.773 296.728 187.364C297.036 187.955 297.216 188.604 297.256 189.27V191.257C297.218 191.994 297.006 192.712 296.638 193.351C296.269 193.991 295.755 194.534 295.136 194.937L242.571 225.356C241.921 225.702 241.194 225.876 240.458 225.864V218.997C241.184 218.996 241.897 218.814 242.534 218.467Z" fill="#455A64"/>
<path d="M146.854 172.533C146.237 172.13 145.723 171.586 145.356 170.947C144.989 170.307 144.778 169.59 144.742 168.853V166.866C144.78 166.199 144.96 165.548 145.268 164.956C145.576 164.363 146.006 163.843 146.53 163.429C145.706 164.106 145.794 165.041 146.854 165.637L238.302 218.445C238.954 218.791 239.683 218.966 240.422 218.953V225.819C239.683 225.833 238.954 225.658 238.302 225.312L146.854 172.533Z" fill="#263238"/>
<path d="M233.754 212.093L283.338 183.389C283.494 183.339 283.63 183.241 283.726 183.108C283.823 182.976 283.875 182.817 283.875 182.653C283.875 182.489 283.823 182.33 283.726 182.197C283.63 182.065 283.494 181.967 283.338 181.917L210.047 139.523C209.655 139.324 209.221 139.219 208.781 139.219C208.341 139.219 207.907 139.324 207.515 139.523L157.909 168.227C157.753 168.277 157.617 168.375 157.52 168.508C157.424 168.64 157.372 168.8 157.372 168.963C157.372 169.127 157.424 169.287 157.52 169.419C157.617 169.551 157.753 169.649 157.909 169.699L231.214 212.093C231.608 212.293 232.043 212.397 232.484 212.397C232.925 212.397 233.36 212.293 233.754 212.093Z" fill="#FAFAFA"/>
<path d="M165.6 169.53L189.285 183.264C189.778 183.514 190.324 183.644 190.878 183.644C191.432 183.644 191.978 183.514 192.471 183.264L234.129 159.219C234.321 159.153 234.488 159.03 234.606 158.865C234.725 158.7 234.788 158.502 234.788 158.299C234.788 158.096 234.725 157.898 234.606 157.733C234.488 157.568 234.321 157.444 234.129 157.379L210.415 143.674C209.921 143.424 209.375 143.294 208.822 143.294C208.268 143.294 207.722 143.424 207.228 143.674L165.6 167.69C165.408 167.755 165.241 167.879 165.123 168.044C165.004 168.209 164.941 168.407 164.941 168.61C164.941 168.813 165.004 169.011 165.123 169.176C165.241 169.341 165.408 169.465 165.6 169.53Z" fill="#EBEBEB"/>
<path d="M182.992 162.987L189.071 164.172C189.451 164.251 189.845 164.215 190.205 164.069L195.357 161.861C196.173 161.508 197.336 161.861 197.322 162.443L197.241 166.123C197.241 166.358 197.432 166.579 197.763 166.719L203.004 168.86C203.835 169.199 203.637 169.942 202.658 170.119L196.512 171.23C196.351 171.246 196.195 171.296 196.056 171.377C195.916 171.458 195.795 171.569 195.702 171.701L193.796 175.242C193.487 175.801 192.199 175.919 191.588 175.44L187.908 172.415C187.614 172.203 187.255 172.096 186.893 172.114L180.467 172.158C179.444 172.158 178.855 171.495 179.466 171.024L183.308 168.08C183.363 168.049 183.411 168.007 183.449 167.957C183.488 167.907 183.516 167.85 183.533 167.789C183.549 167.729 183.553 167.665 183.545 167.603C183.537 167.54 183.516 167.48 183.485 167.425L181.424 163.915C181.1 163.326 182.02 162.796 182.992 162.987Z" fill="#FAFAFA"/>
<path d="M196.512 155.23L209.554 147.7C209.81 147.549 210.097 147.46 210.394 147.44C210.69 147.419 210.987 147.468 211.261 147.583C211.674 147.825 211.578 148.267 211.055 148.569L198.021 156.098C197.764 156.247 197.477 156.335 197.181 156.355C196.885 156.375 196.588 156.328 196.313 156.216C195.901 155.973 195.997 155.531 196.512 155.23Z" fill="#FAFAFA"/>
<path d="M199.809 157.128L212.844 149.599C213.1 149.448 213.387 149.359 213.684 149.339C213.98 149.318 214.277 149.367 214.551 149.481C214.964 149.724 214.875 150.166 214.345 150.468L201.311 157.997C201.054 158.146 200.767 158.234 200.471 158.254C200.175 158.274 199.878 158.227 199.603 158.115C199.184 157.872 199.279 157.43 199.809 157.128Z" fill="#FAFAFA"/>
<path d="M203.092 159.027L216.126 151.498C216.382 151.346 216.669 151.255 216.966 151.235C217.263 151.214 217.56 151.264 217.834 151.38C218.253 151.623 218.158 152.065 217.628 152.366L204.608 159.896C204.351 160.044 204.064 160.132 203.768 160.153C203.472 160.173 203.175 160.126 202.9 160.014C202.474 159.771 202.562 159.329 203.092 159.027Z" fill="#FAFAFA"/>
<path d="M206.374 160.919L219.416 153.397C219.67 153.245 219.957 153.155 220.252 153.134C220.548 153.114 220.844 153.163 221.116 153.279C221.536 153.515 221.44 153.956 220.918 154.266L207.876 161.788C207.62 161.94 207.333 162.03 207.036 162.051C206.739 162.071 206.442 162.021 206.168 161.905C205.756 161.67 205.852 161.228 206.374 160.919Z" fill="#FAFAFA"/>
<path d="M209.664 162.818L222.699 155.296C222.954 155.143 223.242 155.053 223.538 155.033C223.835 155.012 224.132 155.062 224.406 155.178C224.818 155.414 224.73 155.855 224.2 156.164L211.166 163.686C210.91 163.839 210.623 163.929 210.326 163.949C210.029 163.97 209.732 163.92 209.458 163.804C209.024 163.569 209.134 163.127 209.664 162.818Z" fill="#FAFAFA"/>
<path d="M212.947 164.717L225.952 157.195C226.207 157.042 226.495 156.952 226.792 156.932C227.088 156.911 227.386 156.961 227.66 157.077C228.072 157.313 227.983 157.754 227.453 158.063L214.448 165.6C214.193 165.752 213.905 165.843 213.609 165.863C213.312 165.883 213.015 165.834 212.741 165.718C212.329 165.467 212.417 165.026 212.947 164.717Z" fill="#FAFAFA"/>
<path d="M194.827 186.429L195.901 187.054C196.198 187.203 196.526 187.281 196.858 187.281C197.19 187.281 197.518 187.203 197.815 187.054L222.839 172.621C223.369 172.312 223.369 171.819 222.839 171.517L221.757 170.892C221.46 170.743 221.132 170.665 220.8 170.665C220.468 170.665 220.14 170.743 219.843 170.892L194.819 185.325C194.703 185.364 194.603 185.439 194.532 185.538C194.461 185.638 194.423 185.757 194.424 185.879C194.425 186.002 194.464 186.121 194.536 186.219C194.609 186.318 194.71 186.391 194.827 186.429Z" fill="#E0E0E0"/>
<path d="M239.671 160.536L240.745 161.162C241.275 161.464 241.275 161.957 240.745 162.266L230.699 168.065C230.402 168.214 230.074 168.292 229.742 168.292C229.41 168.292 229.082 168.214 228.785 168.065L227.711 167.44C227.181 167.138 227.181 166.645 227.711 166.336L237.728 160.536C238.029 160.382 238.362 160.302 238.699 160.302C239.037 160.302 239.37 160.382 239.671 160.536Z" fill="#E0E0E0"/>
<path d="M201.473 190.248L225.216 203.945C225.71 204.196 226.256 204.326 226.809 204.326C227.363 204.326 227.909 204.196 228.403 203.945L270.061 179.9C270.253 179.835 270.42 179.711 270.538 179.546C270.656 179.381 270.72 179.183 270.72 178.98C270.72 178.777 270.656 178.579 270.538 178.414C270.42 178.249 270.253 178.126 270.061 178.06L246.347 164.356C245.853 164.106 245.307 163.975 244.753 163.975C244.199 163.975 243.654 164.106 243.16 164.356L201.473 188.416C201.283 188.483 201.119 188.607 201.003 188.771C200.886 188.935 200.824 189.131 200.824 189.332C200.824 189.533 200.886 189.729 201.003 189.894C201.119 190.058 201.283 190.182 201.473 190.248Z" fill="#EBEBEB"/>
<path d="M218.886 183.698L224.973 184.891C225.353 184.969 225.747 184.933 226.107 184.787L231.259 182.579C232.083 182.226 233.246 182.579 233.231 183.154L233.15 186.834C233.15 187.069 233.334 187.29 233.665 187.422L238.913 189.564C239.745 189.91 239.539 190.653 238.567 190.83L232.429 191.927C232.268 191.944 232.113 191.995 231.974 192.076C231.834 192.157 231.713 192.267 231.619 192.398L229.713 195.938C229.411 196.497 228.123 196.615 227.505 196.137L223.825 193.112C223.528 192.899 223.167 192.793 222.802 192.81L216.377 192.854C215.361 192.854 214.765 192.192 215.376 191.721L219.218 188.777C219.327 188.712 219.406 188.608 219.441 188.486C219.475 188.364 219.461 188.233 219.402 188.122L217.333 184.611C217.002 184.044 217.922 183.514 218.886 183.698Z" fill="#FAFAFA"/>
<path d="M232.421 175.948L245.456 168.419C245.712 168.268 245.999 168.179 246.296 168.158C246.592 168.138 246.889 168.187 247.163 168.301C247.583 168.544 247.487 168.985 246.957 169.287L233.923 176.817C233.666 176.965 233.379 177.053 233.083 177.074C232.787 177.094 232.49 177.046 232.215 176.934C231.84 176.691 231.891 176.25 232.421 175.948Z" fill="#FAFAFA"/>
<path d="M235.704 177.847L248.768 170.318C249.024 170.167 249.312 170.078 249.608 170.057C249.904 170.037 250.201 170.086 250.476 170.2C250.888 170.443 250.792 170.884 250.269 171.186L237.228 178.715C236.973 178.868 236.686 178.96 236.389 178.983C236.093 179.006 235.795 178.959 235.52 178.848C235.086 178.59 235.181 178.149 235.704 177.847Z" fill="#FAFAFA"/>
<path d="M238.994 179.738L252.028 172.224C252.284 172.071 252.571 171.981 252.868 171.961C253.165 171.94 253.462 171.99 253.736 172.106C254.148 172.342 254.06 172.783 253.53 173.092L240.495 180.614C240.239 180.763 239.951 180.851 239.655 180.871C239.359 180.892 239.063 180.844 238.788 180.732C238.368 180.489 238.464 180.048 238.994 179.738Z" fill="#FAFAFA"/>
<path d="M242.276 181.637L255.311 174.115C255.566 173.963 255.854 173.873 256.151 173.852C256.447 173.832 256.745 173.882 257.019 173.998C257.438 174.233 257.342 174.675 256.812 174.984L243.778 182.528C243.523 182.68 243.235 182.771 242.938 182.791C242.642 182.811 242.344 182.762 242.07 182.646C241.658 182.388 241.747 181.946 242.276 181.637Z" fill="#FAFAFA"/>
<path d="M245.559 183.536L258.601 176.014C258.855 175.862 259.141 175.772 259.437 175.751C259.732 175.731 260.028 175.781 260.301 175.897C260.72 176.132 260.625 176.574 260.102 176.883L247.06 184.405C246.805 184.557 246.517 184.647 246.221 184.668C245.924 184.688 245.627 184.638 245.353 184.522C244.941 184.287 245.036 183.845 245.559 183.536Z" fill="#FAFAFA"/>
<path d="M248.849 185.472L261.883 177.95C262.139 177.797 262.426 177.707 262.723 177.687C263.02 177.666 263.317 177.716 263.591 177.832C264.003 178.068 263.915 178.509 263.385 178.818L250.35 186.34C250.095 186.493 249.807 186.583 249.511 186.603C249.214 186.624 248.917 186.574 248.643 186.458C248.223 186.208 248.319 185.744 248.849 185.472Z" fill="#FAFAFA"/>
<path d="M230.721 207.147L231.803 207.773C232.1 207.921 232.428 207.999 232.76 207.999C233.092 207.999 233.42 207.921 233.717 207.773L258.741 193.34C258.857 193.301 258.958 193.227 259.029 193.128C259.101 193.029 259.14 192.91 259.14 192.788C259.14 192.665 259.101 192.546 259.029 192.447C258.958 192.348 258.857 192.274 258.741 192.236L257.659 191.61C257.362 191.461 257.034 191.384 256.702 191.384C256.37 191.384 256.042 191.461 255.745 191.61L230.721 206.043C230.605 206.081 230.504 206.155 230.433 206.255C230.361 206.354 230.323 206.473 230.323 206.595C230.323 206.717 230.361 206.836 230.433 206.935C230.504 207.035 230.605 207.109 230.721 207.147Z" fill="#E0E0E0"/>
<path d="M275.566 181.255L276.648 181.88C277.178 182.182 277.178 182.675 276.648 182.984L266.601 188.784C266.304 188.933 265.977 189.01 265.645 189.01C265.312 189.01 264.985 188.933 264.688 188.784L263.606 188.158C263.49 188.12 263.389 188.046 263.317 187.947C263.246 187.848 263.207 187.729 263.207 187.606C263.207 187.484 263.246 187.365 263.317 187.266C263.389 187.167 263.49 187.093 263.606 187.054L273.66 181.255C273.955 181.106 274.282 181.028 274.613 181.028C274.944 181.028 275.27 181.106 275.566 181.255Z" fill="#E0E0E0"/>
<path d="M177.582 150.284C177.38 150.382 177.159 150.434 176.934 150.434C176.71 150.434 176.488 150.382 176.287 150.284C176.21 150.257 176.144 150.207 176.098 150.141C176.051 150.075 176.026 149.996 176.026 149.916C176.026 149.835 176.051 149.756 176.098 149.69C176.144 149.624 176.21 149.574 176.287 149.548C176.488 149.449 176.71 149.397 176.934 149.397C177.159 149.397 177.38 149.449 177.582 149.548C177.943 149.746 177.943 150.078 177.582 150.284Z" fill="#263238"/>
<path d="M175.514 156.164C175.112 156.368 174.669 156.473 174.218 156.473C173.768 156.473 173.325 156.368 172.923 156.164C172.777 156.105 172.652 156.003 172.564 155.872C172.476 155.741 172.428 155.586 172.428 155.428C172.428 155.271 172.476 155.116 172.564 154.985C172.652 154.854 172.777 154.752 172.923 154.692C173.325 154.489 173.768 154.384 174.218 154.384C174.669 154.384 175.112 154.489 175.514 154.692C175.66 154.752 175.785 154.854 175.873 154.985C175.961 155.116 176.008 155.271 176.008 155.428C176.008 155.586 175.961 155.741 175.873 155.872C175.785 156.003 175.66 156.105 175.514 156.164Z" fill="#263238"/>
<path d="M177.376 153.559C176.898 153.279 176.927 152.823 177.435 152.529L185.958 147.605C186.235 147.463 186.541 147.389 186.852 147.389C187.163 147.389 187.469 147.463 187.746 147.605C188.217 147.877 188.195 148.341 187.687 148.635L179.165 153.552C178.888 153.692 178.582 153.767 178.271 153.768C177.961 153.769 177.654 153.698 177.376 153.559Z" fill="#263238"/>
<path d="M156.702 81.5561V83.2857L150.725 86.7376L141.761 91.8896L62.6262 137.632C62.1573 137.926 61.7701 138.334 61.5001 138.817C61.2093 139.292 61.047 139.835 61.0291 140.392V245.566C61.0291 251.285 57.0105 253.603 52.0646 250.718C47.1187 247.833 43.0928 240.907 43.0928 235.189V130.007C43.1234 129.454 43.284 128.916 43.5614 128.436C43.8389 127.957 44.2255 127.549 44.6899 127.247L132.782 76.3821L141.312 71.4656C141.597 71.9453 141.754 72.4902 141.768 73.048V74.6525L47.6781 129.116C47.2365 129.391 46.8698 129.77 46.6109 130.22C46.2892 130.715 46.1085 131.287 46.0883 131.876V236.911C46.0883 240.723 48.7673 245.353 52.072 247.259C55.3766 249.165 58.0483 247.62 58.0483 243.807V138.633C58.0739 138.082 58.2292 137.545 58.5016 137.065C58.774 136.586 59.1558 136.177 59.616 135.873L156.238 80.0841C156.516 80.5272 156.675 81.0339 156.702 81.5561Z" fill="#E0E0E0"/>
<path d="M147.73 76.4925V81.5562L56.6722 134.151C56.2043 134.448 55.8131 134.852 55.5305 135.329C55.2479 135.806 55.0818 136.343 55.0456 136.896V242.07C55.0456 243.977 53.7135 244.749 52.0648 243.793C51.1967 243.229 50.4737 242.469 49.9544 241.574C49.4352 240.679 49.1345 239.674 49.0767 238.641V133.459C49.0956 132.903 49.2551 132.361 49.5403 131.884C49.8147 131.404 50.201 130.997 50.6664 130.699L147.281 74.9175C147.561 75.3964 147.715 75.9381 147.73 76.4925Z" fill="#E0E0E0"/>
<path d="M64.4811 140.517C64.195 140.991 64.0353 141.531 64.0174 142.085V246.354C64.0189 247.112 63.9697 247.869 63.8702 248.621C63.8407 248.817 63.8113 249.008 63.7819 249.195C63.7819 249.371 63.7156 249.541 63.6788 249.717C63.642 249.894 63.6052 250.027 63.5611 250.174C63.5169 250.321 63.4875 250.461 63.4433 250.601C62.9557 252.391 61.8095 253.932 60.2343 254.914C58.0926 256.143 55.2222 255.995 52.0647 254.178C45.4407 250.365 40.1047 240.679 40.1047 232.554V128.277C40.1227 127.724 40.2823 127.184 40.5684 126.71L43.5639 128.432C43.2731 128.907 43.1108 129.45 43.0929 130.007V235.181C43.0929 240.9 47.1115 247.855 52.0647 250.711C57.018 253.567 61.0292 251.256 61.0292 245.559V140.363C61.0471 139.806 61.2094 139.263 61.5003 138.787L64.4811 140.517Z" fill="#EBEBEB"/>
<path d="M58.5047 137.065C58.2195 137.54 58.06 138.08 58.0411 138.633V243.807C58.0411 247.62 55.362 249.166 52.0647 247.259C48.7675 245.353 46.0811 240.724 46.0811 236.911V131.847C46.1012 131.258 46.2819 130.685 46.6036 130.191L49.5476 131.884C49.2624 132.361 49.1029 132.903 49.0839 133.459V238.633C49.1418 239.667 49.4425 240.672 49.9617 241.567C50.4809 242.462 51.204 243.222 52.0721 243.785C53.7207 244.742 55.0529 243.969 55.0529 242.063V136.896C55.0708 136.339 55.2331 135.796 55.5239 135.321L58.5047 137.065Z" fill="#EBEBEB"/>
<path d="M141.312 71.4656L132.797 76.3821L44.69 127.247C44.2194 127.539 43.8317 127.947 43.5639 128.432L40.5684 126.71C40.836 126.223 41.2236 125.812 41.6944 125.517L129.794 74.6525L131.494 73.6663L133.216 72.6948L134.688 71.841L135.564 71.3332L137.19 70.3984C137.665 70.1462 138.192 70.0094 138.729 69.9992C139.266 69.9889 139.798 70.1056 140.282 70.3396C140.717 70.6191 141.072 71.0072 141.312 71.4656Z" fill="#FAFAFA"/>
<path d="M162.222 83.5433L153.706 88.4598L138.758 97.0857L65.6146 139.325C65.1433 139.622 64.7537 140.031 64.4811 140.517L61.5371 138.788C61.8006 138.319 62.1746 137.923 62.6264 137.632L141.754 91.919L150.718 86.767L156.695 83.3152L158.086 82.5129L158.24 82.432C158.7 82.2119 159.203 82.0977 159.712 82.0977C160.222 82.0977 160.725 82.2119 161.184 82.432L161.339 82.5277C161.703 82.7985 162.004 83.145 162.222 83.5433Z" fill="#FAFAFA"/>
<path d="M147.281 74.9174L50.6663 130.699C50.2009 130.997 49.8146 131.404 49.5402 131.884L46.5962 130.191C46.8552 129.74 47.2218 129.361 47.6634 129.087L141.754 74.623L143.137 73.8208C143.612 73.5686 144.139 73.4317 144.676 73.4215C145.213 73.4113 145.745 73.5279 146.229 73.7619C146.674 74.0488 147.037 74.4471 147.281 74.9174Z" fill="#FAFAFA"/>
<path d="M156.26 80.0843L59.616 135.873C59.1431 136.168 58.753 136.578 58.4825 137.065L55.4944 135.336C55.7765 134.845 56.1826 134.436 56.672 134.151L147.759 81.5563L152.175 79.0245C152.65 78.7734 153.178 78.6378 153.715 78.6289C154.252 78.6199 154.784 78.7378 155.267 78.973C155.688 79.252 156.03 79.6348 156.26 80.0843Z" fill="#FAFAFA"/>
<path d="M162.656 85.1258V189.395C162.656 193.671 161.184 196.667 158.807 197.991L60.0945 254.987C60.9684 254.462 61.7264 253.764 62.3223 252.937C62.9182 252.109 63.3397 251.169 63.561 250.174C63.6052 250.027 63.642 249.872 63.6788 249.718C63.7156 249.563 63.745 249.372 63.7818 249.195C63.8186 249.018 63.8407 248.82 63.8702 248.621C63.9697 247.869 64.0189 247.112 64.0174 246.354V142.085C64.0353 141.531 64.195 140.991 64.481 140.517C64.7536 140.031 65.1432 139.622 65.6145 139.325L138.758 97.0932L153.706 88.4673L162.222 83.5508C162.499 84.0299 162.649 84.5723 162.656 85.1258Z" fill="#F5F5F5"/>
<path d="M74.5864 141.054L89.3064 132.539C90.1896 132.031 90.8961 132.436 90.8961 133.459V153.942C90.8675 154.495 90.7086 155.033 90.4323 155.512C90.156 155.992 89.7702 156.4 89.3064 156.702L74.5864 165.217C73.7032 165.725 72.9893 165.313 72.9893 164.297V143.814C73.0193 143.261 73.1796 142.723 73.4572 142.243C73.7347 141.763 74.1216 141.356 74.5864 141.054Z" fill="#455A64"/>
<path d="M72.9893 173.041L153.714 126.438V129.889L72.9893 176.493V173.041Z" fill="#515DEF"/>
<path opacity="0.4" d="M72.9893 173.041L153.714 126.438V129.889L72.9893 176.493V173.041Z" fill="white"/>
<path d="M73.9461 182.845L89.9761 173.593C90.4987 173.284 90.9256 173.534 90.9256 174.145V206.456C90.9084 206.787 90.8135 207.109 90.6486 207.397C90.4836 207.685 90.2533 207.929 89.9761 208.112L73.9461 217.363C73.4161 217.672 72.9893 217.422 72.9893 216.811V184.501C73.0066 184.169 73.1024 183.846 73.2687 183.558C73.435 183.27 73.6671 183.025 73.9461 182.845Z" fill="#F0F0F0"/>
<path d="M73.9461 220.8L89.9761 211.541C90.4987 211.239 90.9256 211.49 90.9256 212.093V237.382L72.9893 247.76V222.478C73.0032 222.142 73.0973 221.815 73.2638 221.523C73.4303 221.231 73.6642 220.983 73.9461 220.8Z" fill="#F0F0F0"/>
<path d="M94.8779 170.752L110.901 161.501C111.431 161.199 111.857 161.442 111.857 162.053V204.741C111.839 205.072 111.743 205.395 111.577 205.683C111.411 205.971 111.179 206.215 110.901 206.397L94.8779 215.648C94.348 215.95 93.9211 215.707 93.9211 215.096V172.408C93.9403 172.076 94.0368 171.754 94.2029 171.466C94.3691 171.179 94.6003 170.934 94.8779 170.752Z" fill="#F0F0F0"/>
<path d="M115.802 158.682L131.825 149.408C132.355 149.099 132.782 149.349 132.782 149.96V182.27C132.764 182.602 132.669 182.926 132.502 183.213C132.336 183.501 132.104 183.746 131.825 183.926L115.802 193.2C115.272 193.509 114.845 193.259 114.845 192.648V160.338C114.863 160.006 114.959 159.683 115.125 159.395C115.291 159.107 115.523 158.863 115.802 158.682Z" fill="#F0F0F0"/>
<path d="M136.734 146.597L152.757 137.345C153.287 137.036 153.714 137.286 153.714 137.897V180.585C153.695 180.917 153.598 181.239 153.432 181.527C153.266 181.814 153.035 182.059 152.757 182.241L136.734 191.493C136.204 191.794 135.777 191.551 135.777 190.941V148.253C135.795 147.921 135.891 147.597 136.057 147.31C136.223 147.022 136.455 146.777 136.734 146.597Z" fill="#F0F0F0"/>
<path d="M94.8779 219.092L110.901 209.841C111.431 209.532 111.857 209.782 111.857 210.393V225.319L93.9211 235.682V220.748C93.9385 220.416 94.0343 220.093 94.2006 219.806C94.3669 219.518 94.599 219.273 94.8779 219.092Z" fill="#F0F0F0"/>
<path d="M114.816 198.308V223.597L132.752 213.241V187.952C132.752 187.342 132.326 187.099 131.796 187.4L115.773 196.652C115.494 196.833 115.263 197.078 115.096 197.365C114.93 197.653 114.834 197.976 114.816 198.308Z" fill="#F0F0F0"/>
<path d="M136.727 194.93L152.757 185.678C153.287 185.369 153.714 185.619 153.714 186.23V201.156L135.777 211.512V196.586C135.794 196.254 135.889 195.932 136.054 195.644C136.219 195.357 136.45 195.112 136.727 194.93Z" fill="#F0F0F0"/>
<path d="M97.8882 220.8L107.935 215C108.465 214.691 108.891 214.941 108.891 215.552V223.744C108.874 224.076 108.778 224.399 108.612 224.687C108.446 224.975 108.214 225.219 107.935 225.4L97.8882 231.185C97.3583 231.487 96.9314 231.244 96.9314 230.633V222.485C96.9442 222.148 97.0378 221.819 97.2043 221.526C97.3708 221.233 97.6054 220.984 97.8882 220.8Z" fill="#E0E0E0"/>
<path d="M139.722 196.667L149.769 190.867C150.291 190.558 150.726 190.808 150.726 191.419V199.567C150.706 199.898 150.609 200.22 150.443 200.508C150.277 200.795 150.046 201.04 149.769 201.223L139.722 207.022C139.193 207.324 138.766 207.081 138.766 206.47V198.323C138.783 197.991 138.879 197.668 139.045 197.38C139.211 197.092 139.444 196.848 139.722 196.667Z" fill="#E0E0E0"/>
<path d="M76.9341 184.574L86.9805 178.767C87.5104 178.465 87.9373 178.716 87.9373 179.319V187.474C87.9182 187.805 87.8217 188.128 87.6555 188.416C87.4894 188.703 87.2582 188.948 86.9805 189.13L76.9341 194.93C76.4115 195.231 75.9773 194.988 75.9773 194.378V186.208C75.9986 185.88 76.0963 185.561 76.2624 185.278C76.4285 184.994 76.6585 184.753 76.9341 184.574Z" fill="#E0E0E0"/>
<path d="M76.6176 196.836L87.3043 190.668C87.6576 190.47 87.9373 190.631 87.9373 191.036V191.294C87.9261 191.515 87.8629 191.73 87.7529 191.922C87.6429 192.113 87.4892 192.277 87.3043 192.398L76.6176 198.566C76.2643 198.772 75.9773 198.566 75.9773 198.198V197.94C75.9899 197.719 76.0545 197.503 76.1657 197.312C76.277 197.12 76.4318 196.957 76.6176 196.836Z" fill="#E0E0E0"/>
<path d="M76.6176 200.288L87.3043 194.12C87.6576 193.921 87.9373 194.083 87.9373 194.488V194.746C87.9261 194.966 87.8629 195.181 87.7529 195.373C87.6429 195.565 87.4892 195.728 87.3043 195.85L76.6176 202.017C76.2643 202.223 75.9773 202.017 75.9773 201.649V201.392C75.9899 201.17 76.0545 200.955 76.1657 200.763C76.277 200.571 76.4318 200.408 76.6176 200.288Z" fill="#E0E0E0"/>
<path d="M76.6176 203.74L87.3043 197.572C87.6576 197.373 87.9373 197.535 87.9373 197.94V198.197C87.9261 198.418 87.8629 198.633 87.7529 198.825C87.6429 199.017 87.4892 199.18 87.3043 199.301L76.6176 205.469C76.2643 205.675 75.9773 205.506 75.9773 205.101V204.844C75.9899 204.622 76.0545 204.407 76.1657 204.215C76.277 204.023 76.4318 203.86 76.6176 203.74Z" fill="#E0E0E0"/>
<path d="M76.6176 207.191L87.3043 201.024C87.6576 200.825 87.9373 200.987 87.9373 201.392V201.664C87.9261 201.885 87.8629 202.1 87.7529 202.292C87.6429 202.484 87.4892 202.647 87.3043 202.768L76.6176 208.936C76.2643 209.142 75.9773 208.973 75.9773 208.568V208.288C75.9911 208.068 76.0561 207.854 76.1673 207.664C76.2785 207.473 76.4327 207.312 76.6176 207.191Z" fill="#E0E0E0"/>
<path d="M76.6176 210.643L87.3043 204.476C87.6576 204.277 87.9373 204.439 87.9373 204.844V205.101C87.9261 205.322 87.8629 205.537 87.7529 205.729C87.6429 205.921 87.4892 206.084 87.3043 206.205L76.6176 212.373C76.2643 212.579 75.9773 212.41 75.9773 212.005V211.747C75.9899 211.526 76.0545 211.311 76.1657 211.119C76.277 210.927 76.4318 210.764 76.6176 210.643Z" fill="#E0E0E0"/>
<path d="M97.8882 172.489L107.935 166.689C108.465 166.38 108.891 166.63 108.891 167.241V175.389C108.873 175.721 108.777 176.044 108.611 176.331C108.445 176.619 108.213 176.864 107.935 177.045L97.8882 182.844C97.3583 183.146 96.9314 182.903 96.9314 182.292V174.145C96.9488 173.813 97.0446 173.49 97.2109 173.202C97.3772 172.914 97.6093 172.67 97.8882 172.489Z" fill="#E0E0E0"/>
<path d="M97.5421 184.736L108.229 178.568C108.582 178.362 108.869 178.524 108.869 178.936V179.187C108.857 179.408 108.793 179.624 108.682 179.815C108.57 180.007 108.415 180.17 108.229 180.291L97.5421 186.458C97.1962 186.664 96.9092 186.458 96.9092 186.09V185.84C96.9204 185.619 96.9836 185.404 97.0936 185.212C97.2036 185.02 97.3572 184.857 97.5421 184.736Z" fill="#E0E0E0"/>
<path d="M97.5421 188.21L108.229 182.042C108.582 181.836 108.869 181.998 108.869 182.41V182.66C108.857 182.882 108.793 183.097 108.682 183.289C108.57 183.481 108.415 183.644 108.229 183.764L97.5421 189.932C97.1962 190.138 96.9092 189.969 96.9092 189.564V189.314C96.9204 189.093 96.9836 188.878 97.0936 188.686C97.2036 188.494 97.3572 188.331 97.5421 188.21Z" fill="#E0E0E0"/>
<path d="M97.5421 191.662L108.229 185.472C108.582 185.266 108.869 185.428 108.869 185.84V186.09C108.857 186.312 108.793 186.527 108.682 186.719C108.57 186.911 108.415 187.074 108.229 187.194L97.5421 193.362C97.1962 193.568 96.9092 193.399 96.9092 192.994V192.744C96.9238 192.527 96.9886 192.316 97.0984 192.128C97.2082 191.941 97.3601 191.781 97.5421 191.662Z" fill="#E0E0E0"/>
<path d="M97.5421 195.114L108.229 188.946C108.582 188.74 108.869 188.902 108.869 189.314V189.564C108.857 189.786 108.793 190.001 108.682 190.193C108.57 190.385 108.415 190.548 108.229 190.668L97.5421 196.836C97.1962 197.042 96.9092 196.873 96.9092 196.468V196.218C96.9204 195.997 96.9836 195.782 97.0936 195.59C97.2036 195.398 97.3572 195.235 97.5421 195.114Z" fill="#E0E0E0"/>
<path d="M97.5421 198.566L108.229 192.398C108.582 192.192 108.869 192.354 108.869 192.766V193.016C108.857 193.238 108.793 193.453 108.682 193.645C108.57 193.837 108.415 194 108.229 194.12L97.5421 200.288C97.1962 200.494 96.9092 200.325 96.9092 199.92V199.67C96.9204 199.449 96.9836 199.234 97.0936 199.042C97.2036 198.85 97.3572 198.687 97.5421 198.566Z" fill="#E0E0E0"/>
<path d="M97.5421 202.017L108.229 195.85C108.582 195.644 108.869 195.813 108.869 196.218V196.468C108.858 196.69 108.794 196.906 108.683 197.098C108.572 197.29 108.416 197.452 108.229 197.572L97.5421 203.74C97.1962 203.946 96.9092 203.784 96.9092 203.372V203.136C96.9199 202.913 96.9827 202.696 97.0927 202.502C97.2026 202.307 97.3565 202.141 97.5421 202.017Z" fill="#E0E0E0"/>
<path d="M97.5421 205.469L108.229 199.301C108.582 199.095 108.869 199.265 108.869 199.669V199.92C108.858 200.141 108.794 200.357 108.683 200.549C108.572 200.741 108.416 200.904 108.229 201.024L97.5421 207.191C97.1962 207.397 96.9092 207.235 96.9092 206.823V206.573C96.9221 206.353 96.986 206.138 97.0959 205.947C97.2057 205.755 97.3585 205.592 97.5421 205.469Z" fill="#E0E0E0"/>
<path d="M97.5421 208.921L108.229 202.753C108.582 202.547 108.869 202.716 108.869 203.121V203.372C108.858 203.593 108.794 203.809 108.683 204.001C108.572 204.193 108.416 204.356 108.229 204.476L97.5421 210.643C97.1962 210.849 96.9092 210.687 96.9092 210.275V210.025C96.9221 209.805 96.986 209.59 97.0959 209.399C97.2057 209.207 97.3585 209.043 97.5421 208.921Z" fill="#E0E0E0"/>
<path d="M76.9341 222.552L86.9805 216.745C87.5104 216.443 87.9373 216.693 87.9373 217.297V225.451C87.9193 225.783 87.8233 226.106 87.6571 226.394C87.4908 226.682 87.259 226.926 86.9805 227.107L76.9341 232.907C76.4115 233.209 75.9773 232.966 75.9773 232.355V224.208C75.9953 223.876 76.0913 223.553 76.2575 223.265C76.4238 222.977 76.6556 222.733 76.9341 222.552Z" fill="#E0E0E0"/>
<path d="M76.6176 234.784L87.3043 228.616C87.6576 228.418 87.9373 228.579 87.9373 228.984V229.242C87.9261 229.463 87.8629 229.678 87.7529 229.87C87.6429 230.061 87.4892 230.225 87.3043 230.346L76.6176 236.514C76.2643 236.72 75.9773 236.55 75.9773 236.146V235.888C75.9899 235.667 76.0545 235.451 76.1657 235.26C76.277 235.068 76.4318 234.905 76.6176 234.784Z" fill="#E0E0E0"/>
<path d="M76.6176 238.265L87.3043 232.098C87.6576 231.899 87.9373 232.061 87.9373 232.466V232.723C87.9261 232.944 87.8629 233.159 87.7529 233.351C87.6429 233.543 87.4892 233.706 87.3043 233.827L76.6176 239.995C76.2643 240.201 75.9773 240.032 75.9773 239.627V239.369C75.9899 239.148 76.0545 238.933 76.1657 238.741C76.277 238.549 76.4318 238.386 76.6176 238.265Z" fill="#E0E0E0"/>
<path d="M76.6176 241.725L87.3043 235.52C87.6576 235.321 87.9373 235.483 87.9373 235.888V236.146C87.9261 236.367 87.8629 236.582 87.7529 236.773C87.6429 236.965 87.4892 237.128 87.3043 237.25L76.6176 243.417C76.2643 243.623 75.9773 243.454 75.9773 243.049V242.799C75.9927 242.582 76.0587 242.372 76.1699 242.186C76.281 241.999 76.4344 241.841 76.6176 241.725Z" fill="#E0E0E0"/>
<path d="M118.791 160.404L128.837 154.604C129.367 154.303 129.794 154.545 129.794 155.156V163.304C129.776 163.636 129.681 163.959 129.514 164.247C129.348 164.535 129.116 164.779 128.837 164.96L118.791 170.752C118.268 171.054 117.834 170.804 117.834 170.2V162.06C117.854 161.729 117.951 161.407 118.117 161.119C118.283 160.832 118.514 160.587 118.791 160.404Z" fill="#E0E0E0"/>
<path d="M118.496 172.673L129.183 166.505C129.529 166.307 129.816 166.505 129.816 166.873V167.131C129.803 167.351 129.739 167.566 129.629 167.757C129.519 167.949 129.366 168.112 129.183 168.235L118.496 174.432C118.143 174.631 117.856 174.432 117.856 174.064V173.806C117.864 173.58 117.926 173.359 118.038 173.162C118.149 172.964 118.306 172.797 118.496 172.673Z" fill="#E0E0E0"/>
<path d="M118.496 176.125L129.183 169.957C129.529 169.758 129.816 169.957 129.816 170.325V170.583C129.803 170.803 129.739 171.018 129.629 171.209C129.519 171.401 129.366 171.564 129.183 171.687L118.496 177.854C118.143 178.053 117.856 177.854 117.856 177.486V177.229C117.868 177.008 117.933 176.792 118.044 176.6C118.155 176.409 118.31 176.246 118.496 176.125Z" fill="#E0E0E0"/>
<path d="M118.496 179.584L129.183 173.416C129.529 173.218 129.816 173.38 129.816 173.784V174.042C129.803 174.262 129.739 174.477 129.629 174.668C129.519 174.86 129.366 175.023 129.183 175.146L118.496 181.306C118.143 181.505 117.856 181.306 117.856 180.938V180.681C117.869 180.461 117.935 180.247 118.046 180.056C118.157 179.866 118.311 179.704 118.496 179.584Z" fill="#E0E0E0"/>
<path d="M118.496 183.029L129.183 176.861C129.529 176.662 129.816 176.824 129.816 177.229V177.486C129.803 177.707 129.739 177.921 129.629 178.113C129.519 178.304 129.366 178.468 129.183 178.59L118.496 184.736C118.143 184.935 117.856 184.773 117.856 184.368V184.11C117.872 183.893 117.938 183.682 118.049 183.494C118.16 183.307 118.313 183.147 118.496 183.029Z" fill="#E0E0E0"/>
<path d="M118.496 186.48L129.161 180.32C129.507 180.121 129.794 180.283 129.794 180.688V180.946C129.781 181.166 129.717 181.381 129.607 181.572C129.497 181.764 129.344 181.927 129.161 182.05L118.496 188.21C118.143 188.409 117.856 188.247 117.856 187.842V187.584C117.868 187.363 117.933 187.148 118.044 186.956C118.155 186.764 118.31 186.601 118.496 186.48Z" fill="#E0E0E0"/>
<path d="M139.722 148.326L149.769 142.526C150.291 142.217 150.726 142.468 150.726 143.078V151.226C150.706 151.557 150.609 151.88 150.443 152.167C150.277 152.455 150.046 152.699 149.769 152.882L139.722 158.682C139.193 158.983 138.766 158.741 138.766 158.13V149.982C138.783 149.65 138.879 149.327 139.045 149.039C139.211 148.751 139.444 148.507 139.722 148.326Z" fill="#E0E0E0"/>
<path d="M139.399 160.588L150.085 154.42C150.439 154.221 150.726 154.383 150.726 154.788V155.046C150.713 155.267 150.648 155.482 150.537 155.674C150.426 155.866 150.271 156.029 150.085 156.15L139.399 162.317C139.053 162.524 138.766 162.354 138.766 161.949V161.692C138.779 161.471 138.842 161.257 138.952 161.065C139.062 160.874 139.215 160.71 139.399 160.588Z" fill="#E0E0E0"/>
<path d="M139.399 164.047L150.085 157.872C150.439 157.673 150.726 157.835 150.726 158.24V158.498C150.713 158.719 150.648 158.934 150.537 159.126C150.426 159.318 150.271 159.481 150.085 159.602L139.399 165.769C139.053 165.975 138.766 165.806 138.766 165.401V165.151C138.777 164.93 138.84 164.715 138.95 164.523C139.06 164.332 139.214 164.168 139.399 164.047Z" fill="#E0E0E0"/>
<path d="M139.399 167.499L150.085 161.324C150.439 161.125 150.726 161.287 150.726 161.692V161.92C150.713 162.141 150.648 162.357 150.537 162.548C150.426 162.74 150.271 162.903 150.085 163.024L139.399 169.192C139.053 169.398 138.766 169.228 138.766 168.824V168.573C138.781 168.358 138.847 168.148 138.956 167.962C139.066 167.776 139.218 167.617 139.399 167.499Z" fill="#E0E0E0"/>
<path d="M139.399 170.951L150.085 164.776C150.439 164.577 150.726 164.776 150.726 165.144V165.401C150.713 165.623 150.648 165.838 150.537 166.03C150.426 166.222 150.271 166.385 150.085 166.505L139.399 172.673C139.053 172.879 138.766 172.673 138.766 172.305V172.055C138.777 171.834 138.84 171.619 138.95 171.427C139.06 171.235 139.214 171.072 139.399 170.951Z" fill="#E0E0E0"/>
<path d="M139.399 174.432L150.085 168.257C150.439 168.058 150.726 168.257 150.726 168.625V168.883C150.713 169.104 150.648 169.319 150.537 169.511C150.426 169.703 150.271 169.866 150.085 169.987L139.399 176.125C139.053 176.331 138.766 176.125 138.766 175.757V175.507C138.781 175.291 138.847 175.082 138.956 174.895C139.066 174.709 139.218 174.55 139.399 174.432Z" fill="#E0E0E0"/>
<path d="M139.399 177.854L150.085 171.687C150.439 171.481 150.726 171.643 150.726 172.055V172.305C150.714 172.526 150.649 172.742 150.538 172.934C150.427 173.126 150.272 173.289 150.085 173.409L139.399 179.584C139.053 179.79 138.766 179.584 138.766 179.216V178.966C138.776 178.744 138.839 178.527 138.949 178.334C139.059 178.141 139.213 177.977 139.399 177.854Z" fill="#E0E0E0"/>
<path d="M139.399 181.306L150.085 175.168C150.439 174.962 150.726 175.124 150.726 175.536V175.786C150.714 176.008 150.649 176.223 150.538 176.415C150.427 176.607 150.272 176.77 150.085 176.89L139.399 183.058C139.053 183.264 138.766 183.058 138.766 182.69V182.44C138.773 182.214 138.834 181.993 138.944 181.796C139.054 181.599 139.21 181.431 139.399 181.306Z" fill="#E0E0E0"/>
<path d="M139.399 184.736L150.085 178.568C150.439 178.362 150.726 178.524 150.726 178.936V179.187C150.714 179.408 150.649 179.624 150.538 179.815C150.427 180.007 150.272 180.17 150.085 180.291L139.399 186.458C139.053 186.664 138.766 186.502 138.766 186.09V185.84C138.777 185.619 138.841 185.404 138.951 185.213C139.061 185.021 139.214 184.858 139.399 184.736Z" fill="#E0E0E0"/>
<path d="M118.791 198.382L128.837 192.582C129.367 192.28 129.794 192.523 129.794 193.134V201.281C129.776 201.613 129.681 201.936 129.514 202.224C129.348 202.512 129.116 202.756 128.837 202.937L118.791 208.744C118.268 209.046 117.834 208.796 117.834 208.192V200.038C117.854 199.706 117.951 199.384 118.117 199.097C118.283 198.809 118.514 198.565 118.791 198.382Z" fill="#E0E0E0"/>
<path d="M118.496 210.651L129.183 204.483C129.529 204.284 129.816 204.446 129.816 204.851V205.109C129.803 205.329 129.739 205.543 129.629 205.735C129.519 205.927 129.366 206.09 129.183 206.213L118.496 212.38C118.143 212.579 117.856 212.417 117.856 212.012V211.755C117.868 211.533 117.933 211.318 118.044 211.126C118.155 210.934 118.31 210.772 118.496 210.651Z" fill="#E0E0E0"/>
<path d="M118.496 214.102L129.183 207.935C129.529 207.736 129.816 207.935 129.816 208.303V208.56C129.803 208.781 129.739 208.995 129.629 209.187C129.519 209.378 129.366 209.542 129.183 209.664L118.496 215.832C118.143 216.031 117.856 215.869 117.856 215.464V215.206C117.868 214.985 117.933 214.77 118.044 214.578C118.155 214.386 118.31 214.223 118.496 214.102Z" fill="#E0E0E0"/>
<path d="M118.496 217.554L129.183 211.387C129.529 211.188 129.816 211.387 129.816 211.755V212.012C129.803 212.233 129.739 212.447 129.629 212.639C129.519 212.83 129.366 212.994 129.183 213.116L118.496 219.284C118.143 219.483 117.856 219.321 117.856 218.916V218.658C117.868 218.437 117.933 218.222 118.044 218.03C118.155 217.838 118.31 217.675 118.496 217.554Z" fill="#E0E0E0"/>
<path d="M97.3729 150.188C97.2257 150.139 97.1521 149.999 97.1521 149.769C97.161 149.545 97.2057 149.323 97.2846 149.114L98.0795 146.582C98.1301 146.353 98.245 146.144 98.4107 145.978C98.4648 145.949 98.5256 145.933 98.5873 145.933C98.649 145.933 98.7098 145.949 98.7639 145.978C99.1731 146.149 99.6189 146.215 100.06 146.169C100.501 146.122 100.924 145.966 101.288 145.713C101.946 145.33 102.463 144.744 102.76 144.042C103.105 143.182 103.267 142.26 103.239 141.334V126.489C103.225 126.06 103.303 125.634 103.467 125.238C103.643 124.872 103.932 124.573 104.291 124.384L105.925 123.442C106.293 123.228 106.558 123.199 106.713 123.361C106.907 123.653 106.991 124.006 106.948 124.354V139.251C106.975 141.342 106.532 143.412 105.653 145.308C104.852 147.054 103.527 148.508 101.862 149.467C100.091 150.492 98.5947 150.733 97.3729 150.188Z" fill="#455A64"/>
<path d="M110.628 141.246C109.308 139.891 108.648 137.298 108.648 133.466C108.573 130.009 109.249 126.576 110.628 123.405C111.804 120.693 113.812 118.425 116.362 116.928C118.857 115.456 120.778 115.456 122.08 116.796C123.383 118.135 124.06 120.733 124.06 124.568C124.135 128.025 123.46 131.458 122.08 134.629C120.907 137.337 118.905 139.602 116.362 141.099C113.859 142.541 111.948 142.59 110.628 141.246ZM119.401 133.267C120.15 131.142 120.5 128.896 120.432 126.643C120.432 123.989 120.088 122.183 119.401 121.227C118.717 120.27 117.709 120.181 116.362 120.954C114.934 121.829 113.852 123.171 113.3 124.752C112.553 126.878 112.206 129.124 112.277 131.376C112.277 134.026 112.616 135.836 113.3 136.786C113.984 137.735 115.008 137.831 116.362 137.043C117.783 136.177 118.858 134.841 119.401 133.267Z" fill="#455A64"/>
<path d="M126.106 134.607C125.912 134.323 125.828 133.977 125.871 133.636V113.447C125.859 113.016 125.939 112.586 126.106 112.189C126.259 111.847 126.517 111.563 126.842 111.379L133.319 107.633C134.948 106.696 136.175 106.568 136.999 107.25C137.824 107.932 138.228 109.281 138.214 111.298C138.214 112.365 138.048 113.425 137.721 114.441C137.434 115.383 136.972 116.262 136.359 117.031C137.875 116.928 138.633 118.204 138.633 120.859C138.633 122.161 138.437 123.456 138.052 124.701C137.664 125.956 137.064 127.136 136.278 128.189C135.489 129.249 134.486 130.132 133.334 130.78L126.857 134.526C126.511 134.725 126.261 134.754 126.106 134.607ZM132.73 117.355C133.321 117.01 133.797 116.498 134.099 115.883C134.444 115.181 134.613 114.406 134.593 113.624C134.593 112.696 134.438 112.152 134.136 111.894C133.834 111.637 133.363 111.747 132.73 112.108L129.536 113.962V119.232L132.73 117.355ZM133.084 126.82C133.741 126.45 134.259 125.873 134.556 125.179C134.881 124.432 135.044 123.624 135.034 122.809C135.034 121.838 134.85 121.212 134.482 120.94C134.114 120.667 133.592 120.719 132.929 121.102L129.536 123.052V128.874L133.084 126.82Z" fill="#455A64"/>
<path d="M141.908 125.782C141.069 126.029 140.171 125.992 139.354 125.679C139.258 125.637 139.175 125.569 139.117 125.481C139.058 125.394 139.026 125.292 139.023 125.186C139.033 125.003 139.07 124.822 139.134 124.649L140.046 121.911C140.083 121.715 140.184 121.536 140.333 121.403C140.384 121.376 140.441 121.362 140.499 121.362C140.557 121.362 140.613 121.376 140.664 121.403C141.277 121.567 141.918 121.592 142.541 121.477C143.297 121.341 144.022 121.072 144.683 120.682C145.45 120.269 146.104 119.675 146.589 118.952C147.015 118.245 147.23 117.43 147.208 116.605C147.245 116.143 147.139 115.68 146.906 115.28C146.691 114.999 146.373 114.814 146.023 114.765C145.425 114.685 144.822 114.646 144.219 114.647C143.41 114.666 142.603 114.572 141.82 114.367C141.144 114.161 140.569 113.71 140.208 113.101C139.726 112.198 139.507 111.178 139.575 110.157C139.548 108.111 140.077 106.097 141.106 104.328C142.064 102.649 143.451 101.255 145.125 100.287C147.333 99.0142 149.003 98.683 150.166 99.2791C150.259 99.3264 150.338 99.3964 150.396 99.4827C150.454 99.569 150.489 99.6687 150.497 99.7723C150.488 99.9559 150.451 100.137 150.387 100.31L149.482 103.047C149.445 103.242 149.344 103.418 149.195 103.548C149.144 103.577 149.087 103.592 149.029 103.592C148.971 103.592 148.914 103.577 148.864 103.548C147.966 103.16 146.876 103.334 145.596 104.07C144.857 104.451 144.241 105.032 143.818 105.747C143.395 106.461 143.182 107.281 143.204 108.111C143.17 108.556 143.268 109.001 143.483 109.392C143.653 109.652 143.917 109.837 144.219 109.907C144.724 109.998 145.237 110.04 145.75 110.032H146.368C147.23 110.035 148.085 110.167 148.908 110.422C149.537 110.651 150.05 111.119 150.336 111.725C150.719 112.657 150.887 113.663 150.829 114.669C150.83 116.615 150.323 118.528 149.357 120.218C148.37 121.97 146.918 123.414 145.161 124.391C144.157 125.022 143.059 125.492 141.908 125.782Z" fill="#455A64"/>
<path d="M233.879 54.9573L230.89 53.2277C230.673 53.1268 230.433 53.0858 230.195 53.1091C229.957 53.1324 229.73 53.2191 229.536 53.3601L191.507 75.3666C190.951 75.7305 190.489 76.2197 190.156 76.7949C189.824 77.3701 189.631 78.0153 189.594 78.6786V157.063C189.568 157.3 189.607 157.539 189.705 157.757C189.803 157.974 189.958 158.161 190.153 158.299L193.097 160.021H193.141C193.352 160.107 193.582 160.137 193.809 160.11C194.035 160.083 194.251 159.999 194.436 159.867L204.483 154.067V160.11C204.483 161.177 204.652 161.795 204.932 161.964L207.876 163.679C208.214 163.863 208.707 163.392 209.259 162.207L216.384 147.119L232.407 137.816C232.962 137.452 233.425 136.963 233.757 136.388C234.09 135.813 234.283 135.167 234.32 134.504V56.1864C234.357 55.9609 234.336 55.7297 234.258 55.5147C234.181 55.2997 234.05 55.1079 233.879 54.9573Z" fill="#515DEF"/>
<path opacity="0.4" d="M233.805 54.9131C233.594 54.8375 233.367 54.8134 233.144 54.8428C232.922 54.8723 232.709 54.9544 232.524 55.0823L194.488 77.0961C193.936 77.4399 193.48 77.9186 193.163 78.4872L190.175 76.7576C190.489 76.1874 190.946 75.7082 191.5 75.3665L229.529 53.3527C229.784 53.1959 230.076 53.1072 230.375 53.0952C230.553 53.0918 230.728 53.1349 230.883 53.2203L233.805 54.9131Z" fill="white"/>
<path opacity="0.2" d="M204.983 161.994C204.711 161.824 204.542 161.206 204.542 160.139V154.104L207.552 152.352V161.846C207.552 162.862 207.707 163.48 207.949 163.686L204.983 161.994Z" fill="black"/>
<path opacity="0.1" d="M193.156 160.029L190.168 158.306C189.977 158.167 189.826 157.98 189.729 157.765C189.632 157.549 189.593 157.312 189.616 157.077V78.6785C189.642 77.9981 189.845 77.3362 190.204 76.7576L193.193 78.4872C192.835 79.0662 192.635 79.7282 192.611 80.4081V158.792C192.583 159.028 192.619 159.267 192.715 159.485C192.811 159.702 192.963 159.89 193.156 160.029Z" fill="black"/>
<path d="M200.148 80.7247L226.857 65.2687C227.741 64.7609 228.454 65.173 228.454 66.1887V83.1682C228.424 83.7225 228.264 84.262 227.987 84.7428C227.709 85.2236 227.322 85.6322 226.857 85.9356L200.148 101.392C199.272 101.899 198.558 101.487 198.558 100.472V83.4847C198.588 82.9323 198.748 82.3948 199.024 81.9154C199.3 81.436 199.685 81.0281 200.148 80.7247Z" fill="#455A64"/>
<path d="M228.454 90.2263C228.416 90.7625 228.251 91.282 227.973 91.7424C227.696 92.2028 227.313 92.5912 226.857 92.8759L200.148 108.295C199.272 108.803 198.558 108.442 198.558 107.486C198.598 106.951 198.762 106.434 199.039 105.975C199.315 105.516 199.695 105.129 200.148 104.843L226.857 89.4241C227.741 88.9163 228.454 89.2769 228.454 90.2263Z" fill="#455A64"/>
<path d="M228.454 97.1521C228.416 97.6883 228.251 98.2077 227.973 98.6682C227.696 99.1286 227.313 99.517 226.857 99.8017L200.148 115.258C199.272 115.766 198.558 115.405 198.558 114.448C198.598 113.914 198.762 113.397 199.039 112.938C199.315 112.479 199.695 112.091 200.148 111.806L226.857 96.3499C227.741 95.82 228.454 96.1806 228.454 97.1521Z" fill="#455A64"/>
<path d="M228.454 104.034C228.416 104.57 228.251 105.089 227.973 105.55C227.696 106.01 227.313 106.399 226.857 106.683L200.148 122.139C199.272 122.647 198.558 122.287 198.558 121.33C198.598 120.796 198.762 120.278 199.039 119.819C199.315 119.36 199.695 118.973 200.148 118.687L226.857 103.231C227.741 102.724 228.454 103.084 228.454 104.034Z" fill="#455A64"/>
<path d="M228.454 110.937C228.416 111.473 228.251 111.993 227.973 112.453C227.696 112.914 227.313 113.302 226.857 113.587L200.148 129.006C199.272 129.514 198.558 129.153 198.558 128.196C198.598 127.662 198.762 127.145 199.039 126.686C199.315 126.227 199.695 125.84 200.148 125.554L226.857 110.098C227.741 109.664 228.454 109.988 228.454 110.937Z" fill="#455A64"/>
<path d="M198.558 135.108C198.558 136.057 199.294 136.418 200.148 135.91L202.945 134.298C203.398 134.013 203.778 133.625 204.054 133.166C204.33 132.707 204.495 132.19 204.534 131.656C204.534 130.699 203.798 130.338 202.945 130.846L200.148 132.458C199.694 132.744 199.313 133.133 199.037 133.593C198.761 134.054 198.597 134.572 198.558 135.108Z" fill="#455A64"/>
<path d="M208.582 129.33C208.582 130.279 209.318 130.64 210.179 130.132L226.857 120.491C227.313 120.206 227.695 119.818 227.973 119.357C228.25 118.897 228.415 118.377 228.454 117.841C228.454 116.892 227.718 116.531 226.857 117.039L210.179 126.68C209.723 126.965 209.341 127.354 209.064 127.814C208.786 128.274 208.621 128.794 208.582 129.33Z" fill="#455A64"/>
<path d="M198.558 142.048C198.558 142.998 199.294 143.358 200.148 142.85L202.945 141.239C203.398 140.953 203.778 140.566 204.054 140.107C204.33 139.648 204.495 139.13 204.534 138.596C204.534 137.639 203.798 137.279 202.945 137.787L200.148 139.399C199.694 139.685 199.313 140.073 199.037 140.534C198.761 140.994 198.597 141.513 198.558 142.048Z" fill="#455A64"/>
<path d="M208.582 136.234C208.582 137.183 209.318 137.544 210.179 137.036L226.857 127.394C227.313 127.109 227.695 126.721 227.973 126.261C228.25 125.8 228.415 125.281 228.454 124.745C228.454 123.795 227.718 123.435 226.857 123.942L210.179 133.584C209.723 133.869 209.341 134.257 209.064 134.718C208.786 135.178 208.621 135.697 208.582 136.234Z" fill="#455A64"/>
<path d="M198.558 148.915C198.558 149.865 199.294 150.225 200.148 149.717L202.945 148.105C203.398 147.82 203.778 147.432 204.054 146.974C204.33 146.515 204.495 145.997 204.534 145.463C204.534 144.506 203.798 144.146 202.945 144.654L200.148 146.265C199.694 146.552 199.313 146.94 199.037 147.401C198.761 147.861 198.597 148.38 198.558 148.915Z" fill="#455A64"/>
<path d="M208.582 143.137C208.582 144.087 209.318 144.448 210.179 143.94L226.857 134.298C227.312 134.014 227.694 133.627 227.971 133.168C228.249 132.709 228.414 132.191 228.454 131.656C228.454 130.699 227.718 130.338 226.857 130.846L210.179 140.488C209.723 140.773 209.341 141.161 209.064 141.621C208.786 142.082 208.621 142.601 208.582 143.137Z" fill="#455A64"/>
<path d="M269.773 75.6243L266.829 73.8947C266.612 73.7938 266.372 73.7528 266.134 73.7761C265.896 73.7994 265.668 73.8861 265.475 74.0271L227.424 96.0262C226.868 96.3901 226.405 96.8793 226.073 97.4545C225.741 98.0297 225.548 98.6749 225.51 99.3382V177.722C225.485 177.959 225.523 178.199 225.622 178.417C225.72 178.634 225.875 178.821 226.07 178.959L229.05 180.681H229.087C229.3 180.767 229.531 180.798 229.758 180.771C229.986 180.744 230.203 180.66 230.39 180.526L240.436 174.727V180.769C240.436 181.836 240.606 182.455 240.878 182.624L243.822 184.339H243.859C244.197 184.523 244.69 184.052 245.235 182.867L252.367 167.779L268.39 158.476C268.945 158.112 269.408 157.623 269.74 157.047C270.073 156.472 270.266 155.827 270.303 155.164V76.8534C270.33 76.6201 270.295 76.3839 270.202 76.1683C270.109 75.9527 269.961 75.7652 269.773 75.6243Z" fill="#515DEF"/>
<path opacity="0.4" d="M269.692 75.58C269.481 75.5044 269.254 75.4803 269.032 75.5097C268.809 75.5392 268.596 75.6213 268.412 75.7493L230.368 97.763C229.815 98.1068 229.36 98.5855 229.043 99.1541L226.055 97.4245C226.371 96.8559 226.827 96.3772 227.38 96.0334L265.416 74.0197C265.671 73.8612 265.963 73.7724 266.263 73.7621C266.437 73.7597 266.61 73.8028 266.763 73.8872L269.692 75.58Z" fill="white"/>
<path opacity="0.2" d="M240.871 182.661C240.598 182.491 240.429 181.873 240.429 180.806V174.771L243.417 173.041V182.528C243.417 183.544 243.572 184.162 243.822 184.368L240.871 182.661Z" fill="black"/>
<path opacity="0.1" d="M229.043 180.696L226.062 178.973C225.87 178.835 225.718 178.648 225.621 178.433C225.525 178.217 225.486 177.979 225.51 177.744V99.3602C225.534 98.6803 225.734 98.0183 226.092 97.4392L229.08 99.1688C228.723 99.7479 228.522 100.41 228.498 101.09V179.474C228.473 179.707 228.51 179.943 228.606 180.158C228.702 180.373 228.852 180.558 229.043 180.696Z" fill="black"/>
<path d="M236.042 101.391L262.752 85.9354C263.628 85.4276 264.342 85.8398 264.342 86.8554V103.879C264.312 104.433 264.152 104.971 263.876 105.452C263.6 105.933 263.215 106.342 262.752 106.646L236.042 122.102C235.159 122.61 234.445 122.198 234.445 121.182V104.151C234.475 103.598 234.636 103.06 234.913 102.58C235.191 102.1 235.578 101.693 236.042 101.391Z" fill="#455A64"/>
<path d="M264.342 110.893C264.303 111.429 264.139 111.947 263.863 112.408C263.587 112.868 263.206 113.257 262.752 113.543L236.042 128.962C235.159 129.47 234.445 129.109 234.445 128.153C234.485 127.618 234.651 127.1 234.928 126.641C235.206 126.182 235.587 125.794 236.042 125.51L262.752 110.091C263.628 109.583 264.342 109.944 264.342 110.893Z" fill="#455A64"/>
<path d="M264.342 117.797C264.303 118.332 264.139 118.851 263.863 119.311C263.587 119.772 263.206 120.16 262.752 120.446L236.042 135.866C235.159 136.373 234.445 136.013 234.445 135.056C234.485 134.521 234.651 134.003 234.928 133.544C235.206 133.085 235.587 132.698 236.042 132.414L262.752 117.024C263.628 116.487 264.342 116.847 264.342 117.797Z" fill="#455A64"/>
<path d="M264.342 124.701C264.3 125.232 264.134 125.747 263.858 126.203C263.582 126.659 263.203 127.044 262.752 127.328L236.042 142.784C235.159 143.292 234.445 142.931 234.445 141.975C234.485 141.44 234.651 140.922 234.928 140.463C235.206 140.004 235.587 139.616 236.042 139.332L262.752 123.898C263.628 123.391 264.342 123.751 264.342 124.701Z" fill="#455A64"/>
<path d="M264.342 131.604C264.303 132.14 264.139 132.658 263.863 133.119C263.587 133.579 263.206 133.968 262.752 134.254L236.042 149.71C235.159 150.218 234.445 149.857 234.445 148.9C234.485 148.365 234.651 147.847 234.928 147.388C235.206 146.929 235.587 146.542 236.042 146.258L262.752 130.802C263.628 130.272 264.342 130.655 264.342 131.604Z" fill="#455A64"/>
<path d="M234.445 155.774C234.445 156.724 235.181 157.085 236.042 156.577L238.832 154.965C239.287 154.681 239.669 154.294 239.946 153.835C240.224 153.375 240.389 152.858 240.429 152.323C240.429 151.366 239.693 151.005 238.832 151.513L236.042 153.125C235.586 153.41 235.204 153.798 234.927 154.258C234.649 154.719 234.484 155.238 234.445 155.774Z" fill="#455A64"/>
<path d="M244.477 149.997C244.477 150.946 245.213 151.307 246.074 150.799L262.752 141.158C263.206 140.872 263.587 140.483 263.863 140.023C264.139 139.562 264.303 139.043 264.342 138.508C264.342 137.559 263.606 137.198 262.752 137.706L246.067 147.347C245.613 147.633 245.232 148.022 244.956 148.483C244.68 148.943 244.516 149.462 244.477 149.997Z" fill="#455A64"/>
<path d="M234.445 162.656C234.445 163.605 235.181 163.966 236.042 163.458L238.832 161.846C239.287 161.562 239.669 161.175 239.946 160.716C240.224 160.257 240.389 159.739 240.429 159.204C240.429 158.247 239.693 157.887 238.832 158.395L236.042 160.006C235.586 160.291 235.204 160.68 234.927 161.14C234.649 161.6 234.484 162.12 234.445 162.656Z" fill="#455A64"/>
<path d="M244.477 156.901C244.477 157.85 245.213 158.211 246.074 157.703L262.752 148.061C263.206 147.775 263.587 147.386 263.863 146.926C264.139 146.466 264.303 145.947 264.342 145.412C264.342 144.462 263.606 144.102 262.752 144.609L246.067 154.251C245.613 154.537 245.232 154.926 244.956 155.386C244.68 155.846 244.516 156.365 244.477 156.901Z" fill="#455A64"/>
<path d="M234.445 169.582C234.445 170.531 235.181 170.892 236.042 170.384L238.832 168.772C239.287 168.488 239.669 168.101 239.946 167.642C240.224 167.183 240.389 166.665 240.429 166.13C240.429 165.173 239.693 164.813 238.832 165.32L236.042 166.932C235.586 167.217 235.204 167.605 234.927 168.066C234.649 168.526 234.484 169.046 234.445 169.582Z" fill="#455A64"/>
<path d="M244.477 163.804C244.477 164.754 245.213 165.114 246.074 164.606L262.752 154.965C263.205 154.68 263.585 154.292 263.861 153.833C264.137 153.374 264.302 152.857 264.342 152.323C264.342 151.366 263.606 151.005 262.752 151.513L246.067 161.184C245.616 161.467 245.238 161.851 244.962 162.306C244.686 162.761 244.52 163.274 244.477 163.804Z" fill="#455A64"/>
<path d="M308.664 45.2421L304.704 42.9752H304.667C302.923 41.9963 300.531 42.1435 297.881 43.667C292.545 46.7509 288.225 54.2434 288.225 60.4037C288.225 63.4728 289.299 65.6366 291.044 66.645L294.621 68.691L295.474 67.219C296.449 67.0054 297.385 66.6429 298.249 66.1445C303.578 63.068 307.906 55.5755 307.906 49.4152C307.903 48.5843 307.801 47.7567 307.604 46.9496L308.664 45.2421Z" fill="#515DEF"/>
<path d="M288.247 60.3518C288.247 63.4283 289.322 65.5921 291.066 66.6004L294.643 68.6465L295.497 67.2187C296.47 66.9988 297.406 66.6341 298.271 66.1368C301.321 64.2175 303.797 61.5124 305.44 58.3057L291.456 50.2097C289.492 53.2393 288.383 56.7436 288.247 60.3518Z" fill="#263238"/>
<path d="M308.671 45.2418L304.741 42.975H304.704C302.959 41.9887 300.567 42.1359 297.918 43.6668C295.266 45.2991 293.049 47.5491 291.456 50.2246L305.44 58.3206C306.962 55.618 307.81 52.5885 307.913 49.4886C307.91 48.6576 307.809 47.83 307.611 47.023L308.671 45.2418Z" fill="#455A64"/>
<path d="M301.635 45.7939C296.306 48.8704 291.979 56.3629 291.979 62.56C291.979 68.7571 296.306 71.2154 301.635 68.1315C306.963 65.0477 311.328 57.5258 311.328 51.3654C311.328 45.2051 306.971 42.688 301.635 45.7939Z" fill="#37474F"/>
<path d="M302.341 50.8942C302.627 50.7946 302.934 50.7717 303.232 50.828C303.475 50.8842 303.698 51.0035 303.88 51.1739C304.055 51.3448 304.188 51.5538 304.27 51.7848C304.363 52.0199 304.417 52.2684 304.432 52.5208C304.437 52.6437 304.409 52.7656 304.351 52.8741C304.306 52.9708 304.235 53.0526 304.145 53.1096L303.409 53.5291C303.291 53.6027 303.203 53.6174 303.144 53.5806C303.072 53.5345 303.015 53.4678 302.982 53.3893C302.931 53.2943 302.862 53.2103 302.779 53.142C302.695 53.0738 302.599 53.0228 302.496 52.9918C302.331 52.9681 302.164 52.9781 302.003 53.0211C301.842 53.0641 301.692 53.1393 301.561 53.2421C301.374 53.3472 301.201 53.4758 301.046 53.6248C300.884 53.7739 300.741 53.9419 300.619 54.1253C300.497 54.3024 300.401 54.4956 300.332 54.6993C300.265 54.8936 300.23 55.0974 300.229 55.3029C300.214 55.4897 300.255 55.6769 300.347 55.8402C300.39 55.8971 300.445 55.9433 300.509 55.9752C300.573 56.0071 300.643 56.0239 300.715 56.0242C300.935 56.034 301.156 56.0116 301.37 55.9579L302.341 55.7297C302.685 55.639 303.039 55.5993 303.394 55.612C303.662 55.6167 303.92 55.7099 304.13 55.8769C304.328 56.0567 304.467 56.293 304.527 56.5541C304.611 56.9135 304.65 57.2818 304.645 57.6507C304.64 58.0654 304.585 58.4779 304.483 58.8798C304.376 59.3072 304.223 59.7218 304.027 60.1163C303.824 60.5224 303.577 60.9049 303.291 61.2571C303.007 61.6119 302.684 61.9329 302.327 62.2139V63.2958C302.324 63.4164 302.294 63.5348 302.238 63.6417C302.201 63.7404 302.134 63.8252 302.047 63.8846L301.201 64.3704C301.173 64.3952 301.138 64.409 301.101 64.409C301.064 64.409 301.029 64.3952 301.002 64.3704C300.972 64.3362 300.95 64.2964 300.936 64.2535C300.922 64.2105 300.917 64.1652 300.921 64.1202V63.0309C300.64 63.1295 300.343 63.1744 300.045 63.1633C299.783 63.1518 299.529 63.0705 299.309 62.9278C299.095 62.7733 298.925 62.5652 298.816 62.3243C298.681 62.0102 298.611 61.6724 298.61 61.3307C298.603 61.2077 298.631 61.0852 298.691 60.9774C298.733 60.8794 298.802 60.7952 298.89 60.7345L299.626 60.315C299.743 60.2488 299.832 60.2267 299.898 60.2562C299.971 60.3026 300.025 60.3728 300.052 60.4549C300.104 60.5642 300.163 60.67 300.229 60.7713C300.299 60.8673 300.396 60.9393 300.509 60.9774C300.654 61.0113 300.805 61.0113 300.95 60.9774C301.186 60.9229 301.41 60.8283 301.613 60.6977C301.825 60.5748 302.027 60.4344 302.216 60.2782C302.404 60.1202 302.574 59.9425 302.724 59.7483C302.868 59.5559 302.987 59.3456 303.077 59.1227C303.167 58.9032 303.212 58.668 303.21 58.4309C303.22 58.343 303.213 58.2539 303.187 58.1691C303.162 58.0842 303.12 58.0055 303.063 57.9377C303.001 57.8888 302.93 57.8525 302.854 57.831C302.779 57.8095 302.699 57.8033 302.621 57.8126C302.372 57.8263 302.126 57.8657 301.885 57.9304C301.591 58.004 301.259 58.0702 300.877 58.1438C300.578 58.2143 300.27 58.2367 299.964 58.2101C299.726 58.1939 299.501 58.098 299.324 57.9377C299.139 57.7467 299.007 57.5108 298.941 57.2533C298.85 56.8701 298.808 56.4768 298.816 56.083C298.815 55.6631 298.87 55.245 298.978 54.8392C299.08 54.4262 299.223 54.0244 299.405 53.6395C299.585 53.2556 299.807 52.8927 300.067 52.5576C300.316 52.2309 300.597 51.93 300.906 51.6597V50.5777C300.909 50.4581 300.937 50.3404 300.987 50.2318C301.029 50.1338 301.098 50.0496 301.186 49.9889L302.032 49.5032C302.058 49.4789 302.092 49.4653 302.128 49.4653C302.164 49.4653 302.198 49.4789 302.224 49.5032C302.256 49.536 302.28 49.5754 302.295 49.6186C302.311 49.6618 302.316 49.7078 302.312 49.7534L302.341 50.8942Z" fill="#FAFAFA"/>
<path d="M308.664 117.259L304.704 114.993H304.667C302.923 114.006 300.531 114.153 297.881 115.684C292.545 118.761 288.225 126.253 288.225 132.414C288.225 135.49 289.299 137.647 291.044 138.662L294.621 140.701L295.474 139.273C296.448 139.056 297.383 138.694 298.249 138.199C303.578 135.115 307.906 127.622 307.906 121.462C307.902 120.631 307.801 119.804 307.604 118.996L308.664 117.259Z" fill="#515DEF"/>
<path d="M288.247 132.399C288.247 135.476 289.322 137.632 291.066 138.648L294.643 140.686L295.497 139.259C296.47 139.039 297.406 138.674 298.271 138.177C301.323 136.254 303.8 133.544 305.44 130.331L291.456 122.235C289.49 125.272 288.381 128.784 288.247 132.399Z" fill="#263238"/>
<path d="M308.671 117.259L304.741 114.993H304.704C302.96 114.006 300.568 114.153 297.918 115.684C295.27 117.323 293.058 119.578 291.471 122.257L305.455 130.353C306.99 127.626 307.841 124.568 307.935 121.44C307.932 120.609 307.83 119.781 307.633 118.974L308.671 117.259Z" fill="#455A64"/>
<path d="M301.635 117.812C296.306 120.888 291.979 128.38 291.979 134.541C291.979 140.701 296.306 143.196 301.635 140.12C306.963 137.043 311.328 129.536 311.328 123.39C311.328 117.245 306.971 114.735 301.635 117.812Z" fill="#37474F"/>
<path d="M306.551 131.162L296.726 136.837C296.608 136.903 296.519 136.837 296.519 136.638V127.924C296.517 127.839 296.535 127.755 296.57 127.679C296.606 127.602 296.659 127.535 296.726 127.482L306.551 121.808C306.662 121.742 306.757 121.808 306.757 122.007V130.728C306.758 130.811 306.74 130.894 306.705 130.969C306.669 131.044 306.616 131.111 306.551 131.162Z" fill="#FAFAFA"/>
<path d="M303.57 124.104C303.46 124.17 303.364 124.104 303.364 123.905V122.581L299.912 124.575V125.9C299.914 125.985 299.895 126.069 299.858 126.146C299.821 126.223 299.767 126.29 299.699 126.342C299.589 126.408 299.493 126.342 299.493 126.143V124.494C299.492 124.411 299.51 124.328 299.546 124.253C299.581 124.178 299.634 124.112 299.699 124.06L303.57 121.852C303.688 121.786 303.776 121.852 303.776 122.051V123.648C303.782 123.735 303.767 123.822 303.731 123.902C303.695 123.981 303.64 124.051 303.57 124.104Z" fill="#FAFAFA"/>
<path d="M303.57 122.463L299.699 124.671C299.589 124.737 299.493 124.671 299.493 124.472V123.736C299.492 123.652 299.51 123.569 299.546 123.492C299.582 123.416 299.634 123.348 299.699 123.295L303.57 121.087C303.688 121.02 303.776 121.087 303.776 121.285V122.021C303.779 122.106 303.761 122.19 303.726 122.266C303.69 122.343 303.637 122.41 303.57 122.463Z" fill="#FAFAFA"/>
<path d="M303.041 127.902L300.229 129.521C300.148 129.573 300.082 129.521 300.082 129.374V128.844C300.081 128.784 300.093 128.724 300.119 128.669C300.144 128.614 300.182 128.566 300.229 128.528L303.041 126.908C303.129 126.857 303.195 126.908 303.195 127.048V127.578C303.197 127.641 303.183 127.702 303.156 127.759C303.13 127.815 303.09 127.864 303.041 127.902Z" fill="#37474F"/>
<path d="M308.664 81.2543L304.704 78.9801H304.667C302.923 77.9938 300.531 78.141 297.881 79.6719C292.545 82.7558 288.225 90.2409 288.225 96.4012C288.225 99.4777 289.299 101.642 291.044 102.65L294.621 104.689L295.474 103.261C296.449 103.047 297.385 102.685 298.249 102.186C303.578 99.1023 307.906 91.6172 307.906 85.4569C307.903 84.6236 307.801 83.7935 307.604 82.9839L308.664 81.2543Z" fill="#515DEF"/>
<path d="M288.247 96.416C288.247 99.4925 289.322 101.656 291.066 102.665L294.643 104.703L295.497 103.276C296.471 103.062 297.407 102.699 298.271 102.201C301.328 100.268 303.805 97.544 305.44 94.3184L291.456 86.2224C289.485 89.2678 288.376 92.7906 288.247 96.416Z" fill="#263238"/>
<path d="M308.671 81.2544L304.741 78.9801H304.704C302.96 78.0012 300.568 78.1411 297.918 79.672C295.27 81.3103 293.058 83.5654 291.471 86.2444L305.455 94.3404C306.981 91.6262 307.829 88.5838 307.928 85.4716C307.925 84.6383 307.824 83.8082 307.626 82.9987L308.671 81.2544Z" fill="#455A64"/>
<path d="M301.635 81.7991C296.306 84.8829 291.979 92.368 291.979 98.5283C291.979 104.689 296.306 107.191 301.635 104.107C306.963 101.023 311.328 93.5383 311.328 87.3779C311.328 81.2176 306.971 78.752 301.635 81.7991Z" fill="#37474F"/>
<path d="M298.08 91.6025C298.08 90.2041 298.816 88.6585 299.728 88.1139C300.641 87.5693 301.377 88.2979 301.377 89.7037C301.377 91.1094 300.641 92.6477 299.728 93.1923C298.816 93.7369 298.08 93.0083 298.08 91.6025Z" fill="white"/>
<path d="M302.673 98.668L296.608 102.171L296.932 98.138C297.072 96.4232 297.977 94.6641 299.051 94.0459L300.222 93.3688C301.296 92.7505 302.202 93.4571 302.341 95.0174L302.673 98.668Z" fill="white"/>
<path d="M302.084 87.3999C302.084 86.0015 302.82 84.4559 303.732 83.9113C304.645 83.3666 305.381 84.0953 305.381 85.501C305.381 86.9068 304.645 88.445 303.732 88.9897C302.82 89.5343 302.084 88.8057 302.084 87.3999Z" fill="white"/>
<path d="M306.662 94.4655L302.945 96.6146L302.776 94.6863C302.65 93.332 302.04 92.4783 301.23 92.4783C301.515 91.423 302.158 90.4995 303.048 89.8655L304.218 89.1957C305.293 88.5701 306.198 89.2767 306.338 90.837L306.662 94.4655Z" fill="white"/>
<path d="M207.92 231.707C207.92 227.144 204.902 222.581 198.867 219.1C186.804 212.13 167.219 212.13 155.178 219.1C149.143 222.581 146.125 227.144 146.125 231.707V240.12C146.125 244.683 149.143 249.246 155.178 252.735C167.241 259.698 186.826 259.698 198.867 252.735C204.902 249.246 207.92 244.683 207.92 240.12V231.707ZM156.672 221.683C162.06 218.57 169.287 216.862 177.023 216.862C184.758 216.862 191.986 218.57 197.373 221.683C202.246 224.495 204.932 228.057 204.932 231.707C204.932 235.358 202.246 238.92 197.373 241.732C191.986 244.845 184.736 246.56 177.023 246.56C169.309 246.56 162.06 244.845 156.672 241.732C151.8 238.92 149.114 235.358 149.114 231.707C149.114 228.057 151.8 224.48 156.672 221.683Z" fill="#515DEF"/>
<path opacity="0.3" d="M155.171 244.352C167.241 251.314 186.819 251.314 198.867 244.352C210.916 237.389 210.93 226.092 198.867 219.129C186.804 212.167 167.219 212.159 155.171 219.129C143.123 226.099 143.108 237.36 155.171 244.352ZM149.114 231.737C149.114 228.057 151.793 224.524 156.665 221.713C162.053 218.599 169.287 216.892 177.023 216.892C184.758 216.892 191.986 218.599 197.373 221.713C202.245 224.524 204.925 228.086 204.925 231.737C204.925 235.387 202.245 238.95 197.373 241.761C191.986 244.845 184.736 246.56 177.023 246.56C169.309 246.56 162.053 244.845 156.665 241.732C151.793 238.92 149.114 235.358 149.114 231.707V231.737Z" fill="white"/>
<path d="M149.114 231.707C149.131 233.194 149.548 234.648 150.321 235.917C151.542 233.798 153.699 231.803 156.672 230.096C162.052 226.982 169.287 225.267 177.023 225.267C184.758 225.267 191.986 226.982 197.373 230.096C199.958 231.457 202.148 233.462 203.732 235.917C204.499 234.646 204.913 233.192 204.932 231.707C204.932 228.027 202.245 224.495 197.373 221.683C191.986 218.577 184.758 216.862 177.023 216.862C169.287 216.862 162.052 218.577 156.672 221.683C151.793 224.48 149.114 228.057 149.114 231.707Z" fill="#515DEF"/>
<path opacity="0.1" d="M149.114 231.707C149.131 233.194 149.548 234.648 150.321 235.917C151.542 233.798 153.699 231.803 156.672 230.096C162.052 226.982 169.287 225.267 177.023 225.267C184.758 225.267 191.986 226.982 197.373 230.096C199.958 231.457 202.148 233.462 203.732 235.917C204.499 234.646 204.913 233.192 204.932 231.707C204.932 228.027 202.245 224.495 197.373 221.683C191.986 218.577 184.758 216.862 177.023 216.862C169.287 216.862 162.052 218.577 156.672 221.683C151.793 224.48 149.114 228.057 149.114 231.707Z" fill="black"/>
<path opacity="0.4" d="M156.665 225.488C162.052 222.382 169.287 220.667 177.023 220.667C184.758 220.667 191.986 222.382 197.373 225.488C201.392 227.814 203.916 230.64 204.682 233.584C203.946 236.528 201.392 239.384 197.373 241.68C191.986 244.845 184.736 246.56 177.023 246.56C169.309 246.56 162.052 244.845 156.665 241.732C152.646 239.413 150.122 236.58 149.364 233.636C150.144 230.64 152.646 227.814 156.665 225.488Z" fill="white"/>
<path opacity="0.1" d="M169.744 249.048V257.453C164.633 256.819 159.69 255.218 155.178 252.735C149.143 249.246 146.125 244.683 146.125 240.12V231.707C146.128 230.778 146.251 229.852 146.493 228.955C145.021 234.387 147.921 240.135 155.171 244.323C159.684 246.809 164.63 248.413 169.744 249.048Z" fill="black"/>
<path d="M156.091 249.673C156.053 248.923 155.839 248.192 155.465 247.539C155.092 246.887 154.57 246.332 153.942 245.92C153.725 245.761 153.469 245.662 153.202 245.633C152.934 245.605 152.664 245.648 152.418 245.758L142.048 251.712C141.825 251.864 141.648 252.074 141.537 252.319C141.425 252.564 141.383 252.835 141.415 253.103C141.447 253.851 141.654 254.581 142.02 255.234C142.385 255.887 142.899 256.446 143.52 256.864C143.738 257.024 143.995 257.123 144.264 257.15C144.533 257.177 144.805 257.132 145.051 257.019L155.45 251.086C155.673 250.929 155.85 250.715 155.963 250.467C156.075 250.219 156.12 249.945 156.091 249.673Z" fill="#37474F"/>
<path d="M155.451 251.079C155.672 250.922 155.849 250.71 155.961 250.463C156.074 250.216 156.118 249.943 156.091 249.673C156.082 249.115 155.959 248.564 155.73 248.054L142.313 255.723C142.635 256.18 143.045 256.568 143.52 256.864C143.738 257.024 143.995 257.123 144.264 257.15C144.534 257.177 144.805 257.132 145.051 257.018L155.451 251.086V251.079Z" fill="#263238"/>
<path d="M145.272 256.864C145.224 255.885 144.946 254.932 144.46 254.082C143.974 253.231 143.294 252.507 142.475 251.969C142.195 251.766 141.868 251.639 141.524 251.602C141.181 251.565 140.834 251.618 140.517 251.756L106.021 270.156L111.173 279.253L144.469 258.645C144.747 258.444 144.967 258.174 145.107 257.861C145.248 257.549 145.305 257.205 145.272 256.864Z" fill="#515DEF"/>
<path opacity="0.1" d="M111.136 279.246L144.433 258.638C144.721 258.437 144.951 258.162 145.097 257.842C145.243 257.523 145.301 257.169 145.264 256.82C145.222 255.772 144.9 254.755 144.33 253.876L108.486 274.528L111.136 279.246Z" fill="black"/>
<path d="M108.538 278.944C107.463 278.239 106.569 277.29 105.93 276.175C105.29 275.06 104.923 273.81 104.858 272.526C104.858 270.171 106.521 269.221 108.538 270.406C109.613 271.109 110.506 272.057 111.146 273.171C111.785 274.285 112.153 275.534 112.218 276.817C112.233 279.209 110.577 280.158 108.538 278.944Z" fill="#515DEF"/>
<g opacity="0.2">
<path d="M108.538 278.944C107.463 278.239 106.569 277.29 105.93 276.175C105.29 275.06 104.923 273.81 104.858 272.526C104.858 270.171 106.521 269.221 108.538 270.406C109.613 271.109 110.506 272.057 111.146 273.171C111.785 274.285 112.153 275.534 112.218 276.817C112.233 279.209 110.577 280.158 108.538 278.944Z" fill="black"/>
</g>
<path d="M311.865 197.66C312.241 183.676 311.129 180.313 307.398 177.744L305.926 185.84C305.926 185.84 307.626 195.408 307.442 198.58C307.287 201.377 307.015 204.88 306.353 207.14C306.231 207.537 305.97 207.877 305.617 208.097C304.845 208.646 304.156 209.303 303.571 210.047C303.011 210.636 302.533 210.783 302.606 210.967C302.714 211.172 302.895 211.33 303.113 211.407C303.331 211.485 303.571 211.478 303.784 211.386C304.261 211.197 304.714 210.95 305.131 210.65C304.801 211.509 304.336 212.309 303.755 213.02C302.422 214.647 302.364 215.648 305.05 215.677C306.735 215.677 308.082 214.654 309.348 210.945C309.838 209.585 310.233 208.193 310.533 206.779C311.163 203.77 311.608 200.724 311.865 197.66Z" fill="#FFA8A7"/>
<path d="M304.262 176.684C305.407 176.479 306.587 176.652 307.625 177.177C308.663 177.701 309.503 178.548 310.018 179.591C311.578 182.381 311.961 187.187 312.137 191.963C312.137 191.963 309.039 194.562 305.315 193.288L304.262 176.684Z" fill="#515DEF"/>
<path d="M309.495 253.67C309.775 253.78 309.849 254.317 309.893 255.385C309.893 256.194 310.091 257.593 309.157 257.894C308.222 258.196 306.816 258.027 306.213 257.269C305.477 256.312 304.939 255.48 303.858 254.325C302.915 253.316 301.9 252.374 301.524 250.961C301.179 249.681 301.466 249.129 302.334 248.753C303.534 248.245 305.418 249.916 306.36 250.174C307.155 250.394 309.208 253.567 309.495 253.67Z" fill="#263238"/>
<path d="M309.495 252.683V253.994C309.003 254.31 308.433 254.485 307.848 254.5C307.263 254.516 306.685 254.371 306.176 254.082C306.117 253.957 305.83 252.205 305.83 252.205L309.495 252.683Z" fill="#FFA8A7"/>
<path d="M298.853 261.28C299.085 261.983 299.279 262.698 299.434 263.422C299.596 264.217 299.832 265.541 299.552 266.138C299.272 266.734 298.19 267.124 296.505 267.109C295.107 267.28 293.761 267.75 292.56 268.485C290.993 269.151 289.287 269.421 287.592 269.273C286.12 269.104 284.545 268.235 284.302 267.617C284.059 266.999 284.383 266.351 287.908 264.85C287.908 264.85 292.81 263.253 294.532 261.368L298.853 261.28Z" fill="#263238"/>
<path d="M298.853 259.808V261.339C298.853 261.898 298.205 262.73 296.497 262.664C295.305 262.62 294.466 262.303 294.518 261.317V259.896L298.853 259.808Z" fill="#FFA8A7"/>
<path d="M310.349 235.255C310.057 232.928 309.537 230.635 308.796 228.41C308.796 228.41 309.267 222.522 309.488 216.914C309.731 210.871 309.488 203.269 309.591 201.76C309.591 201.76 290.087 197.815 289.719 204.807C289.351 211.799 290.455 229.581 290.72 232.65C290.985 235.719 291.456 238.427 292.111 243.403C292.766 248.378 294.496 259.911 294.496 259.911C295.169 260.255 295.918 260.426 296.674 260.411C297.43 260.395 298.171 260.193 298.831 259.823C298.831 259.823 300.207 245.839 300.06 242.313C299.949 239.688 299.499 237.088 298.72 234.578C298.72 234.578 299.088 228.815 299.412 223.803C299.736 218.791 300.089 216.384 300.148 214.235L300.568 214.029C300.568 214.029 300.994 222.677 301.23 225.746C301.465 228.815 301.966 231.759 302.834 237.456C303.607 242.402 305.896 252.868 305.896 252.868C308.104 254.075 309.458 252.713 309.458 252.713C309.458 252.713 310.945 239.546 310.349 235.255Z" fill="#37474F"/>
<path d="M300.185 214.176C300.185 214.176 304.917 211.843 307.287 209.76C307.287 209.76 305.079 212.859 302.201 214.228C302.201 214.228 301.171 224.973 301.178 224.76L300.582 214.176H300.185Z" fill="#263238"/>
<path d="M295.975 174.469L297.13 180.82L302.864 180.401L301.664 173.203L295.975 174.469Z" fill="#FFA8A7"/>
<path d="M308.929 179.937C308.355 178.208 306.169 176.331 303.975 176.736C300.728 177.292 297.527 178.095 294.4 179.135C292.391 179.871 290.565 181.586 290.396 188.188C290.396 188.188 289.726 203.585 289.712 206.588C293.901 208.232 298.464 208.682 302.893 207.89C308.929 206.573 309.657 204.071 309.657 204.071C309.657 204.071 309.731 193.031 309.554 188.217C309.37 184.132 309.319 181.122 308.929 179.937Z" fill="#F5F5F5"/>
<path d="M291.544 166.741C291.544 166.741 290.072 169.059 290.271 169.28C290.47 169.501 291.559 169.677 291.559 169.677L291.544 166.741Z" fill="#FFA8A7"/>
<path d="M295.585 160.323C292.553 161.059 291.706 162.398 291.522 167.241C291.338 172.312 291.89 173.865 292.575 174.557C293.031 175.006 295.519 175.035 296.777 174.66C298.345 174.189 301.87 172.849 303.482 170.244C305.374 167.204 305.801 163.134 303.659 161.515C300.656 159.263 296.821 160.036 295.585 160.323Z" fill="#FFA8A7"/>
<path d="M291.559 161.589C292.256 162.604 293.24 163.388 294.385 163.841C294.967 164.503 294.643 167.087 295.666 167.521C295.666 167.521 296.107 165.637 297.69 165.836C299.272 166.034 299.537 168.044 298.566 169.309C297.594 170.575 296.652 170.112 296.652 170.112C296.652 170.112 296.763 172.783 297.984 174.27C299.253 174.517 300.563 174.456 301.804 174.093C303.32 173.733 305.433 171.775 306.294 169.736C308.119 165.431 308.163 161.589 305.411 160.5C305.072 158.534 303.504 157.688 301.731 157.327C297.911 156.54 295.452 158.924 292.516 158.711C290.83 158.571 290.514 159.8 291.559 161.589Z" fill="#263238"/>
<path d="M305.477 161.132L307.272 160.014C307.204 159.887 307.109 159.775 306.996 159.685C306.882 159.596 306.751 159.531 306.612 159.494C306.472 159.457 306.326 159.449 306.183 159.471C306.04 159.492 305.903 159.543 305.78 159.619C305.657 159.695 305.552 159.796 305.469 159.915C305.387 160.034 305.33 160.168 305.301 160.31C305.273 160.452 305.274 160.598 305.304 160.739C305.334 160.881 305.393 161.015 305.477 161.132Z" fill="#263238"/>
<path d="M270.112 190.573C271.054 190.992 282.168 199.206 283.905 198.249C285.641 197.292 294.525 186.9 294.525 186.9C295.276 185.739 295.675 184.386 295.675 183.003C295.675 181.62 295.276 180.267 294.525 179.106C292.788 179.481 291.246 180.472 290.183 181.895C288.711 184.147 282.249 192.199 282.249 192.199C280.659 191.404 279.069 190.595 277.494 189.778C276.191 189.101 274.881 188.431 273.608 187.702C273.249 187.54 272.912 187.333 272.607 187.084C271.974 186.466 272.084 184.957 272.099 184.14C272.094 183.759 272.111 183.378 272.151 182.999C272.209 182.528 272.298 181.387 271.451 181.748C271.294 181.827 271.157 181.943 271.054 182.087C270.921 182.259 270.818 182.453 270.752 182.661C270.59 183.154 270.642 183.698 270.502 184.191C270.485 184.267 270.446 184.336 270.392 184.39C270.356 184.422 270.313 184.445 270.268 184.459C270.222 184.473 270.174 184.477 270.127 184.471C268.905 184.434 267.742 182.719 267.183 181.807C266.979 181.374 266.658 181.006 266.255 180.747C265.901 180.64 265.521 180.654 265.176 180.788C264.831 180.921 264.54 181.166 264.349 181.483C263.82 182.278 263.602 183.239 263.738 184.184C263.847 185.468 264.414 186.669 265.335 187.57C266.742 188.839 268.358 189.855 270.112 190.573Z" fill="#FFA8A7"/>
<path d="M295.519 178.774C294.297 178.914 292.575 178.686 290.175 181.269C288.238 183.481 286.432 185.803 284.766 188.225C285.082 189.496 285.758 190.649 286.712 191.547C287.666 192.445 288.858 193.049 290.146 193.288C290.146 193.288 294.348 188.975 295.519 186.605C296.689 184.236 296.968 180.379 295.519 178.774Z" fill="#515DEF"/>
</svg>
