<svg width="16" height="17" viewBox="0 0 16 17" fill="none" xmlns="http://www.w3.org/2000/svg">
<path fill-rule="evenodd" clip-rule="evenodd" d="M8.12671 1.93635C7.66383 1.93635 7.24137 2.35232 7.24137 2.92741V14.0726C7.24137 14.6477 7.66383 15.0636 8.12671 15.0636C8.58959 15.0636 9.01205 14.6477 9.01205 14.0726V2.92741C9.01205 2.35232 8.58959 1.93635 8.12671 1.93635ZM5.86374 2.92741C5.86374 1.61454 6.85083 0.5 8.12671 0.5C9.40259 0.5 10.3897 1.61454 10.3897 2.92741V14.0726C10.3897 15.3855 9.40259 16.5 8.12671 16.5C6.85083 16.5 5.86374 15.3855 5.86374 14.0726V2.92741ZM13.3637 5.33213C12.9009 5.33213 12.4784 5.74809 12.4784 6.32319V14.0723C12.4784 14.6474 12.9009 15.0634 13.3637 15.0634C13.8266 15.0634 14.2491 14.6474 14.2491 14.0723V6.32319C14.2491 5.74809 13.8266 5.33213 13.3637 5.33213ZM11.1008 6.32319C11.1008 5.01032 12.0879 3.89578 13.3637 3.89578C14.6396 3.89578 15.6267 5.01032 15.6267 6.32319V14.0723C15.6267 15.3852 14.6396 16.4997 13.3637 16.4997C12.0879 16.4997 11.1008 15.3852 11.1008 14.0723V6.32319ZM2.88968 8.62589C2.4268 8.62589 2.00433 9.04186 2.00433 9.61696V14.072C2.00433 14.6471 2.4268 15.0631 2.88968 15.0631C3.35256 15.0631 3.77502 14.6471 3.77502 14.072V9.61696C3.77502 9.04186 3.35256 8.62589 2.88968 8.62589ZM0.626709 9.61696C0.626709 8.30408 1.61379 7.18954 2.88968 7.18954C4.16556 7.18954 5.15264 8.30408 5.15264 9.61696V14.072C5.15264 15.3849 4.16556 16.4994 2.88968 16.4994C1.61379 16.4994 0.626709 15.3849 0.626709 14.072V9.61696Z" fill="#515DEF"/>
</svg>
