<svg width="25" height="30" viewBox="0 0 25 30" fill="none" xmlns="http://www.w3.org/2000/svg">
<path d="M12.2312 8.496C11.0632 8.496 9.25517 7.168 7.35117 7.216C4.83917 7.248 2.53517 8.672 1.23917 10.928C-1.36883 15.456 0.567171 22.144 3.11117 25.824C4.35917 27.616 5.83117 29.632 7.78317 29.568C9.65517 29.488 10.3592 28.352 12.6312 28.352C14.8872 28.352 15.5272 29.568 17.5112 29.52C19.5272 29.488 20.8072 27.696 22.0392 25.888C23.4632 23.808 24.0552 21.792 24.0872 21.68C24.0392 21.664 20.1672 20.176 20.1192 15.696C20.0872 11.952 23.1752 10.16 23.3192 10.08C21.5592 7.504 18.8552 7.216 17.9112 7.152C15.4472 6.96 13.3832 8.496 12.2312 8.496ZM16.3912 4.72C17.4312 3.472 18.1192 1.728 17.9272 0C16.4392 0.064 14.6472 0.992 13.5752 2.24C12.6152 3.344 11.7832 5.12 12.0072 6.816C13.6552 6.944 15.3512 5.968 16.3912 4.72Z" fill="#313131"/>
</svg>
