<svg width="187" height="188" viewBox="0 0 187 188" fill="none" xmlns="http://www.w3.org/2000/svg">
<circle cx="132.64" cy="2.67442" r="2.17442" fill="#515DEF"/>
<circle cx="132.64" cy="28.7677" r="2.17442" fill="#515DEF"/>
<circle cx="132.64" cy="54.8607" r="2.17442" fill="#515DEF"/>
<circle cx="132.64" cy="80.9535" r="2.17442" fill="#515DEF"/>
<circle cx="132.64" cy="107.047" r="2.17442" fill="#515DEF"/>
<circle cx="132.64" cy="133.14" r="2.17442" fill="#515DEF"/>
<circle cx="132.64" cy="159.233" r="2.17442" fill="#515DEF"/>
<circle cx="132.64" cy="185.326" r="2.17442" fill="#515DEF"/>
<circle cx="158.732" cy="2.67442" r="2.17442" fill="#515DEF"/>
<circle cx="158.732" cy="28.7676" r="2.17442" fill="#515DEF"/>
<circle cx="158.732" cy="54.8606" r="2.17442" fill="#515DEF"/>
<circle cx="158.732" cy="80.9536" r="2.17442" fill="#515DEF"/>
<circle cx="158.732" cy="107.047" r="2.17442" fill="#515DEF"/>
<circle cx="158.732" cy="133.14" r="2.17442" fill="#515DEF"/>
<circle cx="158.732" cy="159.233" r="2.17442" fill="#515DEF"/>
<circle cx="158.732" cy="185.326" r="2.17442" fill="#515DEF"/>
<circle cx="184.827" cy="2.67442" r="2.17442" fill="#515DEF"/>
<circle cx="184.827" cy="28.7677" r="2.17442" fill="#515DEF"/>
<circle cx="184.827" cy="54.8607" r="2.17442" fill="#515DEF"/>
<circle cx="184.827" cy="80.9535" r="2.17442" fill="#515DEF"/>
<circle cx="184.827" cy="107.047" r="2.17442" fill="#515DEF"/>
<circle cx="184.827" cy="133.14" r="2.17442" fill="#515DEF"/>
<circle cx="184.827" cy="159.233" r="2.17442" fill="#515DEF"/>
<circle cx="184.827" cy="185.326" r="2.17442" fill="#515DEF"/>
<circle cx="2.17442" cy="2.6754" r="2.17442" fill="#515DEF"/>
<circle cx="2.17442" cy="28.7676" r="2.17442" fill="#515DEF"/>
<circle cx="2.17442" cy="54.8606" r="2.17442" fill="#515DEF"/>
<circle cx="2.17442" cy="80.9536" r="2.17442" fill="#515DEF"/>
<circle cx="2.17442" cy="107.047" r="2.17442" fill="#515DEF"/>
<circle cx="2.17442" cy="133.14" r="2.17442" fill="#515DEF"/>
<circle cx="2.17442" cy="159.233" r="2.17442" fill="#515DEF"/>
<circle cx="2.17442" cy="185.326" r="2.17442" fill="#515DEF"/>
<circle cx="28.2691" cy="2.67442" r="2.17442" fill="#515DEF"/>
<circle cx="28.2691" cy="28.7677" r="2.17442" fill="#515DEF"/>
<circle cx="28.2691" cy="54.8607" r="2.17442" fill="#515DEF"/>
<circle cx="28.2691" cy="80.9535" r="2.17442" fill="#515DEF"/>
<circle cx="28.2691" cy="107.047" r="2.17442" fill="#515DEF"/>
<circle cx="28.2691" cy="133.14" r="2.17442" fill="#515DEF"/>
<circle cx="28.2691" cy="159.233" r="2.17442" fill="#515DEF"/>
<circle cx="28.2691" cy="185.326" r="2.17442" fill="#515DEF"/>
<circle cx="54.359" cy="2.67442" r="2.17442" fill="#515DEF"/>
<circle cx="54.359" cy="28.7677" r="2.17442" fill="#515DEF"/>
<circle cx="54.359" cy="54.8607" r="2.17442" fill="#515DEF"/>
<circle cx="54.359" cy="80.9535" r="2.17442" fill="#515DEF"/>
<circle cx="54.359" cy="107.047" r="2.17442" fill="#515DEF"/>
<circle cx="54.359" cy="133.14" r="2.17442" fill="#515DEF"/>
<circle cx="54.359" cy="159.233" r="2.17442" fill="#515DEF"/>
<circle cx="54.359" cy="185.326" r="2.17442" fill="#515DEF"/>
<circle cx="80.4556" cy="2.67442" r="2.17442" fill="#515DEF"/>
<circle cx="80.4556" cy="28.7676" r="2.17442" fill="#515DEF"/>
<circle cx="80.4556" cy="54.8606" r="2.17442" fill="#515DEF"/>
<circle cx="80.4556" cy="80.9536" r="2.17442" fill="#515DEF"/>
<circle cx="80.4556" cy="107.047" r="2.17442" fill="#515DEF"/>
<circle cx="80.4556" cy="133.14" r="2.17442" fill="#515DEF"/>
<circle cx="80.4556" cy="159.233" r="2.17442" fill="#515DEF"/>
<circle cx="80.4556" cy="185.326" r="2.17442" fill="#515DEF"/>
<circle cx="106.55" cy="2.67442" r="2.17442" fill="#515DEF"/>
<circle cx="106.55" cy="28.7677" r="2.17442" fill="#515DEF"/>
<circle cx="106.55" cy="54.8607" r="2.17442" fill="#515DEF"/>
<circle cx="106.55" cy="80.9535" r="2.17442" fill="#515DEF"/>
<circle cx="106.55" cy="107.047" r="2.17442" fill="#515DEF"/>
<circle cx="106.55" cy="133.14" r="2.17442" fill="#515DEF"/>
<circle cx="106.55" cy="159.233" r="2.17442" fill="#515DEF"/>
<circle cx="106.55" cy="185.326" r="2.17442" fill="#515DEF"/>
</svg>
