<svg width="18" height="21" viewBox="0 0 18 21" fill="none" xmlns="http://www.w3.org/2000/svg">
<mask id="mask0_1_1913" style="mask-type:luminance" maskUnits="userSpaceOnUse" x="0" y="0" width="18" height="21">
<path d="M17.6267 0H0.813354V20.6933H17.6267V0Z" fill="white"/>
</mask>
<g mask="url(#mask0_1_1913)">
<mask id="mask1_1_1913" style="mask-type:luminance" maskUnits="userSpaceOnUse" x="0" y="1" width="18" height="19">
<path d="M17.5408 1.5918H0.727417V19.1015H17.5408V1.5918Z" fill="white"/>
</mask>
<g mask="url(#mask1_1_1913)">
<path d="M15.2061 6.94189H3.0631C2.54722 6.94189 2.12903 7.37741 2.12903 7.91466V15.6968C2.12903 16.234 2.54722 16.6695 3.0631 16.6695H15.2061C15.7219 16.6695 16.1401 16.234 16.1401 15.6968V7.91466C16.1401 7.37741 15.7219 6.94189 15.2061 6.94189Z" stroke="#515DEF" stroke-width="1.1" stroke-linecap="round" stroke-linejoin="round"/>
<path d="M11.9368 6.94198C11.9368 6.168 11.6416 5.42572 11.1161 4.87843C10.5906 4.33115 9.87781 4.02368 9.13461 4.02368C8.39142 4.02368 7.67867 4.33115 7.15315 4.87843C6.62762 5.42572 6.3324 6.168 6.3324 6.94198" stroke="#515DEF" stroke-width="1.1" stroke-linecap="round" stroke-linejoin="round"/>
</g>
</g>
</svg>
