<svg width="30" height="28" viewBox="0 0 30 28" fill="none" xmlns="http://www.w3.org/2000/svg">
<path d="M29.2649 10.3618C29.0776 9.78564 28.5665 9.37772 27.9643 9.32323L19.7503 8.57751L16.5041 0.97746C16.2644 0.419093 15.7191 0.0587158 15.1121 0.0587158C14.5051 0.0587158 13.9595 0.419093 13.7214 0.97746L10.4752 8.57751L2.25986 9.32323C1.65764 9.3788 1.14768 9.78672 0.959246 10.3618C0.771894 10.938 0.944918 11.5699 1.40038 11.9694L7.6095 17.4139L5.77875 25.4772C5.6448 26.0701 5.87492 26.6832 6.36686 27.0388C6.63128 27.2309 6.94194 27.3269 7.25369 27.3269C7.52158 27.3269 7.78969 27.2557 8.02915 27.1124L15.1121 22.8773L22.1937 27.1124C22.7132 27.4228 23.3664 27.3944 23.8573 27.0388C24.3492 26.6832 24.5794 26.0701 24.4454 25.4772L22.6146 17.4139L28.8238 11.9694C29.279 11.5699 29.4523 10.9393 29.2649 10.3618Z" fill="#726FFC"/>
</svg>
