<svg width="36" height="37" viewBox="0 0 36 37" fill="none" xmlns="http://www.w3.org/2000/svg">
<path fill-rule="evenodd" clip-rule="evenodd" d="M10.8001 11.3V9.49998C10.8001 6.51764 13.2178 4.09998 16.2001 4.09998H19.8001C22.7824 4.09998 25.2001 6.51764 25.2001 9.49998V11.3H28.8001C30.7883 11.3 32.4001 12.9118 32.4001 14.9V21.3273C27.9175 22.9905 23.0669 23.8999 18.0001 23.8999C12.9334 23.8999 8.08276 22.9905 3.6001 21.3273V14.9C3.6001 12.9118 5.21187 11.3 7.2001 11.3H10.8001ZM14.4001 9.49998C14.4001 8.50586 15.206 7.69998 16.2001 7.69998H19.8001C20.7942 7.69998 21.6001 8.50586 21.6001 9.49998V11.3H14.4001V9.49998ZM16.2001 18.5C16.2001 17.5059 17.006 16.7 18.0001 16.7H18.0181C19.0122 16.7 19.8181 17.5059 19.8181 18.5C19.8181 19.4941 19.0122 20.3 18.0181 20.3H18.0001C17.006 20.3 16.2001 19.4941 16.2001 18.5Z" fill="#515DEF"/>
<path d="M3.6001 25.146V29.3C3.6001 31.2882 5.21187 32.9 7.2001 32.9H28.8001C30.7883 32.9 32.4001 31.2882 32.4001 29.3V25.1461C27.8771 26.6728 23.0336 27.4999 18.0001 27.4999C12.9666 27.4999 8.12313 26.6728 3.6001 25.146Z" fill="#515DEF"/>
</svg>
