<svg width="36" height="37" viewBox="0 0 36 37" fill="none" xmlns="http://www.w3.org/2000/svg">
<path fill-rule="evenodd" clip-rule="evenodd" d="M18.0001 32.9C25.953 32.9 32.4001 26.4529 32.4001 18.5C32.4001 10.5471 25.953 4.10004 18.0001 4.10004C10.0472 4.10004 3.6001 10.5471 3.6001 18.5C3.6001 26.4529 10.0472 32.9 18.0001 32.9ZM24.6729 16.1728C25.3758 15.4699 25.3758 14.3302 24.6729 13.6272C23.9699 12.9243 22.8302 12.9243 22.1273 13.6272L16.2001 19.5545L13.8729 17.2272C13.1699 16.5243 12.0302 16.5243 11.3273 17.2272C10.6244 17.9302 10.6244 19.0699 11.3273 19.7728L14.9273 23.3728C15.6302 24.0758 16.7699 24.0758 17.4729 23.3728L24.6729 16.1728Z" fill="#515DEF"/>
</svg>
