<svg width="24" height="25" viewBox="0 0 24 25" fill="none" xmlns="http://www.w3.org/2000/svg">
<path d="M16.1893 2.5H7.80927C4.16927 2.5 1.99927 4.67 1.99927 8.31V16.68C1.99927 20.33 4.16927 22.5 7.80927 22.5H16.1793C19.8193 22.5 21.9893 20.33 21.9893 16.69V8.31C21.9993 4.67 19.8293 2.5 16.1893 2.5ZM9.93927 13.77C9.25927 14.79 8.31927 15.62 7.21927 16.17C7.11927 16.22 6.99927 16.25 6.88927 16.25C6.60927 16.25 6.34927 16.1 6.21927 15.84C6.02927 15.47 6.17927 15.02 6.55927 14.83C7.42927 14.4 8.16927 13.74 8.69927 12.94C8.87927 12.67 8.87927 12.33 8.69927 12.06C8.15927 11.26 7.41927 10.6 6.55927 10.17C6.17927 9.99 6.02927 9.54 6.21927 9.16C6.39927 8.79 6.84927 8.64 7.21927 8.83C8.31927 9.38 9.25927 10.21 9.93927 11.23C10.4593 12 10.4593 13 9.93927 13.77ZM16.9993 16.25H12.9993C12.5893 16.25 12.2493 15.91 12.2493 15.5C12.2493 15.09 12.5893 14.75 12.9993 14.75H16.9993C17.4093 14.75 17.7493 15.09 17.7493 15.5C17.7493 15.91 17.4093 16.25 16.9993 16.25Z" fill="#515DEF"/>
</svg>
