<svg width="40" height="32" viewBox="0 0 40 32" fill="none" xmlns="http://www.w3.org/2000/svg">
<path d="M38.4186 0.465118V2.74419C35.1938 3.92248 32.6667 5.78295 30.8372 8.32558C29.0078 10.8372 28.093 13.4574 28.093 16.186C28.093 16.7752 28.186 17.2093 28.3721 17.4884C28.4961 17.6744 28.6357 17.7674 28.7907 17.7674C28.9457 17.7674 29.1783 17.6589 29.4884 17.4419C30.4806 16.7287 31.7364 16.3721 33.2558 16.3721C35.0233 16.3721 36.5891 17.1008 37.9535 18.5581C39.3178 19.9845 40 21.6899 40 23.6744C40 25.7519 39.2093 27.5814 37.6279 29.1628C36.0775 30.7442 34.186 31.5349 31.9535 31.5349C29.3488 31.5349 27.1008 30.4651 25.2093 28.3256C23.3178 26.186 22.3721 23.3178 22.3721 19.7209C22.3721 15.5349 23.6589 11.7829 26.2326 8.46512C28.8062 5.14729 32.8682 2.48062 38.4186 0.465118ZM16.0465 0.465118V2.74419C12.8217 3.92248 10.2946 5.78295 8.46512 8.32558C6.63566 10.8372 5.72093 13.4574 5.72093 16.186C5.72093 16.7752 5.81395 17.2093 6 17.4884C6.12403 17.6744 6.26357 17.7674 6.4186 17.7674C6.57364 17.7674 6.8062 17.6589 7.11628 17.4419C8.10853 16.7287 9.36434 16.3721 10.8837 16.3721C12.6512 16.3721 14.2171 17.1008 15.5814 18.5581C16.9457 19.9845 17.6279 21.6899 17.6279 23.6744C17.6279 25.7519 16.8372 27.5814 15.2558 29.1628C13.7054 30.7442 11.814 31.5349 9.5814 31.5349C6.97674 31.5349 4.72868 30.4651 2.83721 28.3256C0.945736 26.186 0 23.3178 0 19.7209C0 15.5349 1.28682 11.7829 3.86047 8.46512C6.43411 5.14729 10.4961 2.48062 16.0465 0.465118Z" fill="#1D1E25"/>
</svg>
