<svg width="17" height="19" viewBox="0 0 17 19" fill="none" xmlns="http://www.w3.org/2000/svg">
<path d="M7.62671 5.5V6.5" stroke="#515DEF" stroke-width="1.1" stroke-linecap="round" stroke-linejoin="round"/>
<path d="M7.62671 13.5V14.5" stroke="#515DEF" stroke-width="1.1" stroke-linecap="round" stroke-linejoin="round"/>
<path d="M8.12671 17.5C12.2688 17.5 15.6267 13.9183 15.6267 9.5C15.6267 5.08173 12.2688 1.5 8.12671 1.5C3.98458 1.5 0.626709 5.08173 0.626709 9.5C0.626709 13.9183 3.98458 17.5 8.12671 17.5Z" stroke="#515DEF" stroke-width="1.1" stroke-linecap="round" stroke-linejoin="round"/>
<path d="M6.25171 13.5H9.06421C9.47861 13.5 9.87604 13.3156 10.1691 12.9874C10.4621 12.6592 10.6267 12.2141 10.6267 11.75C10.6267 11.2859 10.4621 10.8407 10.1691 10.5126C9.87604 10.1844 9.47861 10 9.06421 10H7.18921C6.77481 10 6.37738 9.81563 6.08436 9.48744C5.79133 9.15925 5.62671 8.71414 5.62671 8.25C5.62671 7.78587 5.79133 7.34076 6.08436 7.01257C6.37738 6.68438 6.77481 6.5 7.18921 6.5H10.0017" stroke="#515DEF" stroke-width="1.1" stroke-linecap="round" stroke-linejoin="round"/>
</svg>
