<svg width="32" height="27" viewBox="0 0 32 27" fill="none" xmlns="http://www.w3.org/2000/svg">
<g id="Group">
<path id="path2" fill-rule="evenodd" clip-rule="evenodd" d="M16.4121 0.00699057C13.8387 -0.078707 11.2388 0.623369 8.99419 2.12167C6.47315 3.80625 4.71132 6.29389 3.89981 9.07484C3.67571 9.04748 3.40735 9.05955 3.0887 9.14967C1.89899 9.48723 1.0042 10.4621 0.601862 11.3207C0.0800319 12.4396 -0.140046 13.9194 0.0921019 15.447C0.32264 16.9699 0.965976 18.2252 1.77065 19.0045C2.57773 19.7842 3.48902 20.0377 4.39428 19.8474C5.74211 19.5597 6.41039 19.3445 6.22169 18.0888L5.30799 12.0018C5.49226 8.70751 7.19776 5.6063 10.0503 3.69923C13.8685 1.14882 18.8744 1.31217 22.5163 4.108C25.0498 6.05048 26.5207 8.96098 26.6905 12.0163L26.0516 16.2742C24.6266 20.1741 21.0936 22.8754 17.0055 23.2588H14.2833C13.5808 23.2588 13.0151 23.8245 13.0151 24.5262V25.1948C13.0151 25.8969 13.5808 26.4626 14.2833 26.4626H17.7156C18.4177 26.4626 18.981 25.8969 18.981 25.1948V24.8452C22.0637 24.0928 24.7545 22.1982 26.5067 19.5561L27.6063 19.8478C28.501 20.0799 29.4232 19.7842 30.2299 19.0049C31.0346 18.2252 31.6775 16.9703 31.9084 15.4474C32.1414 13.9198 31.9149 12.4424 31.3991 11.3211C30.8813 10.1998 30.11 9.48764 29.2196 9.23215C28.8467 9.12473 28.4419 9.0853 28.0947 9.07484C27.3608 6.56024 25.8501 4.27336 23.6726 2.60367C21.5318 0.960929 18.9854 0.0914811 16.4121 0.00699057Z" fill="#E05B43"/>
<path id="path4" fill-rule="evenodd" clip-rule="evenodd" d="M20.4292 10.9577C21.3365 10.9577 22.0719 11.6931 22.0739 12.6028C22.0719 13.5101 21.3365 14.2476 20.4292 14.2476C19.5195 14.2476 18.782 13.5101 18.782 12.6028C18.782 11.6935 19.5199 10.9577 20.4292 10.9577ZM15.9995 10.9577C16.9087 10.9577 17.6442 11.6931 17.6442 12.6028C17.6442 13.5101 16.9087 14.2476 15.9995 14.2476C15.0894 14.2476 14.3539 13.5101 14.3539 12.6028C14.3539 11.6935 15.0894 10.9577 15.9995 10.9577ZM11.5714 10.9577C12.4786 10.9577 13.2161 11.6931 13.2161 12.6028C13.2161 13.5101 12.4786 14.2476 11.5714 14.2476C10.6621 14.2476 9.9262 13.5101 9.9262 12.6028C9.9262 11.6935 10.6621 10.9577 11.5714 10.9577ZM15.9995 3.89185C11.1755 3.89185 7.28809 7.65127 7.28809 12.6028C7.28809 14.981 8.18731 17.0828 9.65221 18.625L9.13239 20.9553C8.961 21.7222 9.49289 22.238 10.1821 21.8541L12.4577 20.5848C13.5392 21.0543 14.7353 21.3138 15.9995 21.3138C20.8251 21.3138 24.71 17.5568 24.71 12.6028C24.71 7.65127 20.8251 3.89185 15.9995 3.89185Z" fill="#E05B43"/>
</g>
</svg>
