<svg width="53" height="53" viewBox="0 0 53 53" fill="none" xmlns="http://www.w3.org/2000/svg">
<path d="M43.9868 9.77509H40.7285C40.2964 9.77509 39.882 9.94674 39.5765 10.2523C39.271 10.5578 39.0993 10.9722 39.0993 11.4043V13.0334H23.4242L21.4379 6.78721C21.0119 5.5119 20.1056 4.45283 18.9115 3.83482C17.7173 3.21682 16.3294 3.08855 15.0422 3.47725C14.3904 3.66686 13.7833 3.98543 13.2569 4.41408C12.7305 4.84273 12.2956 5.37273 11.9779 5.97264C11.6695 6.55019 11.4803 7.18381 11.4216 7.83588C11.3628 8.48796 11.4356 9.1452 11.6358 9.76858L12.6744 13.0334H4.88697C4.45489 13.0334 4.04051 13.2051 3.73498 13.5106C3.42946 13.8161 3.25781 14.2305 3.25781 14.6626V47.2458C3.25781 47.6778 3.42946 48.0922 3.73498 48.3978C4.04051 48.7033 4.45489 48.8749 4.88697 48.8749H43.9868C45.2826 48.8735 46.5249 48.3581 47.4412 47.4418C48.3575 46.5256 48.8729 45.2832 48.8743 43.9874V14.6626C48.8729 13.3668 48.3575 12.1244 47.4412 11.2082C46.5249 10.2919 45.2826 9.77652 43.9868 9.77509ZM24.3017 26.5479L23.0798 28.7817L20.7175 27.5709L16.2748 13.6017L19.8471 12.5381L24.3017 26.5479ZM14.8574 7.49688C14.9737 7.28064 15.1322 7.08993 15.3235 6.93602C15.5148 6.78211 15.735 6.66814 15.9711 6.60084C16.4402 6.45079 16.9493 6.48959 17.3901 6.709C17.831 6.92841 18.169 7.31113 18.3321 7.77579L18.8593 9.43297L15.287 10.4965L14.7414 8.78131C14.6736 8.57039 14.6489 8.34796 14.6688 8.12729C14.6887 7.90662 14.7529 7.69222 14.8574 7.49688ZM43.9868 45.6166H6.51613V16.2917H13.7102L17.8168 29.2058C17.8821 29.4106 17.9873 29.6006 18.1263 29.7647C18.2653 29.9288 18.4353 30.0638 18.6267 30.1619L23.005 32.4041C23.2344 32.522 23.4886 32.5834 23.7464 32.5833H28.5098C29.1579 32.5833 29.7795 32.8408 30.2378 33.2991C30.6961 33.7574 30.9535 34.3789 30.9535 35.0271C30.9535 35.6752 30.6961 36.2968 30.2378 36.7551C29.7795 37.2133 29.1579 37.4708 28.5098 37.4708H11.4036V40.7291H28.5098C30.0221 40.7291 31.4724 40.1284 32.5417 39.059C33.6111 37.9897 34.2118 36.5393 34.2118 35.0271C34.2118 33.5148 33.6111 32.0644 32.5417 30.9951C31.4724 29.9258 30.0221 29.325 28.5098 29.325H26.4961L27.4948 27.5003C27.601 27.3072 27.6668 27.0945 27.6882 26.8751C27.7095 26.6558 27.686 26.4344 27.619 26.2244L24.4603 16.2917H39.0993V40.7291C39.0993 41.1612 39.271 41.5756 39.5765 41.8811C39.882 42.1866 40.2964 42.3583 40.7285 42.3583H43.9868C44.4189 42.3583 44.8333 42.5299 45.1388 42.8355C45.4443 43.141 45.616 43.5554 45.616 43.9874C45.616 44.4195 45.4443 44.8339 45.1388 45.1394C44.8333 45.445 44.4189 45.6166 43.9868 45.6166ZM45.616 39.3792C45.0928 39.1939 44.5418 39.0995 43.9868 39.1H42.3576V13.0334H43.9868C44.4187 13.0338 44.8329 13.2056 45.1383 13.5111C45.4437 13.8165 45.6155 14.2306 45.616 14.6626V39.3792Z" fill="#FF872E"/>
</svg>
