<svg width="32" height="37" viewBox="0 0 32 37" fill="none" xmlns="http://www.w3.org/2000/svg">
<g id="Group 47604">
<g id="Group">
<g id="Group_2">
<path id="Vector" d="M30.9527 15.0587L16.8069 0.910893C15.9727 0.0786728 14.6231 0.0885195 13.7997 0.909831C12.9717 1.74 12.9717 3.08793 13.7997 3.91703L27.9476 18.0639C28.7764 18.8927 30.1238 18.8927 30.9527 18.0639C31.7838 17.2328 31.7838 15.8897 30.9527 15.0587Z" fill="#D343E0"/>
</g>
</g>
<g id="Group_3">
<g id="Group_4">
<path id="Vector_2" d="M12.7489 5.8728L12.6424 6.40651C11.8925 10.158 10.0698 13.722 7.60449 16.6106L15.301 24.3071C18.1892 21.8423 21.7041 19.9707 25.4558 19.2198L25.9905 19.1133L12.7489 5.8728Z" fill="#D343E0"/>
</g>
</g>
<g id="Group_5">
<g id="Group_6">
<path id="Vector_3" d="M6.19413 18.2048L0.934097 23.4638C-0.308779 24.7067 -0.31395 26.7245 0.934097 27.9725L3.93924 30.9777C5.18212 32.2205 7.19991 32.2256 8.44795 30.9777L13.7075 25.7181L6.19413 18.2048ZM6.94545 26.47C6.5304 26.8851 5.85793 26.8851 5.44288 26.47C5.02783 26.055 5.02783 25.3825 5.44288 24.9674L6.94545 23.4649C7.3605 23.0498 8.03298 23.0498 8.44802 23.4649C8.86307 23.8799 8.86307 24.5524 8.44802 24.9674L6.94545 26.47Z" fill="#D343E0"/>
</g>
</g>
<g id="Group_7">
<g id="Group_8">
<path id="Vector_4" d="M18.1439 31.5431L19.5893 30.0976C20.8375 28.8497 20.8334 26.8319 19.5894 25.59L18.5158 24.5156C17.9224 24.9142 17.3556 25.3473 16.8046 25.8095L18.0868 27.0936C18.5009 27.5055 18.5038 28.176 18.0868 28.5951L16.6175 30.0645L14.4582 27.9724L11.4529 30.9777L16.274 35.6493C17.0967 36.4742 18.4476 36.4788 19.2781 35.6482C20.1072 34.8191 20.1072 33.4712 19.2781 32.642L18.1439 31.5431Z" fill="#D343E0"/>
</g>
</g>
<g id="Group_9">
<g id="Group_10">
<path id="Vector_5" d="M22.4349 0C21.8476 0 21.3723 0.475261 21.3723 1.06259V3.18777C21.3723 3.7751 21.8476 4.25036 22.4349 4.25036C23.0222 4.25036 23.4975 3.7751 23.4975 3.18777V1.06259C23.4975 0.475261 23.0222 0 22.4349 0Z" fill="#D343E0"/>
</g>
</g>
<g id="Group_11">
<g id="Group_12">
<path id="Vector_6" d="M30.9368 8.50073H28.8116C28.2243 8.50073 27.749 8.97599 27.749 9.56332C27.749 10.1507 28.2243 10.6259 28.8116 10.6259H30.9368C31.5241 10.6259 31.9994 10.1507 31.9994 9.56332C31.9994 8.97599 31.5241 8.50073 30.9368 8.50073Z" fill="#D343E0"/>
</g>
</g>
<g id="Group_13">
<g id="Group_14">
<path id="Vector_7" d="M29.5621 2.43629C29.147 2.02124 28.4746 2.02124 28.0595 2.43629L25.9343 4.56146C25.5193 4.97651 25.5193 5.64899 25.9343 6.06404C26.3494 6.47908 27.0219 6.47916 27.4369 6.06404L29.5621 3.93886C29.9771 3.52381 29.9771 2.85133 29.5621 2.43629Z" fill="#D343E0"/>
</g>
</g>
</g>
</svg>
