<svg width="32" height="33" viewBox="0 0 32 33" fill="none" xmlns="http://www.w3.org/2000/svg">
<g id="Digital Marketing">
<path id="Vector" d="M9.94831 0.0140095C9.79527 0.0140095 10.3518 0.0140095 1.39179 0.0140095C1.05092 0.0140095 0.598746 -0.403382 5.5657 3.31836L9.94831 0.0140095Z" fill="#5DDF9A"/>
<path id="Vector_2" d="M11.1304 6.97064C11.1304 0.92542 11.1652 1.25238 11.047 0.946289C5.52348 5.08542 5.89217 4.88368 5.56522 4.88368C5.23826 4.88368 5.56522 5.05064 0.0834783 0.946289C5.18301e-09 1.25933 0 0.960202 0 6.97064C0 7.33963 0.146583 7.69352 0.407504 7.95444C0.668424 8.21536 1.02231 8.36194 1.3913 8.36194H9.73913C10.1081 8.36194 10.462 8.21536 10.7229 7.95444C10.9839 7.69352 11.1304 7.33963 11.1304 6.97064Z" fill="#5DDF9A"/>
<path id="Vector_3" d="M25.7391 5.15498L27.6591 4.18803L25.7391 3.22803V5.15498Z" fill="#5DDF9A"/>
<path id="Vector_4" d="M30.6083 0.013916H22.2604C21.8914 0.013916 21.5376 0.160499 21.2766 0.42142C21.0157 0.68234 20.8691 1.03622 20.8691 1.40522V6.97044C20.8691 7.33944 21.0157 7.69332 21.2766 7.95424C21.5376 8.21516 21.8914 8.36174 22.2604 8.36174H30.6083C30.9773 8.36174 31.3312 8.21516 31.5921 7.95424C31.853 7.69332 31.9996 7.33944 31.9996 6.97044V1.40522C31.9996 1.03622 31.853 0.68234 31.5921 0.42142C31.3312 0.160499 30.9773 0.013916 30.6083 0.013916ZM28.2848 5.43305C26.1978 6.46261 26.1978 6.53913 25.7387 6.53913C25.3697 6.53913 25.0158 6.39255 24.7549 6.13163C24.494 5.87071 24.3474 5.51683 24.3474 5.14783C24.3474 3.45044 24.1526 2.57392 25.0431 2.04522C25.9335 1.51652 26.5109 2.04522 28.3196 2.94261C28.5495 3.0612 28.7419 3.24156 28.875 3.46343C29.0081 3.6853 29.0767 3.93989 29.073 4.1986C29.0694 4.4573 28.9938 4.70988 28.8545 4.92794C28.7153 5.14601 28.518 5.32093 28.2848 5.43305Z" fill="#5DDF9A"/>
<path id="Vector_5" d="M26.4352 27.84C27.2036 27.84 27.8266 27.2171 27.8266 26.4487C27.8266 25.6803 27.2036 25.0574 26.4352 25.0574C25.6669 25.0574 25.0439 25.6803 25.0439 26.4487C25.0439 27.2171 25.6669 27.84 26.4352 27.84Z" fill="#5DDF9A"/>
<path id="Vector_6" d="M31.3526 25.0575C31.2242 25.0581 31.0984 25.0205 30.9914 24.9495C30.8844 24.8785 30.801 24.7772 30.7518 24.6585C30.7025 24.5399 30.6897 24.4093 30.7149 24.2834C30.7402 24.1574 30.8023 24.0419 30.8935 23.9514C31.0137 23.8302 31.0812 23.6664 31.0812 23.4957C31.0812 23.325 31.0137 23.1612 30.8935 23.0401L29.8431 21.9896C29.784 21.9284 29.7132 21.8797 29.6349 21.8465C29.5566 21.8132 29.4725 21.796 29.3874 21.796C29.3023 21.796 29.2182 21.8132 29.1399 21.8465C29.0616 21.8797 28.9908 21.9284 28.9317 21.9896C28.8413 22.0808 28.7257 22.1429 28.5997 22.1682C28.4738 22.1934 28.3432 22.1806 28.2246 22.1314C28.106 22.0821 28.0047 21.9987 27.9336 21.8917C27.8626 21.7847 27.825 21.6589 27.8257 21.5305C27.8257 21.3589 27.7575 21.1944 27.6362 21.073C27.5148 20.9517 27.3503 20.8835 27.1787 20.8835H25.69C25.5184 20.8835 25.3539 20.9517 25.2325 21.073C25.1112 21.1944 25.0431 21.3589 25.0431 21.5305C25.0437 21.6589 25.0061 21.7847 24.9351 21.8917C24.864 21.9987 24.7628 22.0821 24.6441 22.1314C24.5255 22.1806 24.3949 22.1934 24.269 22.1682C24.143 22.1429 24.0275 22.0808 23.937 21.9896C23.8779 21.9284 23.8071 21.8797 23.7289 21.8465C23.6506 21.8132 23.5664 21.796 23.4813 21.796C23.3963 21.796 23.3121 21.8132 23.2338 21.8465C23.1555 21.8797 23.0847 21.9284 23.0257 21.9896L21.9752 23.0401C21.9149 23.0996 21.8669 23.1705 21.8342 23.2488C21.8015 23.327 21.7846 23.4109 21.7846 23.4957C21.7846 23.5805 21.8015 23.6644 21.8342 23.7427C21.8669 23.8209 21.9149 23.8918 21.9752 23.9514C22.0631 24.0431 22.1223 24.1584 22.1457 24.2833C22.1691 24.4081 22.1556 24.5371 22.1069 24.6544C22.0582 24.7717 21.9764 24.8723 21.8715 24.9439C21.7666 25.0154 21.6431 25.0549 21.5161 25.0575C21.3445 25.0575 21.18 25.1256 21.0586 25.2469C20.9373 25.3683 20.8691 25.5328 20.8691 25.7044V27.1931C20.8691 27.3647 20.9373 27.5292 21.0586 27.6506C21.18 27.7719 21.3445 27.8401 21.5161 27.8401C21.6445 27.8394 21.7703 27.877 21.8773 27.948C21.9843 28.0191 22.0677 28.1204 22.117 28.239C22.1662 28.3576 22.179 28.4882 22.1538 28.6142C22.1285 28.7401 22.0664 28.8557 21.9752 28.9462C21.914 29.0052 21.8653 29.076 21.832 29.1543C21.7988 29.2326 21.7816 29.3167 21.7816 29.4018C21.7816 29.4869 21.7988 29.5711 21.832 29.6493C21.8653 29.7276 21.914 29.7984 21.9752 29.8575L23.0257 30.9079C23.0847 30.9691 23.1555 31.0178 23.2338 31.0511C23.3121 31.0843 23.3963 31.1015 23.4813 31.1015C23.5664 31.1015 23.6506 31.0843 23.7289 31.0511C23.8071 31.0178 23.8779 30.9691 23.937 30.9079C24.0275 30.8167 24.143 30.7546 24.269 30.7293C24.3949 30.7041 24.5255 30.7169 24.6441 30.7662C24.7628 30.8154 24.864 30.8988 24.9351 31.0058C25.0061 31.1129 25.0437 31.2386 25.0431 31.367C25.0431 31.5386 25.1112 31.7032 25.2325 31.8245C25.3539 31.9458 25.5184 32.014 25.69 32.014H27.1787C27.3503 32.014 27.5148 31.9458 27.6362 31.8245C27.7575 31.7032 27.8257 31.5386 27.8257 31.367C27.825 31.2386 27.8626 31.1129 27.9336 31.0058C28.0047 30.8988 28.106 30.8154 28.2246 30.7662C28.3432 30.7169 28.4738 30.7041 28.5997 30.7293C28.7257 30.7546 28.8413 30.8167 28.9317 30.9079C28.9908 30.9691 29.0616 31.0178 29.1399 31.0511C29.2182 31.0843 29.3023 31.1015 29.3874 31.1015C29.4725 31.1015 29.5566 31.0843 29.6349 31.0511C29.7132 31.0178 29.784 30.9691 29.8431 30.9079L30.8935 29.8575C30.9547 29.7984 31.0034 29.7276 31.0367 29.6493C31.0699 29.5711 31.0871 29.4869 31.0871 29.4018C31.0871 29.3167 31.0699 29.2326 31.0367 29.1543C31.0034 29.076 30.9547 29.0052 30.8935 28.9462C30.8023 28.8557 30.7402 28.7401 30.7149 28.6142C30.6897 28.4882 30.7025 28.3576 30.7518 28.239C30.801 28.1204 30.8844 28.0191 30.9914 27.948C31.0984 27.877 31.2242 27.8394 31.3526 27.8401C31.5242 27.8401 31.6888 27.7719 31.8101 27.6506C31.9314 27.5292 31.9996 27.3647 31.9996 27.1931V25.7044C31.9996 25.5328 31.9314 25.3683 31.8101 25.2469C31.6888 25.1256 31.5242 25.0575 31.3526 25.0575ZM26.4344 29.2314C25.884 29.2314 25.346 29.0682 24.8884 28.7624C24.4308 28.4567 24.0742 28.0221 23.8636 27.5136C23.653 27.0052 23.5978 26.4457 23.7052 25.9059C23.8126 25.3661 24.0776 24.8703 24.4668 24.4812C24.8559 24.092 25.3517 23.827 25.8915 23.7196C26.4313 23.6123 26.9908 23.6674 27.4992 23.878C28.0077 24.0886 28.4423 24.4452 28.748 24.9028C29.0538 25.3604 29.217 25.8984 29.217 26.4488C29.217 27.1868 28.9238 27.8945 28.402 28.4164C27.8801 28.9382 27.1724 29.2314 26.4344 29.2314Z" fill="#5DDF9A"/>
<path id="Vector_7" d="M4.4665 21.28L2.00389 23.7357C1.61307 24.127 1.39355 24.6574 1.39355 25.2105C1.39355 25.7635 1.61307 26.2939 2.00389 26.6852L3.97259 28.6539C4.36389 29.0448 4.89433 29.2643 5.44737 29.2643C6.00042 29.2643 6.53085 29.0448 6.92215 28.6539L9.38476 26.1983L4.4665 21.28Z" fill="#5DDF9A"/>
<path id="Vector_8" d="M9.87092 27.6731L7.90918 29.6418L9.87092 31.6035C10.1383 31.8225 10.4775 31.9341 10.8226 31.9166C11.1678 31.8992 11.494 31.7539 11.738 31.5092C11.9819 31.2644 12.126 30.9376 12.1422 30.5924C12.1584 30.2472 12.0456 29.9084 11.8257 29.6418L9.87092 27.6731Z" fill="#5DDF9A"/>
<path id="Vector_9" d="M5.27344 20.1183L10.5395 25.3844L19.2213 21.273L9.38474 11.4365L5.27344 20.1183Z" fill="#5DDF9A"/>
<path id="Vector_10" d="M13.5791 13.6695L16.9878 17.0782C17.1144 16.6063 17.1146 16.1094 16.9882 15.6374C16.8618 15.1654 16.6134 14.735 16.2679 14.3895C15.9224 14.044 15.492 13.7955 15.02 13.6691C14.548 13.5428 14.051 13.5429 13.5791 13.6695Z" fill="#5DDF9A"/>
<path id="Vector_11" d="M18.2331 13.12C18.6157 13.12 18.6296 13.0087 20.2018 11.4365C20.3328 11.3065 20.4067 11.1297 20.4074 10.9451C20.408 10.7605 20.3353 10.5832 20.2052 10.4522C20.0752 10.3212 19.8984 10.2472 19.7138 10.2466C19.5292 10.2459 19.3519 10.3186 19.2209 10.4487L17.7461 11.9235C17.646 12.02 17.5771 12.1443 17.5483 12.2803C17.5195 12.4163 17.5321 12.5578 17.5845 12.6866C17.6369 12.8154 17.7267 12.9255 17.8423 13.0028C17.9579 13.08 18.094 13.1209 18.2331 13.12Z" fill="#5DDF9A"/>
<path id="Vector_12" d="M15.9997 11.1444V9.05747C15.9997 8.87297 15.9264 8.69603 15.796 8.56557C15.6655 8.43511 15.4885 8.36182 15.3041 8.36182C15.1196 8.36182 14.9426 8.43511 14.8121 8.56557C14.6817 8.69603 14.6084 8.87297 14.6084 9.05747V11.1444C14.6084 11.3289 14.6817 11.5059 14.8121 11.6363C14.9426 11.7668 15.1196 11.8401 15.3041 11.8401C15.4885 11.8401 15.6655 11.7668 15.796 11.6363C15.9264 11.5059 15.9997 11.3289 15.9997 11.1444Z" fill="#5DDF9A"/>
<path id="Vector_13" d="M21.5648 14.6228H19.4779C19.2934 14.6228 19.1164 14.6961 18.986 14.8266C18.8555 14.957 18.7822 15.134 18.7822 15.3185C18.7822 15.503 18.8555 15.6799 18.986 15.8104C19.1164 15.9408 19.2934 16.0141 19.4779 16.0141H21.5648C21.7493 16.0141 21.9263 15.9408 22.0567 15.8104C22.1872 15.6799 22.2605 15.503 22.2605 15.3185C22.2605 15.134 22.1872 14.957 22.0567 14.8266C21.9263 14.6961 21.7493 14.6228 21.5648 14.6228Z" fill="#5DDF9A"/>
</g>
</svg>
