<svg xmlns="http://www.w3.org/2000/svg" width="27" height="27" viewBox="0 0 27 27" fill="none">
  <path d="M13.0591 5.85046C13.2821 5.85046 13.496 5.93627 13.6537 6.08903C13.8113 6.24178 13.8999 6.44896 13.8999 6.66499L13.8999 17.7344L14.9846 16.6755C15.1429 16.5222 15.3576 16.436 15.5815 16.436C15.8054 16.436 16.0202 16.5222 16.1785 16.6755C16.3368 16.8289 16.4258 17.0369 16.4258 17.2539C16.4258 17.4708 16.3368 17.6788 16.1785 17.8322L13.6561 20.2758C13.5379 20.3888 13.3877 20.4653 13.2246 20.4958C13.0615 20.5262 12.8927 20.5092 12.7396 20.4468C12.5861 20.3857 12.4546 20.2819 12.3619 20.1486C12.2691 20.0152 12.2192 19.8583 12.2183 19.6974L12.2183 6.66499C12.2183 6.44896 12.3069 6.24178 12.4646 6.08903C12.6223 5.93627 12.8361 5.85046 13.0591 5.85046Z" fill="#909090"/>
  <path d="M10.5362 16.4389C10.6469 16.4383 10.7566 16.4588 10.859 16.4994C10.9615 16.5399 11.0546 16.5996 11.1332 16.6751L13.6558 19.1189C13.8141 19.2723 13.9031 19.4803 13.9031 19.6972C13.9031 19.8046 13.8812 19.911 13.8388 20.0102C13.7964 20.1095 13.7342 20.1996 13.6558 20.2756C13.5774 20.3515 13.4843 20.4118 13.3819 20.4529C13.2794 20.494 13.1697 20.5151 13.0588 20.5151C12.8349 20.5151 12.6201 20.429 12.4618 20.2756L9.93921 17.8318C9.86039 17.7561 9.79784 17.666 9.75515 17.5668C9.71246 17.4675 9.69048 17.361 9.69048 17.2535C9.69048 17.1459 9.71246 17.0395 9.75515 16.9402C9.79784 16.841 9.86039 16.7509 9.93921 16.6751C10.0178 16.5996 10.111 16.5399 10.2134 16.4994C10.3158 16.4588 10.4256 16.4383 10.5362 16.4389Z" fill="#909090"/>
</svg>