<svg width="26" height="26" viewBox="0 0 26 26" fill="none" xmlns="http://www.w3.org/2000/svg">
<g clip-path="url(#clip0_74_2074)">
<path d="M15.4375 0H2.97917C1.3325 0 0 1.3325 0 2.97917V19.7708C0 21.4175 1.3325 22.75 2.97917 22.75H11.8083C10.8983 21.3092 10.2917 19.6083 10.2917 17.6583V15.015C10.1292 15.1125 9.945 15.1667 9.75 15.1667H4.33333C3.7375 15.1667 3.25 14.6792 3.25 14.0833C3.25 13.4875 3.7375 13 4.33333 13H9.75C9.95583 13 10.14 13.0542 10.3025 13.1517C10.3458 12.2308 10.7792 11.3858 11.4617 10.8333H4.33333C3.7375 10.8333 3.25 10.3458 3.25 9.75C3.25 9.15417 3.7375 8.66667 4.33333 8.66667H14.0833C14.5383 8.66667 14.9283 8.94833 15.0908 9.34917L18.1783 8.29833C18.2542 8.26583 18.33 8.24417 18.4167 8.23333V2.97917C18.4167 1.3325 17.0842 0 15.4375 0V0ZM8.66667 6.5H4.33333C3.7375 6.5 3.25 6.0125 3.25 5.41667C3.25 4.82083 3.7375 4.33333 4.33333 4.33333H8.66667C9.2625 4.33333 9.75 4.82083 9.75 5.41667C9.75 6.0125 9.2625 6.5 8.66667 6.5Z" fill="#2CA2FB"/>
<path d="M25.2655 12.284L19.578 10.3492C19.3516 10.2723 19.1057 10.2723 18.8793 10.3492L13.1918 12.284C12.753 12.4335 12.4573 12.8463 12.4573 13.3099V17.6628C12.4573 23.152 18.5445 25.804 18.8034 25.9145C18.9399 25.9719 19.0851 26.0001 19.2292 26.0001C19.3733 26.0001 19.5184 25.9719 19.6539 25.9134C19.9128 25.8029 26 23.152 26 17.6628V13.3099C26 12.8452 25.7054 12.4335 25.2655 12.284ZM23.075 16.3584L19.825 20.6918C19.6365 20.9431 19.3494 21.1002 19.0353 21.1219C19.0093 21.124 18.9833 21.1251 18.9584 21.1251C18.6713 21.1251 18.3961 21.0124 18.1924 20.8077L16.0258 18.641C15.6022 18.2174 15.6022 17.5328 16.0258 17.1092C16.4494 16.6856 17.134 16.6856 17.5576 17.1092L18.8414 18.3929L21.3417 15.0584C21.7003 14.5807 22.3795 14.4821 22.8573 14.8418C23.3372 15.2004 23.4347 15.8796 23.075 16.3584Z" fill="#2CA2FB"/>
</g>
<defs>
<clipPath id="clip0_74_2074">
<rect width="26" height="26" fill="white"/>
</clipPath>
</defs>
</svg>
