<svg width="32" height="32" viewBox="0 0 32 32" fill="none" xmlns="http://www.w3.org/2000/svg">
<path d="M10.62 12.54C14.76 10.56 18 7.2 19.86 3C18.66 1.74 17.1 0.84 15.42 0.3L14.52 0C14.46 0.12 14.4 0.300007 14.4 0.420007C12.96 4.50001 10.02 7.8 6.06 9.66C3.3 10.98 1.26 13.38 0.3 16.26L0 17.16C0.12 17.22 0.300003 17.28 0.420003 17.28C1.56 17.7 2.7 18.24 3.78 18.9C5.28 16.2 7.68 13.92 10.62 12.54Z" fill="#FF9900"/>
<path d="M28.0197 12.78C25.7997 16.14 22.7397 18.84 18.9597 20.64C15.8997 22.08 13.5597 24.78 12.4797 28.02L12.1797 29.04C13.3197 30.06 14.6997 30.84 16.1997 31.32L17.0997 31.62C17.1597 31.5 17.2197 31.32 17.2197 31.2C18.6597 27.12 21.5997 23.82 25.5597 21.96C28.3197 20.64 30.4197 18.24 31.3197 15.36L31.6197 14.46C30.3597 14.1 29.1597 13.5 28.0197 12.78Z" fill="#FF9900"/>
<path d="M9.78004 25.9201C11.28 22.3201 14.04 19.3801 17.58 17.7001C20.82 16.1401 23.52 13.7401 25.38 10.8001C24 9.48006 22.86 7.98005 22.02 6.18005C19.8 10.2601 16.32 13.5601 12.06 15.6001C9.60004 16.7401 7.62004 18.7201 6.42004 21.1201C7.74004 22.3801 8.82004 23.9401 9.66004 25.6801C9.66004 25.6801 9.72004 25.8001 9.78004 25.9201Z" fill="#FF9900"/>
</svg>
