<svg width="13" height="20" viewBox="0 0 13 20" fill="none" xmlns="http://www.w3.org/2000/svg">
<path d="M6.5 14.55C8.18519 13.15 9.43704 11.8 10.3037 10.5C11.1704 9.2 11.5556 8 11.5556 6.9C11.5556 5.9 11.363 5.1 11.0259 4.4C10.6889 3.7 10.2556 3.15 9.77407 2.7C9.29259 2.25 8.71482 1.95 8.13704 1.75C7.51111 1.6 6.98148 1.5 6.5 1.5C6.01852 1.5 5.48889 1.6 4.86296 1.8C4.28519 2 3.70741 2.3 3.22593 2.75C2.74444 3.2 2.31111 3.75 1.97407 4.4C1.63704 5.05 1.44444 5.9 1.44444 6.9C1.44444 8 1.87778 9.2 2.74444 10.5C3.56296 11.8 4.81482 13.15 6.5 14.55ZM6.5 16.45C4.28519 14.75 2.64815 13.1 1.58889 11.5C0.52963 9.9 0 8.4 0 6.9C0 5.75 0.192593 4.75 0.577778 3.9C0.962963 3.05 1.49259 2.3 2.11852 1.75C2.74444 1.2 3.46667 0.75 4.23704 0.45C5.00741 0.15 5.72963 0 6.5 0C7.27037 0 7.99259 0.15 8.81111 0.45C9.62963 0.75 10.2556 1.2 10.8815 1.75C11.5074 2.35 12.037 3.05 12.4222 3.9C12.8074 4.75 13 5.75 13 6.9C13 8.4 12.4704 9.95 11.4111 11.5C10.3519 13.05 8.71482 14.75 6.5 16.45ZM6.5 8.5C6.98148 8.5 7.36667 8.35 7.7037 8C8.04074 7.65 8.18519 7.25 8.18519 6.75C8.18519 6.25 8.04074 5.85 7.7037 5.5C7.36667 5.15 6.98148 5 6.5 5C6.01852 5 5.63333 5.15 5.2963 5.5C4.95926 5.85 4.81482 6.25 4.81482 6.75C4.81482 7.25 4.95926 7.65 5.2963 8C5.63333 8.35 6.01852 8.5 6.5 8.5ZM0 20V18.5H13V20H0Z" fill="white"/>
</svg>
