<svg width="23" height="29" viewBox="0 0 23 29" fill="none" xmlns="http://www.w3.org/2000/svg">
<path d="M4.00779 2.61901C7.05482 -0.0571136 11.6042 -0.695629 15.3508 0.764504C20.7172 2.68944 23.8205 9.0605 22.3322 14.502C21.6796 16.7649 20.412 18.7744 19.196 20.7697C18.088 18.8636 16.5246 17.2814 14.5949 16.2062C16.1583 14.5677 17.2147 12.1216 16.1396 9.93376C14.8531 6.47827 9.78259 5.46416 7.38347 8.33747C5.12989 10.5535 5.78249 14.178 7.86236 16.2673C5.93742 17.2016 4.4679 18.7932 3.56646 20.7228C1.42556 18.0607 -0.288099 14.7837 0.0405485 11.2624C-0.13786 7.9384 1.56641 4.78339 4.00779 2.61901Z" fill="#515DEF"/>
<path d="M7.74976 25.9482C8.44931 22.7369 8.89533 19.4786 9.54793 16.2578C10.6559 16.2625 11.7593 16.2625 12.8673 16.2625C13.548 19.4598 14.0363 22.6946 14.6842 25.9013C13.5574 26.9295 12.6607 28.4788 11.2193 28.9999C9.80145 28.4506 8.89533 26.9388 7.74976 25.9482Z" fill="#515DEF"/>
</svg>
