<svg width="32" height="32" viewBox="0 0 32 32" fill="none" xmlns="http://www.w3.org/2000/svg">
<path d="M15.7576 1.66765C7.5565 1.66765 0.908203 8.29049 0.908203 16.4609C0.908203 22.5937 4.62586 27.8291 10.0236 30.1075C10.4032 30.267 10.8134 30.3403 11.2248 30.3221C11.6361 30.3038 12.0383 30.1945 12.4022 30.002C12.7662 29.8095 13.0829 29.5387 13.3295 29.209C13.5761 28.8792 13.7465 28.4989 13.8283 28.0954C13.9544 27.4664 13.8584 26.813 13.5567 26.2469C13.2549 25.6807 12.7661 25.2368 12.1736 24.9908V24.9897C8.82825 23.5928 6.47674 20.3015 6.47674 16.4609C6.47674 11.3537 10.6314 7.21391 15.7587 7.21391C20.886 7.21391 25.0417 11.3537 25.0417 16.4609C25.0417 20.3005 22.6902 23.5928 19.3438 24.9887V24.9908C18.7512 25.237 18.2624 25.6812 17.9608 26.2477C17.6592 26.8141 17.5635 27.4676 17.69 28.0968C17.8166 28.7259 18.1575 29.2916 18.6547 29.6974C19.1518 30.1031 19.7744 30.3238 20.4161 30.3217C20.7851 30.3195 21.1502 30.2464 21.4916 30.1064C26.8894 27.8281 30.6081 22.5915 30.6081 16.4598C30.6081 8.28837 23.9587 1.66553 15.7576 1.66553" fill="#00AA13"/>
<path d="M10.1895 16.4599C10.1895 13.3967 12.682 10.9126 15.759 10.9126C18.835 10.9126 21.3286 13.3956 21.3286 16.4599C21.3286 19.5253 18.8361 22.0083 15.7601 22.0083C12.6831 22.0083 10.1895 19.5242 10.1895 16.461" fill="#00AA13"/>
</svg>
