<svg width="26" height="26" viewBox="0 0 26 26" fill="none" xmlns="http://www.w3.org/2000/svg">
<g clip-path="url(#clip0_74_2185)">
<path d="M21.7654 13.9501H19.8093C20.0087 14.4959 20.1176 15.085 20.1176 15.699V23.0918C20.1176 23.3478 20.0731 23.5935 19.992 23.822H23.2258C24.4338 23.822 25.4165 22.8393 25.4165 21.6313V17.6012C25.4166 15.588 23.7786 13.9501 21.7654 13.9501Z" fill="#FD346E"/>
<path d="M5.42149 15.6988C5.42149 15.0848 5.53042 14.4957 5.72979 13.9498H3.77374C1.76048 13.9498 0.122559 15.5877 0.122559 17.601V21.6311C0.122559 22.8391 1.10528 23.8218 2.31327 23.8218H5.54711C5.46605 23.5932 5.42149 23.3476 5.42149 23.0916V15.6988Z" fill="#FD346E"/>
<path d="M15.0048 12.0477H10.533C8.51975 12.0477 6.88184 13.6856 6.88184 15.6989V23.0917C6.88184 23.4949 7.20877 23.8219 7.61207 23.8219H17.9258C18.3291 23.8219 18.656 23.495 18.656 23.0917V15.6989C18.656 13.6856 17.0181 12.0477 15.0048 12.0477Z" fill="#FD346E"/>
<path d="M12.7675 2.36646C10.3463 2.36646 8.37646 4.33624 8.37646 6.7575C8.37646 8.39982 9.28291 9.83416 10.6216 10.5872C11.2565 10.9444 11.9885 11.1485 12.7675 11.1485C13.5464 11.1485 14.2784 10.9444 14.9134 10.5872C16.2521 9.83416 17.1585 8.39977 17.1585 6.7575C17.1585 4.33629 15.1887 2.36646 12.7675 2.36646Z" fill="#FD346E"/>
<path d="M5.05806 6.45923C3.24729 6.45923 1.77417 7.93235 1.77417 9.74312C1.77417 11.5539 3.24729 13.027 5.05806 13.027C5.51738 13.027 5.95477 12.9319 6.3521 12.7608C7.03906 12.4651 7.60549 11.9415 7.95598 11.2857C8.202 10.8255 8.34195 10.3004 8.34195 9.74312C8.34195 7.9324 6.86883 6.45923 5.05806 6.45923Z" fill="#FD346E"/>
<path d="M20.4799 6.45935C18.6692 6.45935 17.196 7.93247 17.196 9.74324C17.196 10.3006 17.336 10.8257 17.582 11.2859C17.9325 11.9417 18.4989 12.4652 19.1859 12.761C19.5832 12.932 20.0206 13.0271 20.4799 13.0271C22.2907 13.0271 23.7638 11.554 23.7638 9.74324C23.7638 7.93247 22.2907 6.45935 20.4799 6.45935Z" fill="#FD346E"/>
</g>
<defs>
<clipPath id="clip0_74_2185">
<rect width="25.2929" height="25.2929" fill="white" transform="translate(0.123779 0.447754)"/>
</clipPath>
</defs>
</svg>
