<svg width="36" height="37" viewBox="0 0 36 37" fill="none" xmlns="http://www.w3.org/2000/svg">
<path fill-rule="evenodd" clip-rule="evenodd" d="M7.1999 7.69998C7.1999 5.71175 8.81168 4.09998 10.7999 4.09998H25.1999C27.1881 4.09998 28.7999 5.71175 28.7999 7.69998V29.3C29.794 29.3 30.5999 30.1059 30.5999 31.1C30.5999 32.0941 29.794 32.9 28.7999 32.9H22.5999C22.0476 32.9 21.5999 32.4523 21.5999 31.9V27.5C21.5999 26.5059 20.794 25.7 19.7999 25.7H16.1999C15.2058 25.7 14.3999 26.5059 14.3999 27.5V31.9C14.3999 32.4523 13.9522 32.9 13.3999 32.9H7.1999C6.20579 32.9 5.3999 32.0941 5.3999 31.1C5.3999 30.1059 6.20579 29.3 7.1999 29.3V7.69998ZM12.5999 9.49998H16.1999V13.1H12.5999V9.49998ZM16.1999 16.7H12.5999V20.3H16.1999V16.7ZM19.7999 9.49998H23.3999V13.1H19.7999V9.49998ZM23.3999 16.7H19.7999V20.3H23.3999V16.7Z" fill="#515DEF"/>
</svg>
