<svg width="18" height="19" viewBox="0 0 18 19" fill="none" xmlns="http://www.w3.org/2000/svg">
<path d="M16.9 18.5C14.85 18.5 12.85 18 10.85 17C8.85 16 7.05 14.7 5.45 13.1C3.8 11.5 2.5 9.7 1.5 7.7C0.5 5.7 0 3.65 0 1.6C0 1.3 0.0999999 1 0.35 0.8C0.6 0.6 0.8 0.5 1.1 0.5H4.6C4.85 0.5 5.05 0.6 5.2 0.75C5.35 0.9 5.5 1.1 5.55 1.4L6.25 4.55C6.3 4.8 6.3 5 6.25 5.2C6.2 5.4 6.1 5.55 6 5.7L3.5 8.2C4.45 9.75 5.5 11.1 6.65 12.25C7.8 13.4 9.1 14.4 10.6 15.2L13 12.75C13.15 12.55 13.35 12.45 13.55 12.35C13.75 12.25 14 12.25 14.2 12.3L17.2 12.95C17.45 13 17.65 13.1 17.8 13.35C17.9 13.5 18 13.75 18 14V17.4C18 17.7 17.9 18 17.65 18.2C17.45 18.4 17.2 18.5 16.9 18.5ZM2.75 6.8L4.8 4.75L4.2 2H1.5C1.5 2.65 1.6 3.35 1.8 4.15C2 4.95 2.3 5.8 2.75 6.8ZM11.95 15.9C12.65 16.2 13.4 16.45 14.15 16.65C14.95 16.85 15.75 16.95 16.5 17V14.35L13.9 13.85L11.95 15.9Z" fill="white"/>
</svg>
