<svg width="29" height="32" viewBox="0 0 29 32" fill="none" xmlns="http://www.w3.org/2000/svg">
<g clip-path="url(#clip0_1_706)">
<path fill-rule="evenodd" clip-rule="evenodd" d="M13.4884 0.030246C13.381 0.0501894 13.2233 0.0738556 13.138 0.0831625C12.8609 0.112679 12.7622 0.134749 12.6559 0.191921C12.5782 0.233403 12.5596 0.233935 12.5841 0.19458C12.6093 0.153895 12.595 0.153097 12.5229 0.191921C12.471 0.219575 12.4288 0.228882 12.4288 0.212928C12.4288 0.196973 12.399 0.208673 12.3623 0.238987C12.3259 0.269301 12.2955 0.276747 12.2953 0.255474C12.2947 0.234201 12.278 0.24271 12.258 0.274353C12.2378 0.306263 12.1735 0.335247 12.1147 0.339236C12.056 0.343225 11.9815 0.372209 11.9493 0.403587C11.9171 0.434964 11.8523 0.460492 11.8052 0.460492C11.7581 0.460492 11.7198 0.478574 11.7198 0.500645C11.7198 0.536809 11.5183 0.630942 11.3739 0.662585C11.3422 0.669233 11.2625 0.710715 11.1968 0.754325C11.1308 0.7982 11.0487 0.838353 11.0138 0.843937C10.9793 0.849256 10.933 0.88542 10.9115 0.923977C10.8899 0.9628 10.8535 0.982744 10.8306 0.96865C10.8078 0.954291 10.7891 0.963864 10.7891 0.989657C10.7891 1.01572 10.7493 1.03672 10.7003 1.03672C10.6517 1.03672 10.6168 1.06172 10.6229 1.09203C10.6291 1.12261 10.6091 1.14256 10.5785 1.13644C10.548 1.13032 10.5232 1.14655 10.5232 1.17234C10.5232 1.19813 10.5041 1.20744 10.481 1.19335C10.4578 1.17899 10.4179 1.20638 10.3924 1.25397C10.3669 1.30184 10.3057 1.35369 10.2565 1.36938C10.2068 1.38507 10.1805 1.41911 10.1975 1.44623C10.2174 1.47867 10.1996 1.48425 10.144 1.46298C10.098 1.44543 10.0746 1.4449 10.0917 1.46218C10.123 1.49356 10.0624 1.55525 9.73081 1.82888C9.63136 1.91131 9.56276 1.99933 9.57844 2.02485C9.59599 2.05331 9.57871 2.06022 9.53324 2.04294C9.4867 2.02485 9.45958 2.03682 9.45958 2.07485C9.45958 2.10808 9.42953 2.14664 9.3931 2.16073C9.35641 2.17483 9.32663 2.21551 9.32663 2.25141C9.32663 2.28731 9.30349 2.33092 9.2753 2.34847C9.24153 2.36921 9.23621 2.36044 9.26015 2.32188C9.28408 2.28332 9.2785 2.27455 9.24393 2.29608C9.21547 2.31363 9.20218 2.34421 9.21441 2.36389C9.22664 2.38384 9.19048 2.44712 9.1341 2.50509C9.07773 2.56279 8.9461 2.72473 8.84133 2.86487C8.73683 3.00501 8.63525 3.11961 8.61584 3.11961C8.59643 3.11961 8.54644 3.20896 8.50469 3.31825C8.46214 3.42967 8.40896 3.50439 8.38343 3.4887C8.35525 3.47142 8.35152 3.48285 8.37359 3.51848C8.3962 3.55491 8.37918 3.59852 8.32759 3.63602C8.28265 3.66899 8.26351 3.69585 8.28504 3.69585C8.30658 3.69585 8.28531 3.72722 8.23824 3.76552C8.19091 3.80407 8.17416 3.82455 8.20128 3.81125C8.22867 3.79769 8.21883 3.85273 8.17921 3.9357C8.13986 4.01733 8.09465 4.07663 8.0787 4.06733C8.06274 4.05802 8.06008 4.09019 8.07285 4.13886C8.08561 4.18778 8.07524 4.22767 8.05024 4.22767C8.02498 4.22767 7.96887 4.32234 7.92526 4.43827C7.88192 4.55395 7.82954 4.66058 7.80879 4.67493C7.78779 4.68929 7.76758 4.74407 7.76386 4.79672C7.75987 4.84937 7.74152 4.89245 7.7229 4.89245C7.70456 4.89245 7.7003 4.92037 7.71333 4.95441C7.72636 4.98845 7.71573 5.02966 7.68967 5.04562C7.66361 5.06184 7.64233 5.12193 7.64233 5.17937C7.64233 5.23681 7.62079 5.29105 7.59447 5.29983C7.56788 5.30887 7.53863 5.37535 7.52932 5.44768C7.49741 5.69258 7.48332 5.758 7.44928 5.81277C7.43067 5.84282 7.42721 5.86755 7.44157 5.86755C7.45566 5.86755 7.43545 5.92951 7.3961 6.00529C7.35249 6.08985 7.34557 6.13027 7.37855 6.11006C7.41817 6.08533 7.42083 6.09703 7.38785 6.1558C7.36279 6.20556 7.35485 6.26221 7.36525 6.31694C7.37722 6.36268 7.36366 6.39938 7.33467 6.39938C7.30622 6.39938 7.29399 6.41772 7.30808 6.44059C7.32217 6.46319 7.31313 6.49457 7.28814 6.51C7.25942 6.52781 7.25756 6.56504 7.28282 6.61051C7.30702 6.65385 7.30728 6.72512 7.28308 6.78814C7.24665 6.88467 7.19587 7.32475 7.19002 7.59598L7.18762 7.7066L3.81425 7.7167C0.682598 7.72628 0.191191 7.73798 0.254479 7.80126C0.267774 7.81429 0.215655 7.88104 0.139338 7.94938L0 8.07382L0.0159548 8.84311L0.036696 9.86288C0.0393551 10.0009 0.0566394 10.1043 0.0749874 10.0932C0.0933354 10.0817 0.108227 10.1248 0.108227 10.1886C0.108227 10.2649 0.0906763 10.2937 0.0571713 10.2729C0.0220708 10.2514 0.0180821 10.261 0.0446734 10.3035C0.100781 10.3934 0.106631 10.4724 0.0592986 10.5016C0.036696 10.5157 0.0329732 10.5505 0.0513212 10.5795C0.0869535 10.6359 0.094665 10.7377 0.12817 11.5847C0.140402 11.8894 0.161941 12.2883 0.176566 12.4709C0.191191 12.6539 0.212464 13.0825 0.224164 13.4237C0.284527 15.1934 0.303141 15.6212 0.356589 16.4376C0.372278 16.6811 0.393019 17.13 0.40206 17.4347C0.441415 18.7372 0.477048 19.4043 0.529964 19.8388C0.538207 19.9059 0.524114 19.9609 0.498321 19.9609C0.468538 19.9609 0.470666 19.9832 0.503905 20.0237C0.532623 20.058 0.552301 20.1928 0.548046 20.3228C0.543526 20.4528 0.554428 20.8881 0.57251 21.2905C0.590326 21.6925 0.607611 22.1645 0.611068 22.339C0.614259 22.5137 0.628884 22.649 0.643509 22.64C0.682066 22.6163 0.665846 22.8979 0.625161 22.9633C0.606015 22.9939 0.608674 23.0189 0.631011 23.0189C0.653082 23.0189 0.669303 23.1883 0.666909 23.3954C0.66425 23.6028 0.674887 23.7722 0.69031 23.7722C0.705733 23.7722 0.715837 24.0315 0.71238 24.3484C0.709189 24.6652 0.717167 24.9244 0.730462 24.9244C0.743492 24.9244 0.753597 25.1818 0.752533 25.4964C0.751736 25.811 0.763967 26.0601 0.779922 26.0503C0.795877 26.0405 0.80545 26.2021 0.801195 26.4093C0.796941 26.6164 0.80545 26.7858 0.820075 26.7858C0.834434 26.7858 0.849325 26.9804 0.853048 27.2179C0.856505 27.4556 0.872194 27.9393 0.887883 28.2927C0.903306 28.6461 0.918729 29.0301 0.92192 29.1458C0.925377 29.2617 0.944522 29.3564 0.964998 29.3564C0.985207 29.3564 0.992652 29.4252 0.981218 29.5093C0.969784 29.5933 0.972177 29.6736 0.986271 29.6877C1.00455 29.7111 1.01712 29.7384 1.02297 29.7675C1.02882 29.7973 1.04291 29.8616 1.05434 29.9103L1.09024 30.0656C1.09849 30.102 1.1155 30.1419 1.128 30.1541C1.1405 30.1663 1.20006 30.286 1.26043 30.42C1.32105 30.554 1.39046 30.678 1.41519 30.6955C1.43992 30.7128 1.45986 30.7463 1.45986 30.7697C1.45986 30.7934 1.49443 30.8489 1.53644 30.8933C1.78826 31.159 1.82842 31.2116 1.80076 31.2422C1.78401 31.2611 1.79385 31.2627 1.82257 31.2462C1.85128 31.2297 1.90287 31.2563 1.93744 31.3052C1.97174 31.3544 2.01296 31.3813 2.02891 31.3651C2.04514 31.3491 2.05817 31.3651 2.05817 31.4007C2.05817 31.4504 2.6437 31.7961 2.76735 31.8195C2.77959 31.8219 2.81947 31.8355 2.8559 31.8501C3.12501 31.9565 4.06395 31.9674 14.1197 31.9799C19.9857 31.9873 24.7762 31.9783 24.7647 31.9602C24.7536 31.9418 24.8402 31.924 24.9572 31.9203C25.0745 31.9166 25.2003 31.9097 25.237 31.9046C25.2737 31.8998 25.3295 31.8926 25.3614 31.8892C25.3939 31.8855 25.4053 31.8597 25.3875 31.8307C25.3667 31.7972 25.3785 31.7876 25.4199 31.8036C25.4553 31.8171 25.5215 31.8012 25.5667 31.7682C25.6119 31.7352 25.6659 31.7187 25.6866 31.7315C25.7074 31.7443 25.7244 31.7336 25.7244 31.7078C25.7244 31.682 25.7552 31.661 25.793 31.661C25.8308 31.661 25.9113 31.611 25.9722 31.5502C26.0331 31.4893 26.0988 31.4393 26.1182 31.4393C26.2249 31.4393 26.8769 30.7117 26.8769 30.5929C26.8769 30.5628 26.8904 30.5519 26.9072 30.5684C26.9308 30.5923 27.0444 30.4014 27.0742 30.2871C27.0774 30.2748 27.1138 30.2014 27.1553 30.1238C27.1968 30.0459 27.2175 29.948 27.2013 29.906C27.1843 29.8619 27.1898 29.8403 27.2143 29.8555C27.2377 29.8699 27.2582 29.8483 27.26 29.8074C27.2619 29.7664 27.2795 29.6632 27.2989 29.5779C27.3183 29.4928 27.3377 29.2833 27.3419 29.1125C27.3465 28.9421 27.355 28.7924 27.3608 28.7801C27.3667 28.7679 27.3752 28.6086 27.38 28.4257C27.3845 28.243 27.406 28.0654 27.4276 28.0311C27.4544 27.9883 27.4504 27.9787 27.4153 28.0005C27.3874 28.0178 27.3643 28.0109 27.3643 27.9851C27.3643 27.9593 27.385 27.9383 27.4103 27.9383C27.4411 27.9383 27.4403 27.909 27.4082 27.8487C27.3818 27.7995 27.3747 27.7354 27.3925 27.7067C27.4337 27.6402 27.4592 27.1841 27.5135 25.5451C27.522 25.289 27.5337 25.0797 27.5395 25.0797C27.5539 25.0797 27.5744 24.7415 27.5999 24.0825C27.6116 23.7778 27.6241 23.5284 27.6275 23.5284C27.6313 23.5284 27.6411 23.2992 27.6496 23.0189C27.6584 22.7384 27.6802 22.3195 27.6983 22.0882C27.7183 21.8226 27.7327 21.5566 27.7416 21.2905C27.7475 21.083 27.756 20.9137 27.7608 20.9137C27.769 20.9137 27.7804 20.6145 27.8217 19.2961C27.8304 19.0156 27.8506 18.5869 27.8669 18.3431C27.9134 17.636 27.9461 17.0095 27.9666 16.4376C27.9825 15.9839 28.0091 15.6398 28.028 15.6398C28.0408 15.6398 28.0812 14.3127 28.0799 13.9457C28.0791 13.7207 28.0934 13.5274 28.1115 13.5163C28.1298 13.5048 28.1413 13.3447 28.1368 13.1605C28.1312 12.9366 28.145 12.8251 28.1785 12.8249C28.2059 12.8243 28.1987 12.8044 28.162 12.7805C28.1123 12.748 28.1091 12.7281 28.1487 12.7026C28.1836 12.6797 28.1876 12.6459 28.1604 12.6028C28.1104 12.5239 28.1051 12.4579 28.1509 12.4861C28.1692 12.4975 28.1833 12.3938 28.1822 12.2561C28.1812 12.1184 28.1878 11.9896 28.1974 11.97C28.2067 11.9506 28.2152 11.7112 28.2165 11.4381C28.2176 11.1653 28.2288 10.9239 28.2415 10.9018C28.2543 10.8795 28.2665 10.6702 28.2687 10.4365C28.2711 10.2025 28.2889 9.98627 28.3088 9.95595C28.3298 9.92324 28.3242 9.90038 28.295 9.90038C28.2679 9.90038 28.2572 9.88123 28.2718 9.85783C28.3532 9.72594 28.3766 8.15971 28.2984 8.06532C28.2726 8.0342 28.2612 7.9991 28.2732 7.98714C28.2851 7.97517 28.245 7.93874 28.1841 7.90603C28.1232 7.87359 28.0735 7.82254 28.0735 7.79249C28.0735 7.76271 28.0424 7.72654 28.0046 7.71192C27.9578 7.6941 27.9464 7.70314 27.9687 7.74037C27.9948 7.78398 27.9879 7.78398 27.9347 7.7409C27.8828 7.69915 27.1085 7.68905 24.5209 7.69676C22.3162 7.70341 21.1722 7.69144 21.168 7.66246C21.157 7.5222 21.1482 7.38179 21.1417 7.24125C21.1305 7.03411 21.1185 6.86472 21.1148 6.86472C21.1111 6.86472 21.0996 6.79479 21.0893 6.70943C21.0606 6.46984 21.0465 6.40416 21.0161 6.37411C21.001 6.35869 20.9994 6.31801 21.0124 6.2837C21.0183 6.26325 21.0192 6.24169 21.0152 6.2208C21.0111 6.19991 21.0021 6.18028 20.989 6.16351C20.963 6.13213 20.9358 6.02444 20.9287 5.92472C20.9218 5.82474 20.8991 5.75348 20.8789 5.76597C20.8585 5.77847 20.8465 5.74177 20.8523 5.68407C20.8582 5.62663 20.8399 5.52293 20.8114 5.45379C20.7832 5.38465 20.7715 5.30993 20.7853 5.2876C20.7992 5.26526 20.7915 5.24691 20.7683 5.24691C20.726 5.24691 20.65 5.03658 20.6665 4.96531C20.6713 4.94457 20.6505 4.8975 20.6202 4.86107C20.5899 4.82464 20.5606 4.77199 20.5548 4.74407C20.5128 4.53879 20.4915 4.48401 20.4309 4.42312C20.3665 4.35903 20.3442 4.29628 20.3567 4.2165C20.3596 4.19842 20.3407 4.18326 20.3149 4.18326C20.2891 4.18326 20.2804 4.16332 20.2955 4.13912C20.3104 4.11466 20.2985 4.09471 20.2684 4.09471C20.2386 4.09471 20.2269 4.08195 20.2423 4.06653C20.2578 4.05111 20.2314 3.98888 20.1838 3.92852C20.1362 3.86789 20.1081 3.80088 20.1214 3.77934C20.1347 3.7578 20.1245 3.74025 20.0988 3.74025C20.0727 3.74025 20.0562 3.7251 20.0618 3.70701C20.0764 3.65888 19.8647 3.29698 19.8219 3.29698C19.802 3.29698 19.7858 3.2664 19.7858 3.22917C19.7844 3.20898 19.7775 3.18955 19.7658 3.17306C19.754 3.15658 19.7379 3.14369 19.7193 3.13583C19.6826 3.12174 19.6528 3.07335 19.6528 3.02841C19.6528 2.98347 19.6268 2.93082 19.5951 2.91141C19.5635 2.89199 19.4685 2.78722 19.3845 2.67873C19.3023 2.57246 19.2144 2.47082 19.121 2.37426C19.0601 2.31496 19.0455 2.29183 19.0888 2.32268C19.1558 2.37054 19.1633 2.36815 19.1393 2.30619C19.1242 2.26604 19.0984 2.23333 19.0827 2.23333C19.0258 2.23333 18.5892 1.80069 18.5892 1.74432C18.5892 1.71267 18.5772 1.69885 18.5626 1.71347C18.5477 1.7281 18.4863 1.68661 18.4259 1.6212C18.3655 1.55552 18.331 1.53185 18.3493 1.56855C18.3677 1.60524 18.3145 1.5619 18.231 1.47229C18.1477 1.38268 18.0595 1.30822 18.0353 1.30662C18.0108 1.30503 17.9409 1.25637 17.8797 1.19866C17.8186 1.14096 17.7188 1.07821 17.6582 1.05879C17.4989 1.00854 17.3513 0.892067 17.3489 0.815219C17.3474 0.760441 17.3402 0.759377 17.3085 0.809369C17.2766 0.859626 17.2633 0.858297 17.2314 0.801391C17.2104 0.763632 17.178 0.731722 17.1596 0.730393C17.0394 0.721884 16.9097 0.666308 16.9309 0.632005C16.9448 0.609669 16.9394 0.596107 16.9195 0.601957C16.8501 0.622433 16.5948 0.50942 16.5948 0.458099C16.5948 0.429912 16.5648 0.418212 16.5283 0.432305C16.4916 0.446399 16.4619 0.437358 16.4619 0.412362C16.4619 0.3871 16.4398 0.380452 16.4127 0.397205C16.3855 0.413957 16.3507 0.407044 16.335 0.382048C16.3196 0.357052 16.2669 0.329397 16.218 0.320888C16.1694 0.312379 16.1194 0.292435 16.1074 0.276747C16.0952 0.261058 16.0252 0.241912 15.9521 0.234201C15.879 0.226489 15.7976 0.204684 15.771 0.185805C15.7444 0.166925 15.6498 0.146184 15.5607 0.139802C15.4713 0.13342 15.3985 0.115072 15.3982 0.0988513C15.3982 0.0826307 15.3434 0.075717 15.2764 0.0831625C15.2094 0.090608 15.1344 0.0844921 15.1102 0.0693351C15.0017 0.00259109 13.7958 -0.0266593 13.4884 0.030246ZM15.0105 1.9129C15.1017 1.93763 15.1767 1.94907 15.1767 1.9379C15.1767 1.927 15.2014 1.93338 15.232 1.95253C15.2626 1.97167 15.3224 1.98151 15.365 1.9746C15.4075 1.96768 15.4426 1.98311 15.4426 2.0089C15.4426 2.03496 15.4575 2.05144 15.4759 2.04613C15.5378 2.02751 15.93 2.15595 15.93 2.19477C15.93 2.21604 15.9699 2.23333 16.0186 2.23333C16.0675 2.23333 16.1074 2.25434 16.1074 2.2804C16.1074 2.30619 16.1273 2.31496 16.1515 2.29981C16.176 2.28465 16.196 2.29343 16.196 2.31922C16.196 2.34528 16.2252 2.36629 16.2608 2.36629C16.2967 2.36629 16.3941 2.42612 16.4773 2.49924C16.5605 2.57237 16.661 2.6322 16.7004 2.6322C16.7397 2.6322 16.7722 2.65214 16.7722 2.6766C16.7722 2.7008 16.7871 2.71623 16.8054 2.71038C16.8368 2.70054 16.9971 2.82419 17.1785 2.99783C17.2232 3.04037 17.2596 3.06643 17.2596 3.05526C17.2596 3.0441 17.3096 3.08505 17.3705 3.14594C17.4314 3.20683 17.4811 3.27571 17.4811 3.29911C17.4811 3.32224 17.5122 3.34139 17.5502 3.34139C17.5883 3.34139 17.6085 3.3592 17.5949 3.38101C17.5814 3.40281 17.6013 3.43259 17.6393 3.44722C17.6774 3.46158 17.6973 3.49136 17.684 3.51316C17.6704 3.53497 17.701 3.56369 17.7521 3.57698C17.8031 3.59028 17.8337 3.619 17.8204 3.64054C17.8071 3.66208 17.835 3.70781 17.8824 3.74185C17.93 3.77615 17.9693 3.82455 17.9699 3.84954C17.9707 3.8748 18.0305 3.95352 18.1028 4.02451C18.1754 4.09551 18.2347 4.19044 18.2347 4.23512C18.2347 4.27979 18.2546 4.31622 18.2788 4.31622C18.3033 4.31622 18.3233 4.34627 18.3233 4.3827C18.3233 4.41939 18.3432 4.44918 18.3677 4.44918C18.3919 4.44918 18.4118 4.47763 18.4118 4.51246C18.4118 4.5473 18.4403 4.6042 18.4748 4.63877C18.5094 4.67361 18.5602 4.78529 18.5878 4.88713C18.6152 4.98898 18.6548 5.06184 18.6759 5.04881C18.6966 5.03578 18.7027 5.06822 18.6889 5.12087C18.67 5.19267 18.6785 5.20756 18.7227 5.18017C18.7652 5.15384 18.7737 5.16395 18.7538 5.21633C18.7365 5.26074 18.7551 5.30541 18.8016 5.33147C18.8431 5.35461 18.87 5.38013 18.8609 5.38785C18.8413 5.40513 18.9375 5.7665 18.9947 5.89015C19.0176 5.93908 19.0417 6.02896 19.0487 6.08959C19.0556 6.15022 19.0838 6.25392 19.1114 6.31987C19.1391 6.38555 19.154 6.50042 19.1444 6.57461C19.1351 6.6488 19.1481 6.70943 19.1731 6.70943C19.2 6.70943 19.2119 6.78362 19.2021 6.88679C19.1928 6.98438 19.1994 7.06416 19.217 7.06416C19.2348 7.06416 19.2446 7.14233 19.2393 7.2378C19.234 7.33326 19.2452 7.40186 19.2641 7.39016C19.3202 7.3556 19.3029 7.48456 19.2428 7.54838C19.1986 7.59518 19.1986 7.61114 19.2428 7.62736C19.2734 7.63853 19.2984 7.66086 19.2984 7.67708C19.2984 7.69331 17.0049 7.69676 14.2016 7.68453C10.8242 7.6699 9.099 7.67735 9.08757 7.7066C9.07295 7.74436 9.08438 7.49121 9.11469 7.11947C9.11895 7.06469 9.13517 7.01975 9.15033 7.01975C9.16548 7.01975 9.18064 6.95487 9.18383 6.87562C9.19686 6.54775 9.22079 6.37332 9.26068 6.31056C9.28408 6.27413 9.30509 6.2143 9.30748 6.17761C9.31225 6.13191 9.32353 6.08714 9.34099 6.04465C9.35694 6.00822 9.37848 5.92845 9.38912 5.86755C9.39975 5.80666 9.41145 5.75667 9.41517 5.75667C9.4189 5.75667 9.4306 5.70827 9.4415 5.64924C9.4524 5.5902 9.48245 5.51628 9.50851 5.48517C9.53457 5.45379 9.54388 5.40859 9.52899 5.38492C9.51436 5.36125 9.52579 5.32722 9.55425 5.30967C9.58881 5.28839 9.59413 5.2969 9.5702 5.33573C9.5476 5.37216 9.55185 5.38279 9.58137 5.36471C9.60716 5.34849 9.61807 5.29557 9.6053 5.24691C9.59254 5.19825 9.60371 5.15836 9.6303 5.15836C9.65689 5.15836 9.66566 5.12539 9.64998 5.08471C9.6311 5.03525 9.63881 5.02142 9.67311 5.04269C9.70662 5.06343 9.71512 5.0504 9.69811 5.00546C9.68348 4.9677 9.69039 4.93686 9.71353 4.93686C9.75288 4.93686 9.876 4.71429 9.85845 4.67493C9.85393 4.66483 9.88132 4.6393 9.91908 4.6183C9.95684 4.59702 9.97758 4.55368 9.96535 4.52177C9.95312 4.48959 9.97386 4.43801 10.0114 4.40663C10.0491 4.37525 10.08 4.32234 10.08 4.28883C10.08 4.25506 10.1249 4.18273 10.1797 4.12795C10.2345 4.07318 10.2802 4.00829 10.2815 3.98383C10.2826 3.95963 10.3089 3.94501 10.34 3.95165C10.3714 3.95857 10.386 3.9466 10.3727 3.92506C10.3443 3.87933 10.4942 3.66819 10.7049 3.45732C10.7878 3.37409 10.8766 3.27916 10.9024 3.24619C10.9282 3.21322 11.0359 3.11642 11.1417 3.03107C11.2476 2.94571 11.3734 2.8327 11.4212 2.77951C11.4733 2.72208 11.5374 2.69362 11.5808 2.70905C11.6207 2.72341 11.6387 2.71888 11.6212 2.69947C11.5563 2.62794 12.4346 2.13122 12.6181 2.13574C12.6968 2.1376 12.7298 2.12138 12.7104 2.09C12.6915 2.05916 12.7056 2.05065 12.7487 2.06713C12.7691 2.07384 12.7909 2.07501 12.8119 2.07053C12.833 2.06604 12.8524 2.05606 12.8683 2.04161C13.0263 1.88232 14.5598 1.79032 15.0105 1.9129ZM14.8853 11.7123C14.8962 11.7299 14.9863 11.7424 15.0852 11.7397C15.1842 11.7373 15.2653 11.7469 15.2653 11.7612C15.2653 11.7753 15.3001 11.7894 15.3429 11.7921C15.4527 11.799 15.6112 11.8399 15.671 11.8769C15.704 11.8974 15.7101 11.8889 15.6878 11.853C15.6609 11.8094 15.6737 11.808 15.7474 11.8477C15.7992 11.8753 15.8415 11.8859 15.8415 11.8716C15.8415 11.8572 15.8662 11.8609 15.8968 11.8798C15.9518 11.9141 16.0236 11.9354 16.1515 11.9556C16.1882 11.9612 16.2558 11.9873 16.302 12.0133C16.3481 12.0391 16.4236 12.0505 16.4696 12.0386C16.5156 12.0266 16.5876 12.0474 16.6294 12.0846C16.6714 12.1218 16.7554 12.1593 16.8163 12.1678C16.8775 12.1761 16.9535 12.2077 16.9857 12.2383C17.0394 12.2891 17.1391 12.3135 17.2293 12.2978C17.2894 12.2875 17.7914 12.5688 17.7914 12.6127C17.7914 12.635 17.8114 12.6411 17.8358 12.626C17.86 12.6111 17.88 12.6199 17.88 12.6457C17.88 12.6714 17.8951 12.6893 17.9132 12.6853C17.9738 12.6722 18.1911 12.7783 18.2868 12.8677C18.3387 12.9158 18.3958 12.9461 18.4139 12.935C18.432 12.9238 18.4589 12.9456 18.4735 12.9836C18.4879 13.0217 18.5176 13.0416 18.5394 13.0283C18.6543 12.9573 18.7684 13.349 18.6634 13.454C18.622 13.5004 18.5903 13.5546 18.57 13.6133C18.5533 13.6665 18.5158 13.7056 18.4868 13.7C18.4578 13.6944 18.4397 13.717 18.4469 13.75C18.4538 13.7832 18.4238 13.8396 18.3804 13.8752C18.3368 13.9109 18.331 13.9247 18.3677 13.9061C18.4246 13.8768 18.4256 13.8827 18.3735 13.9468C18.3403 13.9877 18.2921 14.0082 18.2663 13.9922C18.2371 13.9742 18.2302 13.9912 18.2477 14.0369C18.2634 14.0776 18.2557 14.1108 18.2307 14.1108C18.2055 14.1108 18.1961 14.1284 18.2094 14.1502C18.244 14.206 18.0419 14.3289 17.9294 14.3206C17.8778 14.3166 17.8358 14.2978 17.8358 14.2786C17.8358 14.2595 17.8207 14.2462 17.8026 14.2488C17.7101 14.2635 17.6585 14.2369 17.6585 14.1746C17.6585 14.1366 17.6393 14.1175 17.6157 14.1318C17.5923 14.1465 17.5324 14.1177 17.4827 14.068C17.4332 14.0183 17.3926 13.9901 17.3926 14.0053C17.3926 14.0204 17.3625 14.0082 17.3261 13.9779C17.2894 13.9476 17.2596 13.938 17.2596 13.9571C17.2596 13.976 17.2221 13.9577 17.1764 13.9162C17.0695 13.8194 16.7722 13.6676 16.69 13.6676C16.6552 13.6676 16.6001 13.6327 16.568 13.5899C16.5241 13.5325 16.5087 13.5285 16.5076 13.5748C16.5065 13.6223 16.4855 13.6184 16.4175 13.5567C16.3688 13.5125 16.3289 13.4894 16.3289 13.5051C16.3289 13.521 16.2542 13.5059 16.1627 13.4716C15.9662 13.3979 15.7442 13.3399 15.6974 13.3501C15.679 13.354 15.6641 13.3341 15.6641 13.3056C15.6641 13.2772 15.6511 13.2671 15.6349 13.283C15.6189 13.299 15.5812 13.2918 15.5511 13.2668C15.5208 13.2418 15.479 13.2256 15.4583 13.2312C15.4373 13.2365 15.3107 13.2237 15.1767 13.203C15.0427 13.182 14.868 13.1642 14.7887 13.1637C14.7095 13.1629 14.6449 13.1477 14.6449 13.1299C14.6449 13.1123 14.58 13.0972 14.5008 13.0964C14.4215 13.0956 14.267 13.0927 14.1572 13.0895C13.9697 13.0844 13.4703 13.1182 13.4703 13.1363C13.4703 13.1408 13.4206 13.1504 13.3595 13.1573C13.2986 13.1642 13.1789 13.1844 13.0935 13.2019C13.0082 13.2195 12.9085 13.2365 12.872 13.2402C12.8521 13.243 12.8329 13.2497 12.8156 13.26C12.7983 13.2703 12.7832 13.2839 12.7713 13.3001C12.7521 13.3296 12.7074 13.3423 12.6715 13.3285C12.6356 13.3147 12.6061 13.3251 12.6061 13.3511C12.6061 13.3774 12.5763 13.3875 12.5399 13.3735C12.531 13.3701 12.5216 13.3686 12.5121 13.369C12.5026 13.3693 12.4933 13.3716 12.4847 13.3756C12.4761 13.3796 12.4684 13.3853 12.4621 13.3923C12.4557 13.3994 12.4508 13.4076 12.4476 13.4165C12.4322 13.457 12.3929 13.4737 12.3514 13.4577C12.3009 13.4383 12.2916 13.4474 12.3181 13.4902C12.3445 13.533 12.3352 13.542 12.2846 13.5229C12.2437 13.5072 12.2041 13.5232 12.1894 13.5617C12.1753 13.5979 12.1384 13.6216 12.107 13.6144C12.0501 13.6011 12.0145 13.6261 11.7645 13.8558C11.6917 13.9228 11.6164 13.9779 11.5973 13.9779C11.5781 13.9779 11.5257 14.0465 11.4805 14.1302C11.4353 14.2143 11.371 14.2932 11.3375 14.3063C11.3198 14.3143 11.3048 14.3271 11.294 14.3432C11.2833 14.3593 11.2772 14.3781 11.2766 14.3975C11.2766 14.4347 11.2566 14.4653 11.2322 14.4653C11.208 14.4653 11.188 14.4914 11.188 14.5235C11.188 14.5554 11.1516 14.6206 11.1069 14.6684C11.0625 14.7163 11.0351 14.7825 11.0463 14.8158C11.059 14.8541 11.0468 14.8644 11.0133 14.8437C10.9811 14.8237 10.9646 14.8344 10.971 14.8708C10.9771 14.9038 10.9561 15.0203 10.9245 15.1301C10.8628 15.3444 10.8346 16.0164 10.8873 16.0164C10.9048 16.0164 10.9064 16.0496 10.891 16.0903C10.8702 16.1437 10.8788 16.1541 10.9216 16.1275C10.9657 16.1004 10.974 16.115 10.9553 16.1868C10.9415 16.2395 10.9506 16.2823 10.9753 16.2823C11 16.2823 11.0085 16.3123 10.9947 16.3487C10.9806 16.3854 10.9896 16.4152 11.0146 16.4152C11.0396 16.4152 11.0492 16.433 11.0359 16.4543C11.0226 16.4759 11.0516 16.5439 11.1 16.6054C11.1484 16.667 11.188 16.7391 11.188 16.7657C11.188 16.7923 11.208 16.8141 11.2322 16.8141C11.2566 16.8141 11.2742 16.8293 11.2712 16.8473C11.2579 16.9319 11.2803 16.9944 11.3159 16.9723C11.3375 16.959 11.3824 16.9816 11.4156 17.0226C11.4675 17.0867 11.4667 17.0922 11.4095 17.0633C11.3728 17.0444 11.3819 17.0606 11.4292 17.0989C11.4763 17.1374 11.5308 17.1688 11.5499 17.1688C11.5688 17.1688 11.6159 17.2292 11.6539 17.3031C11.6922 17.377 11.7427 17.4257 11.7658 17.4113C11.7892 17.397 11.8084 17.4156 11.8084 17.4528C11.8084 17.4978 11.8331 17.5111 11.882 17.4922C11.9254 17.4757 11.9448 17.4821 11.9288 17.5076C11.914 17.5318 11.9605 17.586 12.0323 17.6286C12.1041 17.6709 12.1629 17.69 12.1629 17.6711C12.1629 17.652 12.194 17.681 12.232 17.7349C12.2697 17.7892 12.3397 17.8336 12.387 17.8336C12.4343 17.8336 12.4732 17.8535 12.4732 17.8777C12.4732 17.9022 12.4942 17.9221 12.52 17.9221C12.6112 17.9221 12.9606 18.1024 12.9606 18.1495C12.9606 18.1761 12.9906 18.1859 13.0271 18.1721C13.0638 18.158 13.0935 18.1671 13.0935 18.1921C13.0935 18.217 13.1135 18.2253 13.138 18.2101C13.1624 18.1952 13.1824 18.199 13.1824 18.2186C13.1824 18.2383 13.2366 18.2577 13.3028 18.2615C13.369 18.2654 13.4307 18.2904 13.4395 18.3173C13.4485 18.3439 13.4741 18.3545 13.4964 18.341C13.5185 18.3271 13.5368 18.3335 13.5368 18.3553C13.5368 18.3771 13.5618 18.3971 13.5921 18.3997C13.702 18.409 13.8009 18.4372 13.8309 18.4675C13.8479 18.4843 13.8985 18.4984 13.9431 18.4984C13.9878 18.4984 14.0242 18.5194 14.0242 18.5452C14.0242 18.571 14.0429 18.5808 14.0655 18.5667C14.0767 18.5601 14.09 18.5581 14.1027 18.5612C14.1153 18.5643 14.1262 18.5723 14.133 18.5835C14.1474 18.6069 14.1992 18.618 14.2481 18.6087C14.2968 18.5992 14.3253 18.6106 14.3109 18.6335C14.2968 18.6566 14.3061 18.6781 14.3319 18.6811C14.3577 18.6843 14.3989 18.6917 14.4231 18.6978C14.4476 18.7039 14.5284 18.7114 14.6031 18.7143C14.681 18.7175 14.727 18.7388 14.7114 18.7643C14.6962 18.7885 14.71 18.81 14.7419 18.8119C14.8885 18.8201 15.0201 18.8592 15.0467 18.902C15.0626 18.9278 15.0887 18.9459 15.1046 18.9419C15.1743 18.9249 15.3982 18.9967 15.3982 19.0363C15.3982 19.0603 15.4184 19.0672 15.4429 19.052C15.4673 19.0369 15.5189 19.0557 15.5572 19.0943C15.5955 19.1326 15.6439 19.1533 15.6647 19.1406C15.6854 19.1278 15.7149 19.1379 15.7306 19.1632C15.7463 19.1882 15.7753 19.1988 15.7952 19.1866C15.8152 19.1741 15.8561 19.1937 15.8862 19.2302C15.9162 19.2663 15.9694 19.2961 16.0045 19.2961C16.1053 19.2961 16.4776 19.478 16.5374 19.5567C16.5674 19.5961 16.593 19.6086 16.594 19.5841C16.5954 19.5596 16.6116 19.5642 16.6307 19.5939C16.6496 19.624 16.7132 19.6556 16.7717 19.6647C16.8302 19.6734 16.886 19.704 16.8953 19.7322C16.9046 19.7604 16.9506 19.7835 16.9974 19.7835C17.0442 19.7835 17.0822 19.8035 17.0822 19.8279C17.0822 19.8521 17.1123 19.8721 17.1487 19.8721C17.1854 19.8721 17.2152 19.892 17.2152 19.9165C17.2152 19.941 17.2402 19.9558 17.2708 19.9497C17.3011 19.9436 17.321 19.9636 17.3149 19.9941C17.3088 20.0245 17.3367 20.0494 17.3766 20.0494C17.4165 20.0494 17.4779 20.0843 17.5128 20.1271C17.5545 20.1779 17.5665 20.1816 17.5478 20.138C17.5319 20.1016 17.5662 20.1266 17.6236 20.1936C17.6813 20.2606 17.7523 20.3154 17.7821 20.3154C17.8116 20.3154 17.8358 20.3353 17.8358 20.3598C17.8358 20.384 17.8606 20.3991 17.8911 20.393C17.9217 20.3869 17.9411 20.4082 17.9345 20.4406C17.9276 20.4728 17.9379 20.4895 17.9571 20.4778C17.9959 20.4536 18.1475 20.5526 18.16 20.6105C18.1645 20.631 18.1831 20.6427 18.2015 20.6366C18.2195 20.6305 18.2299 20.6406 18.2243 20.6589C18.2073 20.7142 18.3828 20.8969 18.4956 20.9411C18.5538 20.9639 18.5889 20.9953 18.5735 21.0107C18.5581 21.0261 18.5852 21.0666 18.6338 21.1006C18.6822 21.1346 18.7221 21.1923 18.7221 21.229C18.7221 21.2657 18.7386 21.2854 18.7591 21.2729C18.7793 21.2604 18.8229 21.3189 18.8559 21.4032C18.8888 21.4875 18.9298 21.5564 18.9468 21.5564C18.9638 21.5564 18.9904 21.5912 19.0061 21.6338C19.0218 21.6766 19.0718 21.7808 19.117 21.8654C19.1622 21.9502 19.1893 22.0449 19.1774 22.076C19.1657 22.1071 19.1779 22.1323 19.205 22.1323C19.2319 22.1323 19.2539 22.169 19.2539 22.2137C19.2539 22.2584 19.2686 22.3097 19.2864 22.3275C19.3936 22.4347 19.4566 23.6326 19.3656 23.835C19.3366 23.8996 19.3414 23.9113 19.3858 23.8836C19.4308 23.8557 19.4377 23.8767 19.4156 23.9762C19.4002 24.0469 19.3654 24.2142 19.3388 24.3484C19.3119 24.4825 19.2696 24.617 19.2444 24.6476C19.2194 24.6779 19.2135 24.7029 19.2313 24.7029C19.2494 24.7029 19.2348 24.7479 19.1992 24.8026C19.1635 24.8574 19.1393 24.9372 19.1457 24.98C19.1524 25.0225 19.1295 25.0574 19.0949 25.0574C19.0606 25.0574 19.0324 25.0786 19.0324 25.1044C19.0324 25.1302 19.0524 25.139 19.0766 25.1239C19.101 25.109 19.121 25.1177 19.121 25.1435C19.121 25.1693 19.1032 25.1903 19.0814 25.1903C19.0598 25.1903 19.0303 25.2366 19.0162 25.293C19.0021 25.3496 18.9505 25.4419 18.9016 25.4983C18.8527 25.5546 18.8253 25.6211 18.8407 25.6461C18.8569 25.6722 18.8471 25.6783 18.8176 25.6599C18.7894 25.6426 18.7639 25.6496 18.7609 25.6754C18.7503 25.765 18.7426 25.7892 18.7072 25.8447C18.6878 25.8756 18.6548 25.8905 18.6341 25.8777C18.6134 25.8649 18.5833 25.9139 18.5674 25.9867C18.5514 26.0593 18.5245 26.1144 18.5075 26.1091C18.4905 26.1035 18.4272 26.1468 18.3666 26.2053C18.3062 26.2636 18.2847 26.2955 18.319 26.2758C18.3607 26.2521 18.3708 26.2572 18.3496 26.2915C18.3323 26.3197 18.2887 26.3428 18.2528 26.3428C18.2169 26.3428 18.1743 26.3776 18.1584 26.4202C18.1251 26.509 17.8895 26.7417 17.8332 26.7417C17.8124 26.7417 17.7491 26.7879 17.6925 26.8446C17.6359 26.9012 17.5651 26.9395 17.5354 26.9294C17.5056 26.9196 17.4811 26.9411 17.4811 26.9773C17.4811 27.0366 17.2423 27.1626 17.1599 27.1469C17.1415 27.1432 17.1266 27.1626 17.1266 27.1895C17.1266 27.2166 17.0958 27.2267 17.0578 27.2121C17.02 27.1977 17.0003 27.2038 17.0139 27.2259C17.0277 27.2482 16.9791 27.2793 16.9059 27.2953C16.8328 27.3115 16.7618 27.3429 16.7477 27.3655C16.7339 27.3878 16.6839 27.4064 16.6366 27.4064C16.5892 27.4064 16.5504 27.4264 16.5504 27.4506C16.5504 27.475 16.5294 27.495 16.5036 27.495C16.4778 27.495 16.4688 27.4753 16.4837 27.4511C16.4994 27.4261 16.4815 27.4187 16.4419 27.4338C16.4042 27.4482 16.3733 27.4801 16.3733 27.5046C16.3733 27.5288 16.3475 27.5389 16.3159 27.5269C16.2845 27.5147 16.2217 27.532 16.1765 27.5649C16.1313 27.5982 16.0776 27.6149 16.0574 27.6024C16.0372 27.5899 15.9356 27.6043 15.8314 27.6346C15.7271 27.6649 15.5921 27.692 15.5312 27.6952C15.4703 27.6984 15.3852 27.7168 15.3421 27.7359C15.299 27.7551 15.2243 27.7606 15.1759 27.7479C15.1275 27.7351 15.0991 27.7428 15.1126 27.7652C15.1264 27.7872 15.1163 27.8053 15.0906 27.8053C15.0648 27.8053 15.0435 27.7803 15.043 27.7497C15.0424 27.7114 15.0323 27.7093 15.0097 27.7434C14.9751 27.7955 13.5528 27.8183 13.4703 27.7683C13.4161 27.7354 13.368 27.7274 13.0162 27.6955C12.8638 27.6814 12.6843 27.6492 12.6173 27.6237C12.5503 27.5982 12.4905 27.5788 12.4843 27.5806C12.4168 27.5995 12.2514 27.5753 12.2676 27.549C12.2793 27.5301 12.2357 27.5179 12.1706 27.5218C12.1054 27.5258 12.0068 27.5006 11.9512 27.4657C11.8956 27.4312 11.8323 27.4139 11.8103 27.4275C11.7882 27.441 11.7576 27.432 11.7424 27.407C11.727 27.3822 11.6656 27.362 11.6058 27.362C11.5459 27.362 11.4624 27.3434 11.4199 27.3208C11.3305 27.2732 11.1811 27.2163 11.1308 27.2107C11.1117 27.2086 11.0771 27.177 11.054 27.1405C11.0309 27.1038 11.0117 27.0964 11.0114 27.1238C11.0107 27.182 10.1714 26.773 10.1177 26.6879C10.0978 26.6566 10.081 26.6465 10.0808 26.6656C10.0797 26.7143 9.88823 26.6087 9.84516 26.5356C9.82548 26.5026 9.77017 26.4757 9.72177 26.4757C9.67338 26.4757 9.62312 26.4476 9.61009 26.4133C9.59679 26.3787 9.5367 26.3383 9.4766 26.3231C9.4165 26.3082 9.37821 26.2779 9.39177 26.2564C9.40507 26.2346 9.30828 26.1551 9.17638 26.0795C9.04449 26.0043 8.92536 25.9128 8.91127 25.8766C8.9034 25.8581 8.89052 25.8422 8.87408 25.8306C8.85764 25.819 8.83829 25.8122 8.8182 25.811C8.75225 25.811 8.73151 25.7402 8.74853 25.5754C8.75704 25.4935 8.94637 25.1893 9.01551 25.1467C9.03625 25.1337 9.06018 25.0949 9.06816 25.06C9.07614 25.0255 9.13756 24.938 9.20457 24.8656C9.27158 24.7933 9.32663 24.7072 9.32663 24.6742C9.32663 24.6412 9.34763 24.6144 9.37343 24.6144C9.39922 24.6144 9.40959 24.5965 9.39603 24.575C9.38273 24.5535 9.42634 24.5253 9.49309 24.5125C9.55983 24.4998 9.62711 24.5101 9.6428 24.5354C9.65848 24.5606 9.69332 24.5676 9.72044 24.5508C9.74863 24.5335 9.76964 24.55 9.76964 24.5894C9.76964 24.6274 9.79968 24.6585 9.83611 24.6585C9.85375 24.6585 9.87066 24.6655 9.88312 24.678C9.89559 24.6904 9.90259 24.7074 9.90259 24.725C9.90259 24.7617 9.94009 24.7915 9.98582 24.7915C10.0316 24.7915 10.0956 24.8236 10.1281 24.8627C10.1605 24.9018 10.2329 24.9513 10.289 24.9725C10.3451 24.9938 10.3858 25.0366 10.3794 25.0675C10.3733 25.0986 10.3959 25.118 10.4299 25.1108C10.4639 25.1034 10.5517 25.1534 10.6251 25.2214C10.6985 25.2898 10.7442 25.3206 10.7269 25.29C10.6815 25.2108 10.716 25.2217 10.8333 25.3233C10.8897 25.3722 10.9612 25.4121 10.9928 25.4121C11.0242 25.4121 11.0798 25.4546 11.1162 25.5065C11.1564 25.5642 11.2093 25.5905 11.2516 25.5743C11.2896 25.5597 11.321 25.5682 11.321 25.5929C11.321 25.6413 11.5816 25.7495 11.6491 25.7296C11.6714 25.7229 11.7034 25.74 11.7201 25.7671C11.7369 25.7945 11.7887 25.824 11.835 25.8325C11.8812 25.8413 11.9241 25.8524 11.9302 25.8572C11.9464 25.8652 11.964 25.8701 11.982 25.8719C12.0098 25.8777 12.0354 25.8911 12.056 25.9107C12.074 25.9288 12.1145 25.9439 12.1453 25.9439C12.1761 25.9439 12.2575 25.9665 12.3261 25.9944C12.395 26.0224 12.4809 26.0498 12.5176 26.0553C12.554 26.0612 12.6737 26.0894 12.7835 26.1181C12.893 26.1471 13.0265 26.1777 13.08 26.1862C13.1334 26.1944 13.1996 26.2152 13.227 26.2322C13.3645 26.3173 14.9993 26.3229 14.9993 26.2383C14.9993 26.2173 15.031 26.2125 15.0698 26.2274C15.1086 26.2423 15.1634 26.2399 15.1916 26.2223C15.22 26.2045 15.2631 26.1856 15.2873 26.1803L15.4285 26.1489C15.4817 26.137 15.5665 26.1053 15.6171 26.0782C15.6766 26.0466 15.7085 26.0452 15.7085 26.0745C15.7085 26.0992 15.7787 26.0801 15.8649 26.0317C15.951 25.9833 16.0508 25.9439 16.0864 25.9439C16.1223 25.9439 16.1515 25.924 16.1515 25.8995C16.1515 25.8751 16.1901 25.8551 16.2372 25.8551C16.2842 25.8551 16.3526 25.8253 16.389 25.7886C16.4257 25.7522 16.4847 25.7222 16.5204 25.7222C16.5563 25.7222 16.5969 25.6924 16.6108 25.6557C16.6187 25.6371 16.6316 25.621 16.6481 25.6093C16.6645 25.5975 16.6839 25.5906 16.7041 25.5892C16.7416 25.5892 16.7722 25.5682 16.7722 25.5424C16.7722 25.5166 16.7873 25.5049 16.806 25.5163C16.8538 25.5459 16.9698 25.452 17.0344 25.3307C17.0647 25.2738 17.0985 25.2363 17.1096 25.2472C17.1453 25.2831 17.3926 25.0241 17.3926 24.951C17.3926 24.9122 17.417 24.8851 17.4468 24.8912C17.4769 24.8973 17.5088 24.8526 17.5178 24.7915C17.5271 24.7306 17.5492 24.6707 17.567 24.6585C17.6274 24.6176 17.8217 24.1474 17.8106 24.0703C17.8042 24.0283 17.8146 23.9937 17.8329 23.9937C17.8515 23.9937 17.8587 23.9124 17.8486 23.8132C17.8388 23.7137 17.8515 23.6071 17.8771 23.5762C17.9026 23.5454 17.909 23.5055 17.8909 23.4874C17.8728 23.4693 17.8531 23.3914 17.8475 23.3143C17.8417 23.2372 17.8249 23.1141 17.81 23.041C17.7951 22.9678 17.78 22.8631 17.776 22.8083C17.7723 22.7535 17.7563 22.7086 17.7406 22.7086C17.7249 22.7086 17.6577 22.6038 17.5909 22.4759C17.5242 22.348 17.4473 22.2286 17.4202 22.2108C17.3848 22.1876 17.3867 22.1778 17.4258 22.1775C17.4593 22.177 17.4463 22.1416 17.3926 22.0882C17.3439 22.0393 17.2846 21.9994 17.2609 21.9994C17.2373 21.9994 17.2296 21.9696 17.2436 21.9329C17.2575 21.8965 17.2471 21.8664 17.22 21.8664C17.1599 21.8664 16.9724 21.684 16.9695 21.6229C16.9684 21.5984 16.9434 21.5835 16.9142 21.5896C16.8847 21.5957 16.8607 21.5774 16.8607 21.5489C16.8607 21.5205 16.8477 21.5101 16.8317 21.5261C16.8158 21.542 16.7459 21.4955 16.6762 21.4229C16.6068 21.35 16.5337 21.2905 16.5142 21.2905C16.4946 21.2905 16.4353 21.25 16.3824 21.2008C16.3294 21.1517 16.281 21.1136 16.2744 21.1163C16.2374 21.132 16.0186 21.003 16.0186 20.9655C16.0186 20.9411 16.0061 20.9339 15.9904 20.9493C15.975 20.9647 15.9045 20.9363 15.8338 20.886C15.763 20.8358 15.6811 20.7905 15.6514 20.7855C15.6218 20.7804 15.5479 20.7485 15.4868 20.7142C15.4259 20.6799 15.3562 20.6491 15.3317 20.6454C15.3053 20.6415 15.2794 20.6353 15.2541 20.6267C15.2322 20.6188 15.21 20.6116 15.1876 20.6052C15.0718 20.5696 14.9594 20.5238 14.8518 20.4683C14.7826 20.4329 14.688 20.4039 14.6412 20.4039C14.5944 20.4039 14.5561 20.3818 14.5561 20.355C14.5561 20.3279 14.5276 20.317 14.4925 20.3303C14.4577 20.3438 14.4226 20.3356 14.4149 20.3124C14.4005 20.2699 14.2888 20.2359 14.0484 20.201C13.9764 20.1906 13.8977 20.1622 13.8735 20.138C13.8493 20.1135 13.7934 20.0939 13.7496 20.0939C13.7057 20.0939 13.6698 20.0744 13.6698 20.0508C13.6698 20.0271 13.6437 20.0178 13.6118 20.03C13.5799 20.0423 13.5094 20.0138 13.4552 19.9667C13.3943 19.9141 13.3206 19.8907 13.2624 19.9059C13.1986 19.9226 13.1786 19.9141 13.1999 19.8795C13.2193 19.8479 13.2079 19.8378 13.1691 19.8527C13.1348 19.866 13.0111 19.8258 12.8941 19.7636C12.7771 19.7014 12.6553 19.6506 12.6229 19.6506C12.5907 19.6506 12.4492 19.5966 12.3083 19.5309C12.1674 19.465 12.0381 19.4102 12.0211 19.4089C12.0041 19.4078 11.9653 19.382 11.9347 19.3514C11.9041 19.3208 11.8531 19.2961 11.8212 19.2961C11.7512 19.2961 11.5776 19.2028 11.5321 19.1408C11.5143 19.1166 11.4991 19.1132 11.4989 19.1336C11.4981 19.173 11.0431 18.8555 11.0181 18.7983C11.0099 18.7794 10.975 18.7643 10.9404 18.7643C10.9059 18.7643 10.8777 18.735 10.8777 18.6991C10.8777 18.6587 10.8519 18.6438 10.8094 18.6603C10.766 18.6768 10.7458 18.6643 10.754 18.6255C10.7612 18.5922 10.7413 18.5699 10.7102 18.5763C10.6791 18.5827 10.6421 18.5577 10.628 18.5212C10.6139 18.4846 10.5847 18.4654 10.5629 18.479C10.541 18.4925 10.5232 18.4713 10.5232 18.4319C10.5232 18.3923 10.5062 18.3705 10.4855 18.3832C10.4647 18.3963 10.4217 18.3574 10.3895 18.2974C10.3573 18.2373 10.3129 18.1881 10.2908 18.1881C10.2384 18.1881 10.1244 18.0729 10.1244 18.02C10.1244 17.9971 10.0693 17.9224 10.0023 17.8541C9.9353 17.7855 9.90765 17.7453 9.94062 17.7647C9.9805 17.7884 9.97519 17.7615 9.92466 17.6842C9.88292 17.6206 9.82601 17.5813 9.79809 17.5972C9.77043 17.6132 9.76219 17.61 9.78001 17.5903C9.79809 17.5703 9.77815 17.5259 9.73587 17.4911C9.68827 17.4523 9.68428 17.4406 9.72549 17.4608C9.76192 17.4786 9.74358 17.4401 9.68454 17.3754C9.62525 17.3106 9.5936 17.2574 9.61381 17.2574C9.63402 17.2574 9.61647 17.2196 9.57472 17.1736C9.52984 17.12 9.50132 17.0547 9.49256 16.9853C9.48883 16.9276 9.47048 16.8697 9.45134 16.8564C9.41757 16.8324 9.36704 16.5769 9.35774 16.382C9.35534 16.3272 9.33992 16.2823 9.32397 16.2823C9.28009 16.2823 9.28381 15.1732 9.32796 15.0192C9.34896 14.9461 9.37582 14.8264 9.38805 14.7533C9.40002 14.6801 9.45932 14.5211 9.51968 14.3999C9.58004 14.2786 9.61993 14.1637 9.60849 14.1451C9.59679 14.1263 9.6077 14.1108 9.63269 14.1108C9.65769 14.1108 9.66726 14.0821 9.65396 14.047C9.6404 14.0119 9.67098 13.9476 9.72177 13.9042C9.77256 13.8606 9.81404 13.7885 9.81404 13.7436C9.81404 13.6989 9.83399 13.6747 9.85845 13.6896C9.88265 13.7048 9.90259 13.6859 9.90259 13.6476C9.90259 13.6093 9.94248 13.5439 9.99141 13.5022C10.0401 13.4604 10.08 13.3995 10.08 13.3671C10.08 13.3344 10.0975 13.3187 10.119 13.332C10.1406 13.3453 10.1829 13.2969 10.2129 13.2243C10.243 13.152 10.2802 13.099 10.2956 13.107C10.311 13.115 10.3586 13.0849 10.4012 13.04C10.444 12.9951 10.465 12.9584 10.4482 12.9584C10.4312 12.9584 10.456 12.9302 10.503 12.8959C10.5501 12.8616 10.6043 12.843 10.6235 12.8549C10.6426 12.8666 10.6527 12.8509 10.6461 12.8198C10.6394 12.7884 10.6588 12.7621 10.6894 12.7611C10.7197 12.76 10.7397 12.7446 10.7336 12.7268C10.7187 12.6829 11.0239 12.4752 11.066 12.5005C11.0843 12.5116 11.0992 12.4994 11.0992 12.4736C11.0992 12.4478 11.1277 12.4265 11.162 12.4265C11.1965 12.4265 11.2316 12.4111 11.2396 12.392C11.2659 12.33 11.5925 12.159 11.6345 12.1851C11.6571 12.1989 11.6754 12.1915 11.6754 12.1686C11.6754 12.1285 11.839 12.0572 11.9081 12.0673C11.9265 12.07 11.9413 12.0535 11.9413 12.0306C11.9413 12.0077 11.9762 11.9896 12.019 11.9904C12.136 11.9926 12.2982 11.9479 12.3599 11.8968C12.3902 11.8718 12.4248 11.8612 12.437 11.8734C12.4492 11.8857 12.5471 11.8633 12.6545 11.8237C12.762 11.7841 12.9247 11.7546 13.0162 11.7586C13.1074 11.7623 13.1824 11.7482 13.1824 11.7272C13.1824 11.6809 14.8568 11.6663 14.8853 11.7123Z" fill="#EC4C34"/>
</g>
<defs>
<clipPath id="clip0_1_706">
<rect width="28.3404" height="32" fill="white"/>
</clipPath>
</defs>
</svg>
