<svg width="53" height="53" viewBox="0 0 53 53" fill="none" xmlns="http://www.w3.org/2000/svg">
<path d="M46.2969 22.0539C45.2886 22.0567 44.3058 22.3714 43.4833 22.9547C42.6608 23.538 42.0388 24.3615 41.7027 25.3122H39.6663C39.3026 22.4448 37.9962 19.7797 35.9524 17.7359C33.9087 15.6922 31.2435 14.3857 28.3762 14.0221V11.9857C29.4632 11.6014 30.3793 10.8451 30.9627 9.85069C31.546 8.85623 31.7591 7.68756 31.5641 6.55123C31.3691 5.4149 30.7787 4.38407 29.8973 3.64095C29.0158 2.89782 27.9 2.49023 26.747 2.49023C25.5941 2.49023 24.4783 2.89782 23.5968 3.64095C22.7153 4.38407 22.1249 5.4149 21.9299 6.55123C21.735 7.68756 21.948 8.85623 22.5314 9.85069C23.1147 10.8451 24.0309 11.6014 25.1179 11.9857V14.0221C22.2505 14.3857 19.5854 15.6922 17.5416 17.7359C15.4978 19.7797 14.1914 22.4448 13.8278 25.3122H11.7913C11.407 24.2252 10.6508 23.3091 9.65635 22.7257C8.6619 22.1423 7.49323 21.9293 6.35689 22.1243C5.22056 22.3192 4.18974 22.9096 3.44661 23.7911C2.70348 24.6726 2.2959 25.7884 2.2959 26.9414C2.2959 28.0943 2.70348 29.2101 3.44661 30.0916C4.18974 30.9731 5.22056 31.5635 6.35689 31.7584C7.49323 31.9534 8.6619 31.7404 9.65635 31.157C10.6508 30.5737 11.407 29.6575 11.7913 28.5705H13.8278C14.0724 30.4947 14.7434 32.34 15.7919 33.9719C16.8403 35.6038 18.2398 36.9811 19.8883 38.0033L15.7991 42.1088C14.8885 41.6936 13.8745 41.5601 12.8874 41.7256C11.9003 41.891 10.9853 42.3479 10.2599 43.0374C9.62299 43.6687 9.17202 44.4631 8.95639 45.3336C8.74077 46.2041 8.7688 47.1171 9.03742 47.9727C9.30604 48.8283 9.80489 49.5936 10.4794 50.1846C11.1538 50.7756 11.9779 51.1697 12.8614 51.3237C13.7448 51.4776 14.6537 51.3856 15.4883 51.0575C16.3229 50.7295 17.0512 50.1781 17.5934 49.4638C18.1357 48.7495 18.4709 47.8998 18.5624 47.0077C18.654 46.1156 18.4983 45.2155 18.1125 44.4059L23 39.5185C24.2205 39.85 25.4826 40.0036 26.747 39.9746C28.0163 39.9734 29.2787 39.7868 30.4941 39.4207L35.4793 44.4059C35.0935 45.2155 34.9378 46.1156 35.0294 47.0077C35.1209 47.8998 35.4561 48.7495 35.9983 49.4638C36.5406 50.1781 37.2689 50.7295 38.1035 51.0575C38.9381 51.3856 39.8469 51.4776 40.7304 51.3237C41.6139 51.1697 42.438 50.7756 43.1124 50.1846C43.7869 49.5936 44.2858 48.8283 44.5544 47.9727C44.823 47.1171 44.851 46.2041 44.6354 45.3336C44.4198 44.4631 43.9688 43.6687 43.3319 43.0374C42.6166 42.3258 41.6987 41.8529 40.704 41.6837C39.7094 41.5145 38.6867 41.6573 37.7764 42.0925L33.6547 37.9708C35.2901 36.9466 36.6777 35.5721 37.7173 33.9465C38.7569 32.3209 39.4226 30.4847 39.6663 28.5705H41.7027C42.0016 29.4158 42.5272 30.1627 43.2221 30.7293C43.917 31.2959 44.7544 31.6604 45.6426 31.7829C46.5308 31.9055 47.4356 31.7814 48.258 31.4241C49.0803 31.0669 49.7886 30.4903 50.3052 29.7575C50.8219 29.0247 51.1269 28.1639 51.1871 27.2693C51.2473 26.3747 51.0602 25.4808 50.6464 24.6854C50.2325 23.89 49.6078 23.2238 48.8407 22.7597C48.0736 22.2955 47.1935 22.0514 46.2969 22.0539ZM14.8704 47.648C14.719 47.8007 14.5388 47.9219 14.3403 48.0046C14.1418 48.0873 13.9288 48.1299 13.7137 48.1299C13.4987 48.1299 13.2857 48.0873 13.0872 48.0046C12.8887 47.9219 12.7085 47.8007 12.557 47.648C12.4043 47.4965 12.2831 47.3163 12.2004 47.1178C12.1177 46.9193 12.0751 46.7063 12.0751 46.4913C12.0751 46.2762 12.1177 46.0633 12.2004 45.8647C12.2831 45.6662 12.4043 45.486 12.557 45.3346C12.7085 45.1819 12.8887 45.0607 13.0872 44.978C13.2857 44.8952 13.4987 44.8527 13.7137 44.8527C13.9288 44.8527 14.1418 44.8952 14.3403 44.978C14.5388 45.0607 14.719 45.1819 14.8704 45.3346C15.0231 45.486 15.1443 45.6662 15.2271 45.8647C15.3098 46.0633 15.3523 46.2762 15.3523 46.4913C15.3523 46.7063 15.3098 46.9193 15.2271 47.1178C15.1443 47.3163 15.0231 47.4965 14.8704 47.648ZM39.878 44.8621C40.2548 44.8643 40.6192 44.997 40.9091 45.2377C41.1991 45.4783 41.3966 45.812 41.4682 46.182C41.5397 46.5519 41.4808 46.9352 41.3014 47.2666C41.1221 47.598 40.8335 47.857 40.4847 47.9994C40.1358 48.1419 39.7484 48.1591 39.3884 48.048C39.0283 47.9369 38.7179 47.7045 38.51 47.3902C38.302 47.076 38.2095 46.6994 38.248 46.3246C38.2866 45.9498 38.4538 45.5999 38.7213 45.3346C38.8736 45.1836 39.0541 45.0641 39.2526 44.983C39.4511 44.902 39.6636 44.8609 39.878 44.8621ZM26.747 5.76228C27.0692 5.76228 27.3842 5.85783 27.6521 6.03685C27.92 6.21586 28.1289 6.4703 28.2522 6.76799C28.3755 7.06568 28.4077 7.39325 28.3449 7.70928C28.282 8.0253 28.1269 8.31559 27.899 8.54343C27.6712 8.77127 27.3809 8.92644 27.0649 8.9893C26.7488 9.05216 26.4213 9.0199 26.1236 8.89659C25.8259 8.77328 25.5714 8.56447 25.3924 8.29655C25.2134 8.02864 25.1179 7.71366 25.1179 7.39144C25.1179 6.95936 25.2895 6.54498 25.595 6.23945C25.9006 5.93393 26.3149 5.76228 26.747 5.76228ZM26.747 17.1664C29.3395 17.1664 31.8258 18.1963 33.659 20.0294C35.4921 21.8626 36.522 24.3489 36.522 26.9414C36.5222 27.7721 36.4126 28.5993 36.1961 29.4014C35.0254 28.1699 33.6252 27.1793 32.0744 26.4852C32.4038 25.6218 32.5185 24.6912 32.4086 23.7737C32.2986 22.8561 31.9672 21.979 31.443 21.2179C30.9189 20.4569 30.2175 19.8346 29.3995 19.4047C28.5814 18.9748 27.6712 18.7502 26.747 18.7502C25.8229 18.7502 24.9126 18.9748 24.0945 19.4047C23.2765 19.8346 22.5752 20.4569 22.051 21.2179C21.5268 21.979 21.1955 22.8561 21.0855 23.7737C20.9755 24.6912 21.0902 25.6218 21.4197 26.4852C19.8688 27.1793 18.4686 28.1699 17.2979 29.4014C17.0814 28.5993 16.9719 27.7721 16.9721 26.9414C16.9721 24.3489 18.0019 21.8626 19.8351 20.0294C21.6682 18.1963 24.1545 17.1664 26.747 17.1664ZM29.1908 24.4976C29.1908 24.9809 29.0474 25.4534 28.7789 25.8553C28.5104 26.2572 28.1287 26.5704 27.6822 26.7553C27.2357 26.9403 26.7443 26.9887 26.2703 26.8944C25.7962 26.8001 25.3608 26.5674 25.019 26.2256C24.6773 25.8838 24.4445 25.4484 24.3502 24.9744C24.2559 24.5003 24.3043 24.009 24.4893 23.5624C24.6743 23.1159 24.9875 22.7342 25.3894 22.4657C25.7912 22.1972 26.2637 22.0539 26.747 22.0539C27.3951 22.0539 28.0167 22.3113 28.475 22.7696C28.9333 23.2279 29.1908 23.8495 29.1908 24.4976ZM7.19711 28.5705C6.87489 28.5705 6.55991 28.475 6.29199 28.296C6.02408 28.1169 5.81527 27.8625 5.69196 27.5648C5.56865 27.2671 5.53639 26.9395 5.59925 26.6235C5.66211 26.3075 5.81727 26.0172 6.04512 25.7894C6.27296 25.5615 6.56325 25.4064 6.87927 25.3435C7.1953 25.2806 7.52287 25.3129 7.82056 25.4362C8.11825 25.5595 8.37269 25.7683 8.5517 26.0362C8.73072 26.3042 8.82627 26.6191 8.82627 26.9414C8.82627 27.3734 8.65462 27.7878 8.3491 28.0933C8.04357 28.3989 7.62919 28.5705 7.19711 28.5705ZM23.4887 36.1624C23.2916 36.035 23.0693 35.9516 22.837 35.918C21.2068 35.2252 19.798 34.0981 18.7641 32.6597C19.9421 31.0348 21.5916 29.8119 23.4887 29.157C24.443 29.8272 25.5808 30.1868 26.747 30.1868C27.9132 30.1868 29.051 29.8272 30.0053 29.157C31.8704 29.822 33.4896 31.0378 34.6484 32.6434C33.5932 34.0877 32.1619 35.2147 30.5104 35.9017C30.3751 35.9361 30.2439 35.9853 30.1194 36.0484C29.0435 36.4685 27.9018 36.6946 26.747 36.7163C25.6368 36.7242 24.5339 36.5367 23.4887 36.1624ZM46.2969 28.5705C45.9747 28.5705 45.6597 28.475 45.3918 28.296C45.1239 28.1169 44.9151 27.8625 44.7918 27.5648C44.6685 27.2671 44.6362 26.9395 44.6991 26.6235C44.7619 26.3075 44.9171 26.0172 45.1449 25.7894C45.3728 25.5615 45.6631 25.4064 45.9791 25.3435C46.2951 25.2806 46.6227 25.3129 46.9204 25.4362C47.2181 25.5595 47.4725 25.7683 47.6515 26.0362C47.8305 26.3042 47.9261 26.6191 47.9261 26.9414C47.9261 27.3734 47.7544 27.7878 47.4489 28.0933C47.1434 28.3989 46.729 28.5705 46.2969 28.5705Z" fill="#1BCFF6"/>
</svg>
