<svg width="34" height="34" viewBox="0 0 34 34" fill="none" xmlns="http://www.w3.org/2000/svg">
<path fill-rule="evenodd" clip-rule="evenodd" d="M23.6788 16.9298C27.3849 16.9194 30.3886 13.9093 30.3886 10.2007C30.3886 6.55573 27.3745 3.54163 23.6594 3.54163C19.9443 3.54163 17.0003 6.55573 16.9302 10.2007C16.9302 6.55573 13.9161 3.54163 10.2011 3.54163C6.5561 3.54163 3.54199 6.55573 3.54199 10.2708C3.54199 13.9859 6.5561 16.9299 10.2011 17C6.486 17 3.54199 20.0141 3.54199 23.7291C3.54199 27.4442 6.5561 30.4583 10.2712 30.4583C13.7661 30.4583 16.6407 27.7908 16.9691 24.3817C17.3298 27.7572 20.1889 30.3881 23.6598 30.3881C27.3749 30.3881 30.389 27.374 30.389 23.659C30.389 19.9502 27.3851 16.9401 23.6788 16.9298ZM16.9619 23.0068C17.2895 19.6038 20.1541 16.9397 23.6404 16.9298C19.9343 16.9198 17.0003 13.9796 17.0003 10.3409C17.0003 13.9859 13.9862 17 10.3413 17C13.7465 17.0654 16.6012 19.6393 16.9619 23.0068Z" fill="#0062FF"/>
</svg>
