<svg width="32" height="32" viewBox="0 0 32 32" fill="none" xmlns="http://www.w3.org/2000/svg">
<g clip-path="url(#clip0_74_2123)">
<path d="M19.0545 13.8113H12.9396C12.3902 13.8113 11.9448 14.2567 11.9448 14.8061V31.6683C11.9448 31.8515 12.0933 32 12.2764 32H19.7177C19.9008 32 20.0493 31.8515 20.0493 31.6683V14.8061C20.0493 14.2567 19.6039 13.8113 19.0545 13.8113Z" fill="#0DCA95"/>
<path d="M29.1534 19.7969H23.0393C22.4898 19.7969 22.0444 20.2423 22.0444 20.7917V31.6684C22.0444 31.8515 22.1929 32 22.376 32H29.8167C29.9998 32 30.1483 31.8515 30.1483 31.6684V20.7917C30.1483 20.2423 29.7028 19.7969 29.1534 19.7969Z" fill="#0DCA95"/>
<path d="M8.96057 24.1914H2.84639C2.29698 24.1914 1.85156 24.6368 1.85156 25.1862V31.6685C1.85156 31.8516 2.00006 32.0001 2.18317 32.0001H9.62378C9.8069 32.0001 9.95539 31.8516 9.95539 31.6685V25.1862C9.95539 24.6368 9.50997 24.1914 8.96057 24.1914Z" fill="#0DCA95"/>
<path d="M20.3591 3.06155L18.1627 2.44443C18.0091 2.40125 17.8762 2.30416 17.7884 2.17099L16.5537 0.298198C16.2916 -0.0993994 15.7084 -0.0993994 15.4463 0.298198L14.2117 2.17099C14.1239 2.30423 13.991 2.40132 13.8374 2.44443L11.641 3.06155C11.1798 3.19114 11.0039 3.75176 11.3084 4.12157L12.7226 5.83936C12.8279 5.96723 12.8815 6.12985 12.8729 6.29526L12.7545 8.5793C12.7295 9.06199 13.2127 9.40845 13.6618 9.22992L15.7551 8.39785C15.9124 8.33531 16.0877 8.33531 16.245 8.39785L18.3383 9.22992C18.7875 9.40845 19.2706 9.06199 19.2456 8.5793L19.1272 6.29526C19.1187 6.12985 19.1722 5.96723 19.2775 5.83936L20.6917 4.12157C20.9962 3.75176 20.8203 3.19108 20.3591 3.06155Z" fill="#0DCA95"/>
<path d="M5.6682 9.63289L8.0506 8.50675C8.54735 8.27198 8.75965 7.67893 8.52487 7.18225C8.29002 6.6855 7.69698 6.47314 7.20036 6.70798L4.81796 7.83412C4.32121 8.0689 4.10892 8.66195 4.34369 9.15863C4.57867 9.65571 5.17192 9.86754 5.6682 9.63289Z" fill="#0DCA95"/>
<path d="M24.8017 3.53793L27.1356 2.4279C27.6318 2.19193 27.8427 1.59842 27.6067 1.10227C27.3707 0.606185 26.7773 0.395018 26.2811 0.631122L23.9472 1.74115C23.451 1.97712 23.2401 2.57063 23.476 3.06678C23.7122 3.5634 24.3061 3.7737 24.8017 3.53793Z" fill="#0DCA95"/>
<path d="M4.81796 2.42887L7.20036 3.55501C7.33771 3.61994 7.48236 3.65065 7.62482 3.65065C7.99761 3.65065 8.35502 3.44014 8.52487 3.08075C8.75971 2.58406 8.54735 1.99102 8.0506 1.75624L5.6682 0.630099C5.17145 0.395255 4.57847 0.607616 4.34369 1.10436C4.10892 1.60105 4.32121 2.19409 4.81796 2.42887Z" fill="#0DCA95"/>
<path d="M23.9467 8.52188L26.2806 9.63184C26.7769 9.86788 27.3704 9.65677 27.6063 9.16069C27.8423 8.66454 27.6313 8.07096 27.1351 7.83506L24.8012 6.7251C24.3049 6.48906 23.7115 6.7001 23.4756 7.19625C23.2396 7.6924 23.4506 8.28598 23.9467 8.52188Z" fill="#0DCA95"/>
</g>
<defs>
<clipPath id="clip0_74_2123">
<rect width="32" height="32" fill="white"/>
</clipPath>
</defs>
</svg>
