<svg width="32" height="35" viewBox="0 0 32 35" fill="none" xmlns="http://www.w3.org/2000/svg">
<path d="M10.7211 27.8005C9.70845 28.7249 8.38686 29.2374 7.01575 29.2374C5.64464 29.2375 4.32304 28.725 3.3104 27.8006C1.60986 28.7835 -1.00039 31.6601 0.39676 33.739C0.610717 34.0377 0.8927 34.2812 1.2194 34.4494C1.5461 34.6175 1.90814 34.7055 2.27558 34.7061H11.7498C12.1172 34.7055 12.4793 34.6175 12.806 34.4494C13.1327 34.2812 13.4147 34.0377 13.6286 33.739C15.0242 31.6632 12.4128 28.7838 10.7211 27.8005Z" fill="white"/>
<path d="M11.251 23.7781C11.0583 18.1554 2.9541 18.1684 2.76855 23.778C2.95508 29.3632 11.0463 29.4128 11.251 23.7781Z" fill="white"/>
<path d="M20.75 23.778C20.953 29.4094 29.0442 29.3668 29.2324 23.778C29.0486 18.1708 20.9438 18.153 20.75 23.778Z" fill="white"/>
<path d="M28.6966 27.8005C27.685 28.727 26.363 29.2409 24.9912 29.2409C23.6195 29.241 22.2975 28.7271 21.2859 27.8006C19.5957 28.7835 16.9728 31.6611 18.3723 33.739C18.5862 34.0377 18.8682 34.2812 19.1949 34.4494C19.5216 34.6175 19.8837 34.7055 20.2511 34.7061H29.7254C30.0928 34.7055 30.4548 34.6175 30.7815 34.4494C31.1082 34.2812 31.3902 34.0377 31.6042 33.739C32.9993 31.6608 30.3931 28.7852 28.6966 27.8005Z" fill="white"/>
<path d="M13.9553 11.2175H18.4583L22.45 14.4146C22.5409 14.4852 22.6497 14.5291 22.7641 14.5413C22.8786 14.5535 22.9942 14.5335 23.0979 14.4835C23.2016 14.4336 23.2893 14.3558 23.3511 14.2587C23.413 14.1616 23.4465 14.0493 23.448 13.9342V11.2175H25.0558C25.5128 11.2162 25.9508 11.034 26.2739 10.7109C26.5971 10.3877 26.7793 9.94975 26.7806 9.49271V1.72486C26.7803 1.26749 26.5985 0.82894 26.2751 0.505529C25.9517 0.182119 25.5132 0.000297167 25.0558 0H13.9553C13.4979 0.000297169 13.0594 0.182119 12.736 0.50553C12.4126 0.82894 12.2308 1.26749 12.2305 1.72486V9.49271C12.2318 9.94975 12.414 10.3877 12.7371 10.7109C13.0603 11.034 13.4982 11.2162 13.9553 11.2175Z" fill="white"/>
<path d="M10.9979 9.49271V5.60571H6.77211C6.3605 5.60607 5.96586 5.76973 5.67481 6.06078C5.38376 6.35182 5.22009 6.74646 5.21973 7.15807V13.694C5.2201 14.1055 5.38377 14.5002 5.67481 14.7912C5.96586 15.0822 6.36049 15.2459 6.77208 15.2463H8.02256V17.4393C8.02498 17.5546 8.05936 17.6671 8.12189 17.764C8.18442 17.861 8.27264 17.9387 8.37673 17.9886C8.48081 18.0384 8.59668 18.0583 8.71143 18.0462C8.82618 18.034 8.93531 17.9903 9.02666 17.9198L12.3593 15.2463H16.1169C16.5285 15.2459 16.9232 15.0822 17.2142 14.7912C17.5053 14.5002 17.6689 14.1055 17.6693 13.694V12.4496H13.9548C13.1706 12.4494 12.4186 12.1378 11.8642 11.5833C11.3097 11.0288 10.9981 10.2769 10.9979 9.49271Z" fill="white"/>
</svg>
