<svg width="106" height="106" viewBox="0 0 106 106" fill="none" xmlns="http://www.w3.org/2000/svg">
<circle cx="53" cy="53" r="53" fill="white"/>
<path d="M39.7496 70.6668C39.3591 70.6668 38.9846 70.5117 38.7085 70.2356C38.4325 69.9595 38.2773 69.5851 38.2773 69.1946V36.8057C38.2774 36.5499 38.3441 36.2985 38.4709 36.0763C38.5977 35.8541 38.7802 35.6688 39.0004 35.5386C39.2207 35.4084 39.471 35.3379 39.7268 35.3339C39.9826 35.33 40.235 35.3927 40.4592 35.516L69.9036 51.7105C70.1344 51.8376 70.3269 52.0243 70.461 52.2511C70.5951 52.478 70.6658 52.7367 70.6658 53.0002C70.6658 53.2637 70.5951 53.5223 70.461 53.7492C70.3269 53.976 70.1344 54.1627 69.9036 54.2898L40.4592 70.4843C40.2418 70.6039 39.9977 70.6667 39.7496 70.6668Z" fill="black"/>
</svg>
