<svg width="53" height="53" viewBox="0 0 53 53" fill="none" xmlns="http://www.w3.org/2000/svg">
<path fill-rule="evenodd" clip-rule="evenodd" d="M47.5779 10.6497C47.5779 7.9518 45.3883 5.76221 42.6904 5.76221H10.1072C7.40932 5.76221 5.21973 7.9518 5.21973 10.6497V43.2329C5.21973 45.9308 7.40932 48.1204 10.1072 48.1204H42.6904C45.3883 48.1204 47.5779 45.9308 47.5779 43.2329V10.6497ZM44.3196 10.6497V43.2329C44.3196 44.1322 43.5897 44.862 42.6904 44.862H10.1072C9.20791 44.862 8.47805 44.1322 8.47805 43.2329V10.6497C8.47805 9.75039 9.20791 9.02053 10.1072 9.02053H42.6904C43.5897 9.02053 44.3196 9.75039 44.3196 10.6497Z" fill="#515DEF"/>
<path fill-rule="evenodd" clip-rule="evenodd" d="M24.7696 26.1266C24.7696 23.8784 22.945 22.0537 20.6967 22.0537H15.8093C13.561 22.0537 11.7364 23.8784 11.7364 26.1266V37.5308C11.7364 39.779 13.561 41.6037 15.8093 41.6037H20.6967C22.945 41.6037 24.7696 39.779 24.7696 37.5308V26.1266ZM21.5113 26.1266V37.5308C21.5113 37.9804 21.1464 38.3453 20.6967 38.3453H15.8093C15.3596 38.3453 14.9947 37.9804 14.9947 37.5308V26.1266C14.9947 25.677 15.3596 25.3121 15.8093 25.3121H20.6967C21.1464 25.3121 21.5113 25.677 21.5113 26.1266ZM29.6571 26.9412H39.4321C40.3314 26.9412 41.0612 26.2114 41.0612 25.3121C41.0612 24.4128 40.3314 23.6829 39.4321 23.6829H29.6571C28.7578 23.6829 28.028 24.4128 28.028 25.3121C28.028 26.2114 28.7578 26.9412 29.6571 26.9412ZM29.6571 33.4579H39.4321C40.3314 33.4579 41.0612 32.728 41.0612 31.8287C41.0612 30.9294 40.3314 30.1995 39.4321 30.1995H29.6571C28.7578 30.1995 28.028 30.9294 28.028 31.8287C28.028 32.728 28.7578 33.4579 29.6571 33.4579ZM29.6571 39.9745H39.4321C40.3314 39.9745 41.0612 39.2446 41.0612 38.3453C41.0612 37.446 40.3314 36.7162 39.4321 36.7162H29.6571C28.7578 36.7162 28.028 37.446 28.028 38.3453C28.028 39.2446 28.7578 39.9745 29.6571 39.9745ZM6.84889 18.7954H45.9487C46.848 18.7954 47.5779 18.0656 47.5779 17.1663C47.5779 16.267 46.848 15.5371 45.9487 15.5371H6.84889C5.94959 15.5371 5.21973 16.267 5.21973 17.1663C5.21973 18.0656 5.94959 18.7954 6.84889 18.7954Z" fill="#515DEF"/>
<path d="M13.3655 13.908C14.2652 13.908 14.9946 13.1786 14.9946 12.2788C14.9946 11.3791 14.2652 10.6497 13.3655 10.6497C12.4657 10.6497 11.7363 11.3791 11.7363 12.2788C11.7363 13.1786 12.4657 13.908 13.3655 13.908Z" fill="#515DEF"/>
<path d="M18.2522 13.908C19.152 13.908 19.8814 13.1786 19.8814 12.2788C19.8814 11.3791 19.152 10.6497 18.2522 10.6497C17.3524 10.6497 16.623 11.3791 16.623 12.2788C16.623 13.1786 17.3524 13.908 18.2522 13.908Z" fill="#515DEF"/>
<path d="M23.1399 13.908C24.0397 13.908 24.7691 13.1786 24.7691 12.2788C24.7691 11.3791 24.0397 10.6497 23.1399 10.6497C22.2401 10.6497 21.5107 11.3791 21.5107 12.2788C21.5107 13.1786 22.2401 13.908 23.1399 13.908Z" fill="#515DEF"/>
</svg>
