<svg width="31" height="30" viewBox="0 0 31 30" fill="none" xmlns="http://www.w3.org/2000/svg">
<path d="M20.3595 9.66922C19.3867 5.15074 17.3119 2.29211 15.3929 2.29211C13.4739 2.29211 11.3991 5.15074 10.4263 9.66922H20.3595Z" fill="#1EE2CF"/>
<path d="M9.86011 15.202C9.85988 16.4356 9.94213 17.6679 10.1063 18.8905H20.6796C20.8437 17.6679 20.926 16.4356 20.9258 15.202C20.926 13.9683 20.8437 12.7361 20.6796 11.5134H10.1063C9.94213 12.7361 9.85988 13.9683 9.86011 15.202Z" fill="#1EE2CF"/>
<path d="M10.4263 20.7349C11.3991 25.2533 13.4739 28.112 15.3929 28.112C17.3119 28.112 19.3867 25.2533 20.3595 20.7349H10.4263Z" fill="#1EE2CF"/>
<path d="M22.2488 9.66921H28.0583C27.1854 7.6827 25.8591 5.92841 24.1858 4.54704C22.5125 3.16567 20.5387 2.19567 18.4229 1.71484C20.1721 3.25389 21.5443 6.09961 22.2488 9.66921Z" fill="#1EE2CF"/>
<path d="M28.7207 11.5134H22.5424C22.6945 12.7371 22.7706 13.9689 22.7702 15.202C22.7703 16.435 22.6939 17.6669 22.5415 18.8905H28.7198C29.3923 16.4775 29.3923 13.9265 28.7198 11.5134H28.7207Z" fill="#1EE2CF"/>
<path d="M18.4229 28.6892C20.5391 28.2087 22.5132 27.2388 24.1868 25.8574C25.8605 24.476 27.187 22.7216 28.0601 20.7349H22.2506C21.5443 24.3045 20.1721 27.1502 18.4229 28.6892Z" fill="#1EE2CF"/>
<path d="M8.5375 20.7349H2.72803C3.6011 22.7216 4.92767 24.476 6.60132 25.8574C8.27496 27.2388 10.2491 28.2087 12.3653 28.6892C10.6142 27.1502 9.24201 24.3045 8.5375 20.7349Z" fill="#1EE2CF"/>
<path d="M12.3631 1.71484C10.2469 2.19541 8.27276 3.16529 6.59912 4.54667C4.92547 5.92806 3.5989 7.68249 2.72583 9.66921H8.5353C9.24166 6.09961 10.6138 3.25389 12.3631 1.71484Z" fill="#1EE2CF"/>
<path d="M8.01479 15.202C8.01467 13.9689 8.09105 12.737 8.24348 11.5134H2.06516C1.39267 13.9265 1.39267 16.4775 2.06516 18.8905H8.24348C8.09105 17.6669 8.01467 16.435 8.01479 15.202Z" fill="#1EE2CF"/>
</svg>
