<svg width="29" height="28" viewBox="0 0 29 28" fill="none" xmlns="http://www.w3.org/2000/svg">
<path d="M28.6441 10.3618C28.4567 9.78564 27.9457 9.37772 27.3434 9.32323L19.1294 8.57751L15.8832 0.97746C15.6436 0.419093 15.0982 0.0587158 14.4912 0.0587158C13.8842 0.0587158 13.3387 0.419093 13.1005 0.97746L9.8543 8.57751L1.63901 9.32323C1.03679 9.3788 0.526835 9.78672 0.338397 10.3618C0.151044 10.938 0.324068 11.5699 0.779533 11.9694L6.98865 17.4139L5.1579 25.4772C5.02395 26.0701 5.25407 26.6832 5.74601 27.0388C6.01043 27.2309 6.32109 27.3269 6.63284 27.3269C6.90073 27.3269 7.16884 27.2557 7.4083 27.1124L14.4912 22.8773L21.5728 27.1124C22.0924 27.4228 22.7456 27.3944 23.2364 27.0388C23.7284 26.6832 23.9585 26.0701 23.8246 25.4772L21.9938 17.4139L28.2029 11.9694C28.6582 11.5699 28.8314 10.9393 28.6441 10.3618Z" fill="#FCDC02"/>
</svg>
