<svg width="141" height="44" viewBox="0 0 141 44" fill="none" xmlns="http://www.w3.org/2000/svg">
<g clip-path="url(#clip0_74_2140)">
<path d="M83.4356 19.1805C85.595 19.1805 87.64 20.478 88.0715 23.2813H78.4545C78.8569 20.8214 80.7293 19.1805 83.4356 19.1805ZM87.7641 27.4287C87.0297 28.5532 85.61 29.4181 83.6663 29.4181C80.9882 29.4181 78.9432 27.9763 78.4545 25.4307H90.5198C90.578 25.0659 90.6074 24.6972 90.6079 24.3279C90.6079 20.369 87.7897 16.8616 83.4374 16.8616C78.9459 16.8616 75.8934 20.1138 75.8934 24.3002C75.8934 28.5385 78.9758 31.7388 83.61 31.7388C86.4898 31.7388 88.6783 30.4656 89.9447 28.5385L87.7641 27.4287Z" fill="#006BFF"/>
<path d="M74.7078 10.7247H72.2032V31.3703H74.7078V10.7247Z" fill="#006BFF"/>
<path d="M104.545 22.6879V31.3695H102.039V22.8289C102.039 20.51 100.687 19.2091 98.469 19.2091C96.1652 19.2091 94.2937 20.5385 94.2937 23.8755V31.3695H91.7882V17.2309H94.2937V19.267C95.3593 17.5985 96.9428 16.8633 98.9613 16.8633C102.33 16.8633 104.547 19.069 104.547 22.6897" fill="#006BFF"/>
<path d="M118.358 24.2993C118.358 21.4147 116.141 19.2367 113.233 19.2367C110.353 19.2367 108.136 21.4147 108.136 24.2993C108.136 27.1839 110.353 29.3619 113.233 29.3619C116.139 29.3619 118.358 27.1839 118.358 24.2993ZM120.863 10.7247V31.3703H118.358V28.9372C117.206 30.6671 115.364 31.7379 112.916 31.7379C108.913 31.7379 105.631 28.4848 105.631 24.2993C105.631 20.1138 108.913 16.8607 112.916 16.8607C115.363 16.8607 117.206 17.935 118.358 19.6606V10.7247H120.863Z" fill="#006BFF"/>
<path d="M125.388 10.7247H122.883V31.3703H125.388V10.7247Z" fill="#006BFF"/>
<path d="M67.7383 24.2994C67.7383 21.4147 65.5217 19.2368 62.6128 19.2368C59.7338 19.2368 57.5163 21.4147 57.5163 24.2994C57.5163 27.184 59.7338 29.3619 62.6128 29.3619C65.519 29.3619 67.7383 27.184 67.7383 24.2994ZM70.2439 17.231V31.3695H67.7383V28.9372C66.5864 30.6672 64.744 31.738 62.2966 31.738C58.2939 31.738 55.0107 28.4849 55.0107 24.2994C55.0107 20.1138 58.2939 16.8608 62.2966 16.8608C64.744 16.8608 66.5864 17.935 67.7383 19.6606V17.231H70.2439Z" fill="#006BFF"/>
<path d="M51.2952 28.6483C50.0128 29.1131 48.6286 29.2385 47.2813 29.0122C45.934 28.7858 44.6709 28.2155 43.6188 27.3585C42.5667 26.5015 41.7625 25.3879 41.2868 24.1294C40.811 22.8708 40.6806 21.5116 40.9084 20.1879C41.1363 18.8642 41.7145 17.6226 42.585 16.5876C43.4555 15.5526 44.5878 14.7606 45.8683 14.2909C47.1488 13.8212 48.5325 13.6904 49.8807 13.9116C51.2289 14.1328 52.4942 14.6982 53.5497 15.5512C53.9898 15.9079 54.388 16.3117 54.7369 16.7552L56.9042 15.1983C55.6415 13.5771 53.9172 12.3606 51.9498 11.7029C49.9824 11.0453 47.8605 10.9761 45.853 11.5042C43.8456 12.0323 42.0429 13.1338 40.6736 14.6692C39.3042 16.2046 38.4299 18.1047 38.1613 20.1287C37.8927 22.1527 38.242 24.2095 39.1649 26.0383C40.0878 27.8671 41.5427 29.3857 43.3453 30.4015C45.1479 31.4172 47.217 31.8846 49.2903 31.7441C51.3636 31.6037 53.3478 30.8619 54.9914 29.6127L53.5488 27.3725C52.8749 27.9177 52.1133 28.3488 51.2952 28.6483Z" fill="#006BFF"/>
<path d="M137.479 17.2309V25.2559C137.479 27.8508 135.943 29.4942 133.597 29.4942C131.25 29.4942 129.552 27.8508 129.552 25.2559V17.2309H127.017V25.0155C127.017 29.0946 129.605 31.7431 133.597 31.7431C137.049 31.7431 137.588 29.598 137.588 29.5444V32.4316C137.588 35.292 136.32 36.9077 133.678 36.9077C132.733 36.9123 131.82 36.5797 131.107 35.9718C130.394 35.3639 129.931 34.5223 129.803 33.6036L127.537 34.3821C127.861 35.743 128.645 36.9561 129.761 37.8235C130.877 38.691 132.259 39.1618 133.682 39.1592C137.781 39.1592 140.023 36.5099 140.023 32.4316V17.2309H137.479Z" fill="#006BFF"/>
<path d="M21.1821 25.4681C20.2195 26.3071 19.0174 27.3511 16.8377 27.3511H15.5343C13.957 27.3511 12.5224 26.788 11.4955 25.7673C10.4924 24.77 9.94023 23.4051 9.94023 21.9235V20.1719C9.94023 18.6903 10.4924 17.3254 11.4955 16.3281C12.5224 15.3074 13.957 14.7452 15.5343 14.7452H16.8377C19.0201 14.7452 20.2195 15.7884 21.1821 16.6274C22.1817 17.4923 23.0439 18.2483 25.3433 18.2483C25.694 18.2482 26.0442 18.2207 26.3905 18.1661L26.3825 18.1462C26.2448 17.8103 26.0832 17.4843 25.899 17.1706L24.3623 14.5558C23.6692 13.3771 22.6725 12.3983 21.4723 11.7178C20.272 11.0372 18.9105 10.679 17.5247 10.6791H14.4502C13.0643 10.679 11.7028 11.0372 10.5026 11.7178C9.30234 12.3983 8.30561 13.3771 7.6126 14.5558L6.07581 17.1706C5.38302 18.3494 5.01831 19.6866 5.01831 21.0477C5.01831 22.4088 5.38302 23.746 6.07581 24.9249L7.6126 27.5396C8.30561 28.7184 9.30234 29.6972 10.5026 30.3777C11.7028 31.0582 13.0643 31.4164 14.4502 31.4164H17.5247C18.9105 31.4164 20.272 31.0582 21.4723 30.3777C22.6725 29.6972 23.6692 28.7184 24.3623 27.5396L25.899 24.9292C26.0832 24.6155 26.2448 24.2895 26.3825 23.9535L26.3905 23.9345C26.0444 23.878 25.6942 23.8491 25.3433 23.848C23.0439 23.848 22.1817 24.5997 21.1821 25.4689" fill="#006BFF"/>
<path d="M16.8374 16.3323H15.5339C13.1332 16.3323 11.5559 18.0163 11.5559 20.1718V21.9233C11.5559 24.0788 13.1332 25.7629 15.5339 25.7629H16.8374C20.3354 25.7629 20.0606 22.2598 25.343 22.2598C25.8434 22.2593 26.3429 22.3044 26.8348 22.3947C26.9951 21.5035 26.9951 20.5916 26.8348 19.7004C26.3428 19.7903 25.8434 19.8355 25.343 19.8353C20.0589 19.8353 20.3354 16.3323 16.8374 16.3323Z" fill="#006BFF"/>
<path d="M29.8697 23.6751C28.9701 23.028 27.9327 22.59 26.8357 22.3941C26.8357 22.4036 26.8357 22.4114 26.8357 22.42C26.7413 22.9365 26.5937 23.4422 26.3954 23.9294C27.3016 24.0672 28.1614 24.415 28.9036 24.944C28.9036 24.9509 28.8992 24.9596 28.8965 24.9673C27.9413 28.0052 25.9082 30.6058 23.1667 32.2967C20.4252 33.9876 17.1571 34.6566 13.9561 34.1822C10.7551 33.7078 7.8335 32.1215 5.72208 29.7113C3.61066 27.3012 2.44949 24.2272 2.44949 21.0478C2.44949 17.8683 3.61066 14.7944 5.72208 12.3842C7.8335 9.97413 10.7551 8.38779 13.9561 7.91339C17.1571 7.43898 20.4252 8.10799 23.1667 9.79888C25.9082 11.4898 27.9413 14.0904 28.8965 17.1283C28.8965 17.136 28.9009 17.1447 28.9036 17.1516C28.1615 17.6806 27.3016 18.0282 26.3954 18.1653C26.5935 18.6532 26.741 19.1595 26.8357 19.6764C26.8352 19.6845 26.8352 19.6926 26.8357 19.7006C27.9327 19.505 28.9701 19.0673 29.8697 18.4205C30.7345 17.7917 30.5672 17.0815 30.4359 16.6612C29.3667 13.2551 27.0888 10.3388 24.0161 8.44214C20.9434 6.54552 17.2799 5.79448 13.6913 6.32549C10.1027 6.85649 6.82711 8.63431 4.45979 11.3359C2.09248 14.0374 0.790527 17.4835 0.790527 21.0478C0.790527 24.6121 2.09248 28.0581 4.45979 30.7597C6.82711 33.4613 10.1027 35.2391 13.6913 35.7701C17.2799 36.3011 20.9434 35.5501 24.0161 33.6534C27.0888 31.7568 29.3667 28.8405 30.4359 25.4344C30.5672 25.014 30.7345 24.3039 29.8697 23.6751Z" fill="#006BFF"/>
<path d="M26.3909 18.1651C26.0448 18.2216 25.6946 18.2505 25.3438 18.2516C23.0443 18.2516 22.1821 17.5 21.1834 16.6307C20.22 15.7917 19.0205 14.7477 16.8382 14.7477H15.5348C13.9566 14.7477 12.5228 15.3108 11.496 16.3314C10.4929 17.3287 9.94067 18.6936 9.94067 20.1753V21.9268C9.94067 23.4085 10.4929 24.7734 11.496 25.7707C12.5228 26.7913 13.9566 27.3535 15.5348 27.3535H16.8382C19.0205 27.3535 20.22 26.3104 21.1834 25.4714C22.1821 24.6064 23.0443 23.8505 25.3438 23.8505C25.6945 23.8505 26.0446 23.878 26.3909 23.9326C26.5897 23.4456 26.7372 22.9398 26.8312 22.4233C26.8317 22.4146 26.8317 22.406 26.8312 22.3973C26.3392 22.3077 25.8398 22.2629 25.3394 22.2633C20.0553 22.2633 20.3318 25.7672 16.8338 25.7672H15.5304C13.1296 25.7672 11.5523 24.0823 11.5523 21.9268V20.1718C11.5523 18.0163 13.1296 16.3323 15.5304 16.3323H16.8338C20.3318 16.3323 20.0571 19.8345 25.3394 19.8345C25.8398 19.8353 26.3393 19.7904 26.8312 19.7004C26.8312 19.6926 26.8312 19.6848 26.8312 19.6762C26.7366 19.1592 26.589 18.653 26.3909 18.1651Z" fill="#0AE8F0"/>
<path d="M26.3909 18.1651C26.0448 18.2216 25.6946 18.2505 25.3438 18.2516C23.0443 18.2516 22.1821 17.5 21.1834 16.6307C20.22 15.7917 19.0205 14.7477 16.8382 14.7477H15.5348C13.9566 14.7477 12.5228 15.3108 11.496 16.3314C10.4929 17.3287 9.94067 18.6936 9.94067 20.1753V21.9268C9.94067 23.4085 10.4929 24.7734 11.496 25.7707C12.5228 26.7913 13.9566 27.3535 15.5348 27.3535H16.8382C19.0205 27.3535 20.22 26.3104 21.1834 25.4714C22.1821 24.6064 23.0443 23.8505 25.3438 23.8505C25.6945 23.8505 26.0446 23.878 26.3909 23.9326C26.5897 23.4456 26.7372 22.9398 26.8312 22.4233C26.8317 22.4146 26.8317 22.406 26.8312 22.3973C26.3392 22.3077 25.8398 22.2629 25.3394 22.2633C20.0553 22.2633 20.3318 25.7672 16.8338 25.7672H15.5304C13.1296 25.7672 11.5523 24.0823 11.5523 21.9268V20.1718C11.5523 18.0163 13.1296 16.3323 15.5304 16.3323H16.8338C20.3318 16.3323 20.0571 19.8345 25.3394 19.8345C25.8398 19.8353 26.3393 19.7904 26.8312 19.7004C26.8312 19.6926 26.8312 19.6848 26.8312 19.6762C26.7366 19.1592 26.589 18.653 26.3909 18.1651Z" fill="#0AE8F0"/>
</g>
<defs>
<clipPath id="clip0_74_2140">
<rect width="140" height="44" fill="white" transform="translate(0.790527)"/>
</clipPath>
</defs>
</svg>
