<svg width="87" height="24" viewBox="0 0 87 24" fill="none" xmlns="http://www.w3.org/2000/svg">
<path d="M15.2553 6.83787C14.7229 3.06775 11.7648 0.880249 7.92769 0.880249C3.40603 0.880249 0 4.11178 0 9.59711C0 15.0741 3.36378 18.314 7.92769 18.314C12.0437 18.314 14.7736 15.7039 15.2553 12.4641L12.0944 12.4475C11.6972 14.4361 10.0406 15.5547 7.96995 15.5547C5.16399 15.5547 3.15248 13.4915 3.15248 9.59711C3.15248 5.76898 5.14709 3.63948 7.97841 3.63948C10.0829 3.63948 11.731 4.80781 12.0944 6.83787H15.2553Z" fill="#121212"/>
<path d="M21.7272 18.3388C23.7641 18.3388 24.9811 17.4025 25.5389 16.3336H25.6403V18.082H28.5815V9.56396C28.5815 6.19985 25.784 5.18896 23.3077 5.18896C20.5778 5.18896 18.4818 6.38214 17.8056 8.70222L20.6623 9.09995C20.9666 8.22992 21.8286 7.48418 23.3246 7.48418C24.7445 7.48418 25.522 8.19677 25.522 9.44796V9.49767C25.522 10.3594 24.6008 10.4008 22.3104 10.6411C19.7918 10.9063 17.383 11.6437 17.383 14.5107C17.383 17.0131 19.2509 18.3388 21.7272 18.3388ZM22.5217 16.1347C21.2455 16.1347 20.3327 15.563 20.3327 14.461C20.3327 13.3092 21.3553 12.8286 22.7245 12.6381C23.5274 12.5303 25.1332 12.3315 25.5305 12.0166V13.5164C25.5305 14.9333 24.3641 16.1347 22.5217 16.1347Z" fill="#121212"/>
<path d="M38.1404 5.35468H35.5795V2.30544H32.52V5.35468H30.6776V7.67476H32.52V14.751C32.5031 17.1456 34.278 18.3222 36.5768 18.256C37.4474 18.2311 38.0474 18.0654 38.3771 17.9577L37.8615 15.6127C37.6925 15.6542 37.346 15.7287 36.9656 15.7287C36.1965 15.7287 35.5795 15.4636 35.5795 14.2538V7.67476H38.1404V5.35468Z" fill="#121212"/>
<path d="M44.4348 18.3388C46.4717 18.3388 47.6887 17.4025 48.2465 16.3336H48.3479V18.082H51.2891V9.56396C51.2891 6.19985 48.4916 5.18896 46.0153 5.18896C43.2854 5.18896 41.1894 6.38214 40.5132 8.70222L43.3699 9.09995C43.6742 8.22992 44.5362 7.48418 46.0322 7.48418C47.4521 7.48418 48.2296 8.19677 48.2296 9.44796V9.49767C48.2296 10.3594 47.3084 10.4008 45.018 10.6411C42.4994 10.9063 40.0906 11.6437 40.0906 14.5107C40.0906 17.0131 41.9585 18.3388 44.4348 18.3388ZM45.2293 16.1347C43.9531 16.1347 43.0403 15.563 43.0403 14.461C43.0403 13.3092 44.0629 12.8286 45.4321 12.6381C46.235 12.5303 47.8408 12.3315 48.2381 12.0166V13.5164C48.2381 14.9333 47.0717 16.1347 45.2293 16.1347Z" fill="#121212"/>
<path d="M57.4251 1.11226H54.3656V18.082H57.4251V1.11226Z" fill="#121212"/>
<path d="M66.2339 18.3305C70.0371 18.3305 72.4543 15.7039 72.4543 11.768C72.4543 7.82391 70.0371 5.18896 66.2339 5.18896C62.4306 5.18896 60.0134 7.82391 60.0134 11.768C60.0134 15.7039 62.4306 18.3305 66.2339 18.3305ZM66.2508 15.9276C64.1463 15.9276 63.1152 14.0881 63.1152 11.7597C63.1152 9.43139 64.1463 7.56704 66.2508 7.56704C68.3214 7.56704 69.3525 9.43139 69.3525 11.7597C69.3525 14.0881 68.3214 15.9276 66.2508 15.9276Z" fill="#121212"/>
<path d="M80.6968 23.1198C84.2043 23.1198 86.7905 21.5455 86.7905 18.2891V5.35468H83.7732V7.45932H83.6042C83.1394 6.53958 82.1674 5.18896 79.877 5.18896C76.8767 5.18896 74.5186 7.49247 74.5186 11.6769C74.5186 15.8282 76.8767 17.8997 79.8686 17.8997C82.0914 17.8997 83.1309 16.7313 83.6042 15.795H83.7563V18.2062C83.7563 20.0789 82.4886 20.8495 80.7475 20.8495C78.9051 20.8495 78.0937 19.996 77.7218 19.2503L74.9666 19.9049C75.5244 21.6864 77.3922 23.1198 80.6968 23.1198ZM80.7222 15.5464C78.7022 15.5464 77.6373 14.0052 77.6373 11.6603C77.6373 9.34853 78.6853 7.6499 80.7222 7.6499C82.6914 7.6499 83.7732 9.24909 83.7732 11.6603C83.7732 14.0881 82.6745 15.5464 80.7222 15.5464Z" fill="#121212"/>
</svg>
