<svg width="126" height="44" viewBox="0 0 126 44" fill="none" xmlns="http://www.w3.org/2000/svg">
<g clip-path="url(#clip0_74_2142)">
<path fill-rule="evenodd" clip-rule="evenodd" d="M16.9294 4.58337C8.01268 4.58337 0.790527 11.7333 0.790527 20.5609C0.790527 27.6309 5.41028 33.6025 11.8255 35.7195C12.6324 35.8593 12.935 35.38 12.935 34.9606C12.935 34.5811 12.9149 33.3229 12.9149 31.9848C8.85997 32.7237 7.81094 31.0062 7.48816 30.1074C7.3066 29.6481 6.51983 28.2301 5.83393 27.8506C5.26907 27.551 4.46212 26.8121 5.81376 26.7921C7.08469 26.7721 7.99251 27.9505 8.29511 28.4298C9.74761 30.8464 12.0676 30.1673 12.9956 29.7479C13.1368 28.7094 13.5604 28.0104 14.0244 27.6109C10.4335 27.2115 6.68122 25.8334 6.68122 19.7221C6.68122 17.9845 7.3066 16.5465 8.33546 15.4281C8.17407 15.0287 7.60921 13.391 8.49685 11.1941C8.49685 11.1941 9.84848 10.7747 12.935 12.8318C14.2261 12.4723 15.598 12.2925 16.9698 12.2925C18.3416 12.2925 19.7134 12.4723 21.0045 12.8318C24.091 10.7547 25.4427 11.1941 25.4427 11.1941C26.3303 13.391 25.7655 15.0287 25.6041 15.4281C26.6329 16.5465 27.2583 17.9645 27.2583 19.7221C27.2583 25.8534 23.4858 27.2115 19.8949 27.6109C20.48 28.1102 20.9843 29.0689 20.9843 30.5668C20.9843 32.7038 20.9641 34.4213 20.9641 34.9606C20.9641 35.38 21.2667 35.8793 22.0737 35.7195C25.2775 34.6487 28.0616 32.6102 30.0339 29.891C32.0062 27.1717 33.0674 23.9086 33.0683 20.5609C33.0683 11.7333 25.8461 4.58337 16.9294 4.58337Z" fill="#208FFF"/>
<path d="M76.0273 28.2728H75.9897C76.0066 28.2728 76.0179 28.2914 76.0349 28.2933H76.0462L76.0273 28.2747V28.2728ZM76.0349 28.2933C75.8597 28.2952 75.4192 28.3865 74.9541 28.3865C73.4854 28.3865 72.9771 27.7155 72.9771 26.8394V21.003H75.9708C76.1403 21.003 76.2721 20.8539 76.2721 20.6489V17.48C76.2721 17.3122 76.1215 17.1631 75.9708 17.1631H72.9771V13.23C72.9771 13.0809 72.8829 12.9877 72.7135 12.9877H68.6465C68.477 12.9877 68.3829 13.0809 68.3829 13.23V17.275C68.3829 17.275 66.3305 17.7783 66.1987 17.7969C66.0481 17.8342 65.954 17.9647 65.954 18.1138V20.6489C65.954 20.8539 66.1046 21.003 66.2741 21.003H68.364V27.1171C68.364 31.6654 71.5649 32.1314 73.749 32.1314C74.747 32.1314 75.952 31.8145 76.1403 31.7213C76.2533 31.684 76.3098 31.5535 76.3098 31.423V28.627C76.3123 28.5477 76.286 28.4701 76.2355 28.4085C76.185 28.3468 76.1138 28.3053 76.0349 28.2914V28.2933ZM120.651 24.1906C120.651 20.8166 119.277 20.3693 117.827 20.5184C116.697 20.593 115.794 21.1522 115.794 21.1522V27.7136C115.794 27.7136 116.716 28.3474 118.091 28.3846C120.03 28.4406 120.651 27.7509 120.651 24.1906ZM125.227 23.8923C125.227 30.286 123.137 32.1127 119.484 32.1127C116.396 32.1127 114.739 30.5656 114.739 30.5656C114.739 30.5656 114.664 31.423 114.57 31.5349C114.513 31.6467 114.419 31.684 114.306 31.684H111.519C111.331 31.684 111.162 31.5349 111.162 31.3671L111.199 10.6576C111.199 10.4899 111.35 10.3407 111.519 10.3407H115.53C115.699 10.3407 115.85 10.4899 115.85 10.6576V17.685C115.85 17.685 117.394 16.6971 119.653 16.6971L119.635 16.6598C121.894 16.6598 125.227 17.4986 125.227 23.8923ZM108.808 17.1631H104.854C104.647 17.1631 104.534 17.3122 104.534 17.5173V27.6577C104.534 27.6577 103.498 28.3846 102.086 28.3846C100.674 28.3846 100.26 27.7509 100.26 26.3528V17.4986C100.26 17.3309 100.109 17.1818 99.9398 17.1818H95.9104C95.741 17.1818 95.5903 17.3309 95.5903 17.4986V27.0239C95.5903 31.1248 97.9063 32.15 101.088 32.15C103.706 32.15 105.833 30.7147 105.833 30.7147C105.833 30.7147 105.927 31.4417 105.984 31.5535C106.021 31.6467 106.153 31.7213 106.285 31.7213H108.808C109.015 31.7213 109.128 31.5722 109.128 31.4044L109.166 17.48C109.166 17.3122 109.015 17.1631 108.808 17.1631ZM64.1841 17.1445H60.1736C60.0041 17.1445 59.8535 17.3122 59.8535 17.5173V31.1993C59.8535 31.5722 60.0982 31.7026 60.4183 31.7026H64.0334C64.41 31.7026 64.5042 31.5349 64.5042 31.1993V17.4614C64.5042 17.2936 64.3535 17.1445 64.1841 17.1445ZM62.2071 10.844C60.7572 10.844 59.6087 11.9811 59.6087 13.4164C59.6087 14.8517 60.7572 15.9888 62.2071 15.9888C63.6192 15.9888 64.7678 14.8517 64.7678 13.4164C64.7678 11.9811 63.6192 10.844 62.2071 10.844ZM93.2556 10.378H89.2827C89.1133 10.378 88.9626 10.5271 88.9626 10.6949V18.3188H82.7303V10.6949C82.7303 10.5271 82.5797 10.378 82.4103 10.378H78.3997C78.2303 10.378 78.0797 10.5271 78.0797 10.6949V31.4044C78.0797 31.5722 78.2491 31.7213 78.3997 31.7213H82.4103C82.5797 31.7213 82.7303 31.5722 82.7303 31.4044V22.5502H88.9626L88.925 31.4044C88.925 31.5722 89.0756 31.7213 89.2451 31.7213H93.2556C93.425 31.7213 93.5757 31.5722 93.5757 31.4044V10.6949C93.5757 10.5271 93.425 10.378 93.2556 10.378ZM57.7258 19.5491V30.2487C57.7258 30.3232 57.707 30.4537 57.6129 30.491C57.6129 30.491 55.2593 32.15 51.3806 32.15C46.6922 32.15 41.1377 30.6961 41.1377 21.1149C41.1377 11.5337 45.9955 9.55783 50.7404 9.57647C54.845 9.57647 56.502 10.4899 56.7656 10.6576C56.8409 10.7508 56.8785 10.8254 56.8785 10.9186L56.0877 14.2366C56.0877 14.4043 55.9183 14.6094 55.7112 14.5535C55.0333 14.3484 54.0166 13.9383 51.6253 13.9383C48.8575 13.9383 45.8826 14.7212 45.8826 20.8912C45.8826 27.0612 48.7069 27.7882 50.7404 27.7882C52.4726 27.7882 53.094 27.5831 53.094 27.5831V23.2958H50.3261C50.119 23.2958 49.9684 23.1467 49.9684 22.9789V19.5491C49.9684 19.3813 50.119 19.2322 50.3261 19.2322H57.3681C57.5752 19.2322 57.7258 19.3813 57.7258 19.5491Z" fill="#208FFF"/>
</g>
<defs>
<clipPath id="clip0_74_2142">
<rect width="125" height="44" fill="white" transform="translate(0.790527)"/>
</clipPath>
</defs>
</svg>
