<svg width="39" height="38" viewBox="0 0 39 38" fill="none" xmlns="http://www.w3.org/2000/svg">
<path fill-rule="evenodd" clip-rule="evenodd" d="M19.7317 29.3888C25.6596 29.3888 30.465 24.7376 30.465 19C30.465 13.2623 25.6596 8.61107 19.7317 8.61107C13.8038 8.61107 8.99837 13.2623 8.99837 19C8.99837 24.7376 13.8038 29.3888 19.7317 29.3888ZM19.7317 37.3333C30.1926 37.3333 38.6729 29.1252 38.6729 19C38.6729 8.87474 30.1926 0.666626 19.7317 0.666626C9.27078 0.666626 0.790527 8.87474 0.790527 19C0.790527 29.1252 9.27078 37.3333 19.7317 37.3333Z" fill="#6938EF"/>
<path d="M19.9484 19.4014C21.921 17.4922 25.1191 17.4922 27.0916 19.4014L36.9134 28.9081C38.886 30.8173 38.886 33.9128 36.9135 35.822C34.9409 37.7312 31.7428 37.7312 29.7703 35.822L19.9484 26.3154C17.9759 24.4061 17.9759 21.3107 19.9484 19.4014Z" fill="#F670C7"/>
<path d="M22.7061 28.9847L28.944 35.0225C31.936 33.4074 34.4288 31.0298 36.1418 28.1614L29.9549 22.1731C28.8682 25.4559 26.1405 28.0279 22.7061 28.9847Z" fill="#6519BA"/>
</svg>
