<svg width="172" height="48" viewBox="0 0 172 48" fill="none" xmlns="http://www.w3.org/2000/svg">
<g clip-path="url(#clip0_74_2141)">
<path d="M4.3217 35.0022C3.69419 35.0036 3.07757 34.8383 2.53482 34.5234C1.99207 34.2084 1.54265 33.7551 1.23248 33.2096C0.927052 32.6679 0.774728 32.0534 0.791823 31.4318C0.808918 30.8102 0.994788 30.205 1.32952 29.681L7.69126 19.6909C8.01687 19.154 8.47915 18.7131 9.03089 18.4133C9.58263 18.1135 10.2041 17.9656 10.8317 17.9845C11.4589 17.9996 12.0708 18.1809 12.6048 18.5101C13.1388 18.8393 13.5758 19.3045 13.871 19.858C14.4641 20.9794 14.39 22.3286 13.6797 23.3812L7.32196 33.3713C6.99955 33.8737 6.55554 34.2866 6.03106 34.5717C5.50659 34.8568 4.91864 35.0048 4.3217 35.0022Z" fill="#F62B54"/>
<path d="M15.2332 35.0022C13.9501 35.0022 12.7694 34.3162 12.1494 33.2137C11.8447 32.6735 11.6927 32.0606 11.7098 31.4406C11.7269 30.8207 11.9124 30.217 12.2465 29.6945L18.5961 19.7273C18.9169 19.1829 19.3775 18.7341 19.9302 18.4277C20.4829 18.1213 21.1075 17.9683 21.7392 17.9846C23.0331 18.0129 24.2057 18.7367 24.7988 19.8688C25.3878 21.001 25.3015 22.3583 24.5696 23.4082L18.2214 33.3754C17.9 33.8757 17.4577 34.2869 16.9355 34.5712C16.4133 34.8556 15.8278 35.0038 15.2332 35.0022Z" fill="#FFCC00"/>
<path d="M25.9017 35.0853C27.7105 35.0853 29.1769 33.6497 29.1769 31.8788C29.1769 30.108 27.7105 28.6724 25.9017 28.6724C24.0928 28.6724 22.6265 30.108 22.6265 31.8788C22.6265 33.6497 24.0928 35.0853 25.9017 35.0853Z" fill="#00CA72"/>
<path d="M168.187 28.8586C169.176 28.8586 169.768 29.5622 169.768 30.7145V34.6637H171.111V30.6242C171.111 28.6645 170.188 27.5283 168.452 27.5283C167.773 27.5283 166.695 27.7143 166.052 28.9637C165.902 28.5952 165.656 28.274 165.339 28.0343C165.021 27.7946 164.645 27.6454 164.25 27.6024C164.001 27.5568 163.747 27.5419 163.495 27.5579C162.942 27.6024 161.958 27.9461 161.59 28.7252V27.6779H160.245V34.6637H161.59V30.8938C161.59 29.4274 162.55 28.8586 163.511 28.8586C164.411 28.8586 165.003 29.5473 165.003 30.6997V34.6637H166.34V30.8938C166.34 29.7266 167.041 28.8451 168.187 28.8586ZM155.308 33.4965C155.923 33.5099 156.516 33.2646 156.946 32.8198C157.377 32.3751 157.606 31.7699 157.583 31.1485C157.583 29.7414 156.548 28.8586 155.308 28.8586C154.067 28.8586 153.033 29.7414 153.033 31.1485C153.009 31.7685 153.238 32.3724 153.667 32.8158C154.095 33.2606 154.686 33.5072 155.297 33.4965H155.308ZM155.308 34.8065C153.343 34.8065 151.703 33.3549 151.703 31.1405C151.703 28.926 153.343 27.5202 155.308 27.5202C157.273 27.5202 158.927 28.926 158.927 31.1405C158.927 33.3549 157.264 34.8133 155.299 34.8133L155.308 34.8065ZM144.782 31.1405L144.768 31.1485C144.768 28.9341 146.452 27.5283 148.43 27.5202C148.927 27.5106 149.421 27.6054 149.879 27.7986C150.337 27.9918 150.749 28.279 151.09 28.6416L150.071 29.5096C149.854 29.2971 149.598 29.1295 149.316 29.0166C149.035 28.9037 148.734 28.8477 148.43 28.8518C147.19 28.8518 146.112 29.7347 146.112 31.1405C146.112 32.0907 146.677 32.9465 147.543 33.3105C148.41 33.6744 149.407 33.4722 150.071 32.801L151.104 33.669C150.763 34.0353 150.349 34.3259 149.888 34.5219C149.428 34.7179 148.931 34.8148 148.43 34.8065C146.466 34.8065 144.782 33.3549 144.782 31.1405ZM140.478 33.3226C140.477 33.2005 140.499 33.0792 140.545 32.9659C140.59 32.8525 140.657 32.7492 140.743 32.6618C140.828 32.5744 140.93 32.5047 141.042 32.4567C141.155 32.4087 141.275 32.3832 141.397 32.3818C141.519 32.3832 141.64 32.4087 141.752 32.4567C141.865 32.5047 141.966 32.5744 142.052 32.6618C142.137 32.7492 142.204 32.8525 142.25 32.9659C142.295 33.0792 142.318 33.2005 142.317 33.3226C142.305 33.5591 142.203 33.7822 142.032 33.9462C141.861 34.1103 141.634 34.203 141.397 34.2054C141.16 34.203 140.934 34.1103 140.763 33.9462C140.592 33.7822 140.49 33.5591 140.478 33.3226Z" fill="#333333"/>
<path fill-rule="evenodd" clip-rule="evenodd" d="M144.154 18.7972H139.368L136.014 27.4462L132.676 18.7972H127.89L133.709 32.4642L130.09 41.5H134.841L144.154 18.7972ZM115.047 26.399C115.047 28.5824 116.955 30.0192 118.83 30.0192C120.673 30.0192 122.483 28.6822 122.483 26.3976C122.483 24.113 120.673 22.7747 118.83 22.7747C116.955 22.7747 115.047 24.2128 115.047 26.3976V26.399ZM122.483 34.0303V32.3011C121.512 33.7702 119.248 34.3255 118.086 34.3255C114.239 34.3255 110.391 31.2929 110.391 26.3976C110.391 21.5037 114.238 18.471 118.086 18.471C119.055 18.471 121.32 18.7945 122.483 20.4928V18.8026H126.944V34.033L122.483 34.0317V34.0303ZM109.122 34.0303H104.66V32.138C103.915 33.5397 102.108 34.3565 100.231 34.3565C96.3511 34.3565 92.9236 31.2579 92.9236 26.4596C92.9236 21.571 96.3511 18.4683 100.231 18.4683C102.105 18.4683 103.918 19.2501 104.66 20.6532V10.5H109.122V34.0303ZM104.563 26.3639C104.563 24.0807 102.915 22.7423 101.073 22.7423C99.164 22.7423 97.579 24.1777 97.579 26.3639C97.579 28.6202 99.164 30.0489 101.071 30.0489C102.949 30.0516 104.563 28.5501 104.563 26.3639ZM81.893 25.9703C81.893 23.6548 83.0898 22.8717 84.6735 22.8717C86.1925 22.8717 87.2924 23.8826 87.2924 25.9043V34.0277H91.786V24.9271C91.786 20.5898 89.6511 18.4683 86.2559 18.4683C84.4781 18.4683 82.7003 19.4792 81.8916 21.013V18.7972H77.4007V34.0277H81.893V25.9703ZM68.2759 34.2891C64.0087 34.2891 60.4491 31.1581 60.4491 26.3626C60.4491 21.5643 64.0046 18.4643 68.2759 18.4643C72.5471 18.4643 76.1337 21.5643 76.1337 26.3626C76.1337 31.1608 72.5431 34.2905 68.2759 34.2905V34.2891ZM68.2759 29.8548C70.1494 29.8548 71.7034 28.4827 71.7034 26.3639C71.7034 24.3085 70.1507 22.9054 68.2759 22.9054C67.8245 22.8983 67.3763 22.9832 66.9588 23.1549C66.5412 23.3266 66.163 23.5815 65.8471 23.9041C65.5294 24.2284 65.2801 24.6133 65.1141 25.0359C64.9481 25.4584 64.8687 25.9101 64.8807 26.3639C64.8821 28.4854 66.4334 29.8548 68.2759 29.8548ZM52.3931 22.873C53.718 22.873 54.8825 23.9176 54.8825 25.9057V34.0303H59.3438V25.38C59.3438 20.7812 57.1078 18.4657 53.5239 18.4657C52.4591 18.4657 50.4536 18.7891 48.9979 21.1721C48.1569 19.4105 46.5408 18.4967 44.1525 18.4967C43.3233 18.4924 42.5104 18.7271 41.811 19.1727C41.1117 19.6182 40.5554 20.2557 40.2088 21.009V18.7986H35.7124V34.029H40.2047V25.9703C40.2047 23.6548 41.4663 22.8717 42.8235 22.8717C44.1174 22.8717 45.2793 23.8826 45.313 25.8073V34.029H49.8066V25.9703C49.8066 23.7559 50.9711 22.8744 52.3931 22.8744V22.873Z" fill="#121212"/>
</g>
<defs>
<clipPath id="clip0_74_2141">
<rect width="171" height="48" fill="white" transform="translate(0.790527)"/>
</clipPath>
</defs>
</svg>
