<svg width="113" height="24" viewBox="0 0 113 24" fill="none" xmlns="http://www.w3.org/2000/svg">
<path d="M19.9825 21.0533C19.4361 21.7066 18.7691 22.2044 17.9816 22.5466C17.2102 22.8888 16.3584 23.0599 15.4263 23.0599C14.1727 23.0599 13.0397 22.7955 12.0272 22.2666C11.0147 21.7533 9.8576 20.8355 8.55583 19.5133C7.02905 19.3266 5.66299 18.8522 4.45764 18.0899C3.26837 17.3277 2.33623 16.3477 1.66124 15.1499C1.00231 13.9366 0.672852 12.5988 0.672852 11.1366C0.672852 9.53439 1.0666 8.0955 1.85409 6.81994C2.65766 5.52883 3.75854 4.51772 5.15674 3.78661C6.57102 3.0555 8.15404 2.68994 9.90582 2.68994C11.6576 2.68994 13.2326 3.0555 14.6308 3.78661C16.029 4.51772 17.1299 5.52883 17.9334 6.81994C18.737 8.0955 19.1388 9.53439 19.1388 11.1366C19.1388 13.0344 18.5843 14.6988 17.4754 16.1299C16.3826 17.5611 14.9281 18.5566 13.112 19.1166C13.5138 19.5211 13.8995 19.8088 14.2692 19.9799C14.6549 20.1666 15.0647 20.2599 15.4986 20.2599C16.5433 20.2599 17.4593 19.8555 18.2468 19.0466L19.9825 21.0533ZM4.62639 11.1366C4.62639 12.1477 4.85139 13.0499 5.30139 13.8433C5.76746 14.6366 6.40227 15.2588 7.20584 15.7099C8.0094 16.1455 8.90939 16.3633 9.90582 16.3633C10.9022 16.3633 11.8022 16.1455 12.6058 15.7099C13.4094 15.2588 14.0361 14.6366 14.4861 13.8433C14.9522 13.0499 15.1852 12.1477 15.1852 11.1366C15.1852 10.1255 14.9522 9.22328 14.4861 8.42994C14.0361 7.63661 13.4094 7.02217 12.6058 6.58661C11.8022 6.1355 10.9022 5.90994 9.90582 5.90994C8.90939 5.90994 8.0094 6.1355 7.20584 6.58661C6.40227 7.02217 5.76746 7.63661 5.30139 8.42994C4.85139 9.22328 4.62639 10.1255 4.62639 11.1366Z" fill="#121212"/>
<path d="M34.8746 6.74994V19.3033H31.3068V17.8099C30.8086 18.3544 30.2139 18.7744 29.5229 19.0699C28.8318 19.3499 28.0845 19.4899 27.2809 19.4899C25.5773 19.4899 24.2274 19.0155 23.2309 18.0666C22.2345 17.1177 21.7363 15.7099 21.7363 13.8433V6.74994H25.497V13.3066C25.497 15.3288 26.3729 16.3399 28.1246 16.3399C29.0246 16.3399 29.7478 16.0599 30.2943 15.4999C30.8407 14.9244 31.1139 14.0766 31.1139 12.9566V6.74994H34.8746Z" fill="#121212"/>
<path d="M44.53 19.4899C43.1639 19.4899 41.9345 19.2177 40.8416 18.6733C39.7649 18.1133 38.9211 17.3433 38.3104 16.3633C37.6997 15.3833 37.3943 14.2711 37.3943 13.0266C37.3943 11.7822 37.6997 10.6699 38.3104 9.68994C38.9211 8.70994 39.7649 7.94772 40.8416 7.40328C41.9345 6.84328 43.1639 6.56328 44.53 6.56328C45.8961 6.56328 47.1175 6.84328 48.1943 7.40328C49.271 7.94772 50.1148 8.70994 50.7255 9.68994C51.3362 10.6699 51.6415 11.7822 51.6415 13.0266C51.6415 14.2711 51.3362 15.3833 50.7255 16.3633C50.1148 17.3433 49.271 18.1133 48.1943 18.6733C47.1175 19.2177 45.8961 19.4899 44.53 19.4899ZM44.53 16.5033C45.4943 16.5033 46.2818 16.1922 46.8925 15.5699C47.5193 14.9322 47.8326 14.0844 47.8326 13.0266C47.8326 11.9688 47.5193 11.1288 46.8925 10.5066C46.2818 9.86883 45.4943 9.54994 44.53 9.54994C43.5657 9.54994 42.7702 9.86883 42.1434 10.5066C41.5166 11.1288 41.2032 11.9688 41.2032 13.0266C41.2032 14.0844 41.5166 14.9322 42.1434 15.5699C42.7702 16.1922 43.5657 16.5033 44.53 16.5033Z" fill="#121212"/>
<path d="M62.5204 18.6966C62.1507 18.9611 61.6927 19.1633 61.1463 19.3033C60.6159 19.4277 60.0534 19.4899 59.4588 19.4899C57.9159 19.4899 56.7186 19.1088 55.8668 18.3466C55.0311 17.5844 54.6133 16.4644 54.6133 14.9866V9.82994H52.6124V7.02994H54.6133V3.97328H58.374V7.02994H61.6043V9.82994H58.374V14.9399C58.374 15.4688 58.5106 15.8811 58.7838 16.1766C59.0731 16.4566 59.4749 16.5966 59.9891 16.5966C60.5838 16.5966 61.09 16.4411 61.5079 16.1299L62.5204 18.6966Z" fill="#121212"/>
<path d="M64.6314 6.74994H68.3921V19.3033H64.6314V6.74994ZM66.5118 4.99994C65.8207 4.99994 65.2582 4.8055 64.8243 4.41661C64.3904 4.02772 64.1734 3.5455 64.1734 2.96994C64.1734 2.39439 64.3904 1.91216 64.8243 1.52328C65.2582 1.13439 65.8207 0.939941 66.5118 0.939941C67.2028 0.939941 67.7653 1.12661 68.1993 1.49994C68.6332 1.87328 68.8501 2.33994 68.8501 2.89994C68.8501 3.50661 68.6332 4.01216 68.1993 4.41661C67.7653 4.8055 67.2028 4.99994 66.5118 4.99994Z" fill="#121212"/>
<path d="M84.5867 13.0733C84.5867 13.1199 84.5626 13.4466 84.5144 14.0533H74.7029C74.8796 14.8311 75.2975 15.4455 75.9564 15.8966C76.6153 16.3477 77.435 16.5733 78.4153 16.5733C79.0903 16.5733 79.685 16.4799 80.1992 16.2933C80.7296 16.0911 81.2198 15.7799 81.6698 15.3599L83.6706 17.4599C82.4492 18.8133 80.6653 19.4899 78.3189 19.4899C76.8564 19.4899 75.5627 19.2177 74.4377 18.6733C73.3127 18.1133 72.4448 17.3433 71.8341 16.3633C71.2234 15.3833 70.9181 14.2711 70.9181 13.0266C70.9181 11.7977 71.2154 10.6933 71.81 9.71328C72.4207 8.71772 73.2484 7.94772 74.293 7.40328C75.3537 6.84328 76.535 6.56328 77.8368 6.56328C79.1064 6.56328 80.2555 6.82772 81.284 7.35661C82.3126 7.8855 83.1162 8.64772 83.6947 9.64328C84.2894 10.6233 84.5867 11.7666 84.5867 13.0733ZM77.8609 9.31661C77.0091 9.31661 76.2939 9.54994 75.7153 10.0166C75.1368 10.4833 74.7832 11.1211 74.6546 11.9299H81.043C80.9144 11.1366 80.5609 10.5066 79.9823 10.0399C79.4037 9.55772 78.6966 9.31661 77.8609 9.31661Z" fill="#121212"/>
<path d="M94.9734 6.56328C96.5805 6.56328 97.8743 7.02994 98.8546 7.96328C99.8511 8.89661 100.349 10.2811 100.349 12.1166V19.3033H96.5886V12.6766C96.5886 11.6811 96.3636 10.9422 95.9136 10.4599C95.4636 9.96217 94.8127 9.71328 93.9609 9.71328C93.0127 9.71328 92.2574 10.0011 91.6949 10.5766C91.1324 11.1366 90.8511 11.9766 90.8511 13.0966V19.3033H87.0904V6.74994H90.6824V8.21994C91.1806 7.69105 91.7993 7.28661 92.5386 7.00661C93.2779 6.71105 94.0895 6.56328 94.9734 6.56328Z" fill="#121212"/>
<path d="M112.123 18.6966C111.754 18.9611 111.296 19.1633 110.749 19.3033C110.219 19.4277 109.656 19.4899 109.062 19.4899C107.519 19.4899 106.322 19.1088 105.47 18.3466C104.634 17.5844 104.216 16.4644 104.216 14.9866V9.82994H102.215V7.02994H104.216V3.97328H107.977V7.02994H111.207V9.82994H107.977V14.9399C107.977 15.4688 108.113 15.8811 108.387 16.1766C108.676 16.4566 109.078 16.5966 109.592 16.5966C110.187 16.5966 110.693 16.4411 111.111 16.1299L112.123 18.6966Z" fill="#121212"/>
</svg>
